<svg xmlns="http://www.w3.org/2000/svg" width="22" height="16" viewBox="0 0 22 16" fill="none">
  <path d="M7 1.00003V7.00003M14 1.00003V7.00003M1 7.00003H20.6M17 13H20C20 13 20.5 11.3 20.8 10.2C20.9 9.80003 21 9.40003 21 9.00003C21 8.60003 20.9 8.20003 20.8 7.80003L19.4 2.80003C19.1 1.80003 18.1 1.00003 17 1.00003H3C2.46957 1.00003 1.96086 1.21074 1.58579 1.58582C1.21071 1.96089 1 2.4696 1 3.00003V13H4M17 13C17 14.1046 16.1046 15 15 15C13.8954 15 13 14.1046 13 13M17 13C17 11.8955 16.1046 11 15 11C13.8954 11 13 11.8955 13 13M4 13C4 14.1046 4.89543 15 6 15C7.10457 15 8 14.1046 8 13M4 13C4 11.8955 4.89543 11 6 11C7.10457 11 8 11.8955 8 13M8 13H13" stroke="#54595E" stroke-width="2" stroke-linecap="round" stroke-linejoin="round"/>
</svg>