<svg width="23" height="14" viewBox="0 0 23 14" fill="none" xmlns="http://www.w3.org/2000/svg">
<path id="Vector" d="M18.5 11H20.5C21.1 11 21.5 10.6 21.5 10V7C21.5 6.1 20.8 5.3 20 5.1C18.2 4.6 15.5 4 15.5 4C15.5 4 14.2 2.6 13.3 1.7C12.8 1.3 12.2 1 11.5 1H4.5C3.9 1 3.4 1.4 3.1 1.9L1.7 4.8C1.56758 5.18623 1.5 5.5917 1.5 6V10C1.5 10.6 1.9 11 2.5 11H4.5M18.5 11C18.5 12.1046 17.6046 13 16.5 13C15.3954 13 14.5 12.1046 14.5 11M18.5 11C18.5 9.89543 17.6046 9 16.5 9C15.3954 9 14.5 9.89543 14.5 11M4.5 11C4.5 12.1046 5.39543 13 6.5 13C7.60457 13 8.5 12.1046 8.5 11M4.5 11C4.5 9.89543 5.39543 9 6.5 9C7.60457 9 8.5 9.89543 8.5 11M8.5 11H14.5" stroke="#54595E" stroke-width="2" stroke-linecap="round" stroke-linejoin="round"/>
</svg>
