<svg height="16" viewBox="0 0 21 22" fill="none" xmlns="http://www.w3.org/2000/svg">
<path id="Vector" d="M10.5 21.5C9.065 21.5 7.70875 21.2242 6.43125 20.6726C5.15375 20.1217 4.0383 19.3692 3.0849 18.4151C2.1308 17.4617 1.3783 16.3462 0.8274 15.0687C0.2758 13.7912 0 12.435 0 11C0 9.5475 0.2758 8.18705 0.8274 6.91865C1.3783 5.64955 2.1308 4.5383 3.0849 3.5849C4.0383 2.6308 5.15375 1.87795 6.43125 1.32635C7.70875 0.77545 9.065 0.5 10.5 0.5C11.9525 0.5 13.3129 0.77545 14.5813 1.32635C15.8504 1.87795 16.9617 2.6308 17.9151 3.5849C18.8692 4.5383 19.6217 5.64955 20.1726 6.91865C20.7242 8.18705 21 9.5475 21 11V12.5225C21 13.555 20.6458 14.4342 19.9374 15.1601C19.2283 15.8867 18.3575 16.25 17.325 16.25C16.695 16.25 16.1087 16.11 15.5662 15.83C15.0238 15.55 14.5775 15.1825 14.2275 14.7275C13.755 15.2 13.1995 15.5721 12.5611 15.8436C11.922 16.1146 11.235 16.25 10.5 16.25C9.0475 16.25 7.80955 15.7379 6.78615 14.7138C5.76205 13.6904 5.25 12.4525 5.25 11C5.25 9.5475 5.76205 8.3092 6.78615 7.2851C7.80955 6.2617 9.0475 5.75 10.5 5.75C11.9525 5.75 13.1908 6.2617 14.2149 7.2851C15.2383 8.3092 15.75 9.5475 15.75 11V12.5225C15.75 13.03 15.9075 13.4279 16.2225 13.7163C16.5375 14.0054 16.905 14.15 17.325 14.15C17.745 14.15 18.1125 14.0054 18.4275 13.7163C18.7425 13.4279 18.9 13.03 18.9 12.5225V11C18.9 8.7075 18.0729 6.7342 16.4188 5.0801C14.7654 3.4267 12.7925 2.6 10.5 2.6C8.2075 2.6 6.2342 3.4267 4.5801 5.0801C2.9267 6.7342 2.1 8.7075 2.1 11C2.1 13.2925 2.9267 15.2654 4.5801 16.9188C6.2342 18.5729 8.2075 19.4 10.5 19.4H15.75V21.5H10.5ZM10.5 14.15C11.375 14.15 12.1187 13.8437 12.7312 13.2312C13.3437 12.6187 13.65 11.875 13.65 11C13.65 10.125 13.3437 9.38125 12.7312 8.76875C12.1187 8.15625 11.375 7.85 10.5 7.85C9.625 7.85 8.88125 8.15625 8.26875 8.76875C7.65625 9.38125 7.35 10.125 7.35 11C7.35 11.875 7.65625 12.6187 8.26875 13.2312C8.88125 13.8437 9.625 14.15 10.5 14.15Z" fill="#A01B17"/>
</svg>
