<svg width="36" height="14" viewBox="0 0 36 14" fill="#FFFFFF" xmlns="http://www.w3.org/2000/svg">
<path d="M0.0119405 13V1.1H8.69894V2.953H2.22194V11.147H8.93694V13H0.0119405ZM2.05194 7.866V6.047H7.96794V7.866H2.05194ZM11.4006 13V1.1H13.2196L20.6826 10.263H19.7816V1.1H21.9746V13H20.1556L12.6926 3.837H13.5936V13H11.4006ZM30.7223 13.17C29.793 13.17 28.9373 13.0227 28.1553 12.728C27.3846 12.422 26.7103 11.997 26.1323 11.453C25.5543 10.8977 25.1066 10.246 24.7893 9.498C24.472 8.75 24.3133 7.934 24.3133 7.05C24.3133 6.166 24.472 5.35 24.7893 4.602C25.1066 3.854 25.5543 3.208 26.1323 2.664C26.7216 2.10867 27.4073 1.68367 28.1893 1.389C28.9713 1.083 29.827 0.929999 30.7563 0.929999C31.765 0.929999 32.6716 1.09433 33.4763 1.423C34.2923 1.75167 34.978 2.23333 35.5333 2.868L34.1393 4.228C33.6746 3.76333 33.1703 3.42333 32.6263 3.208C32.0936 2.98133 31.5043 2.868 30.8583 2.868C30.235 2.868 29.657 2.97 29.1243 3.174C28.5916 3.378 28.1326 3.667 27.7473 4.041C27.362 4.415 27.0616 4.857 26.8463 5.367C26.6423 5.877 26.5403 6.438 26.5403 7.05C26.5403 7.65067 26.6423 8.206 26.8463 8.716C27.0616 9.226 27.362 9.67367 27.7473 10.059C28.1326 10.433 28.586 10.722 29.1073 10.926C29.6286 11.13 30.2066 11.232 30.8413 11.232C31.4306 11.232 31.9973 11.1413 32.5413 10.96C33.0966 10.7673 33.6236 10.45 34.1223 10.008L35.3803 11.657C34.757 12.1557 34.0316 12.5353 33.2043 12.796C32.3883 13.0453 31.561 13.17 30.7223 13.17ZM35.3803 11.657L33.2893 11.368V6.914H35.3803V11.657Z" fill="#FFFFFF"/>
</svg>
