<svg width="15" height="22" viewBox="0 0 15 22" fill="#565656" xmlns="http://www.w3.org/2000/svg">
<g id="Group 3">
<path id="Vector" d="M7.35 0.5C3.2865 0.5 0 3.7865 0 7.85C0 13.3625 7.35 21.5 7.35 21.5C7.35 21.5 14.7 13.3625 14.7 7.85C14.7 3.7865 11.4135 0.5 7.35 0.5ZM2.1 7.85C2.1 4.952 4.452 2.6 7.35 2.6C10.248 2.6 12.6 4.952 12.6 7.85C12.6 10.874 9.576 15.3995 7.35 18.224C5.166 15.4205 2.1 10.8425 2.1 7.85Z" fill="#D5402D"/>
<path id="Vector_2" d="M7.34985 10.4749C8.7996 10.4749 9.97485 9.2996 9.97485 7.84985C9.97485 6.40011 8.7996 5.22485 7.34985 5.22485C5.90011 5.22485 4.72485 6.40011 4.72485 7.84985C4.72485 9.2996 5.90011 10.4749 7.34985 10.4749Z" fill="#D5402D"/>
</g>
</svg>
