<svg width="25" height="20" viewBox="0 0 25 20" fill="none" xmlns="http://www.w3.org/2000/svg">
<path id="Vector" fill-rule="evenodd" clip-rule="evenodd" d="M0.555542 18.8889C0.555542 18.5942 0.672605 18.3116 0.880979 18.1032C1.08935 17.8948 1.37197 17.7778 1.66665 17.7778H23.8889C24.1836 17.7778 24.4662 17.8948 24.6745 18.1032C24.8829 18.3116 25 18.5942 25 18.8889C25 19.1836 24.8829 19.4662 24.6745 19.6746C24.4662 19.8829 24.1836 20 23.8889 20H1.66665C1.37197 20 1.08935 19.8829 0.880979 19.6746C0.672605 19.4662 0.555542 19.1836 0.555542 18.8889ZM0.555542 10C0.555542 9.70531 0.672605 9.4227 0.880979 9.21433C1.08935 9.00595 1.37197 8.88889 1.66665 8.88889H23.8889C24.1836 8.88889 24.4662 9.00595 24.6745 9.21433C24.8829 9.4227 25 9.70531 25 10C25 10.2947 24.8829 10.5773 24.6745 10.7857C24.4662 10.9941 24.1836 11.1111 23.8889 11.1111H1.66665C1.37197 11.1111 1.08935 10.9941 0.880979 10.7857C0.672605 10.5773 0.555542 10.2947 0.555542 10ZM0.555542 1.11111C0.555542 0.816426 0.672605 0.533811 0.880979 0.325437C1.08935 0.117063 1.37197 0 1.66665 0H23.8889C24.1836 0 24.4662 0.117063 24.6745 0.325437C24.8829 0.533811 25 0.816426 25 1.11111C25 1.4058 24.8829 1.68841 24.6745 1.89679C24.4662 2.10516 24.1836 2.22222 23.8889 2.22222H1.66665C1.37197 2.22222 1.08935 2.10516 0.880979 1.89679C0.672605 1.68841 0.555542 1.4058 0.555542 1.11111Z" fill="#868686"/>
</svg>
