<svg width="11" height="14" viewBox="0 0 11 14" fill="none" xmlns="http://www.w3.org/2000/svg">
<g id="Group 3">
<path id="Vector" d="M5.4 0C2.691 0 0.5 2.191 0.5 4.9C0.5 8.575 5.4 14 5.4 14C5.4 14 10.3 8.575 10.3 4.9C10.3 2.191 8.109 0 5.4 0ZM1.9 4.9C1.9 2.968 3.468 1.4 5.4 1.4C7.332 1.4 8.9 2.968 8.9 4.9C8.9 6.916 6.884 9.933 5.4 11.816C3.944 9.947 1.9 6.895 1.9 4.9Z" fill="#D5402D"/>
<path id="Vector_2" d="M5.39996 6.6499C6.36646 6.6499 7.14996 5.8664 7.14996 4.8999C7.14996 3.9334 6.36646 3.1499 5.39996 3.1499C4.43347 3.1499 3.64996 3.9334 3.64996 4.8999C3.64996 5.8664 4.43347 6.6499 5.39996 6.6499Z" fill="#D5402D"/>
</g>
</svg>
