<svg width="21" height="12" viewBox="0 0 21 12" fill="#FFFFFF" xmlns="http://www.w3.org/2000/svg">
<g id="Vector">
<path d="M14.3498 12V1.88571H10.3727V0H20.5555V1.88571H16.5784V12H14.3498Z" fill="#FFFFFF"/>
<path d="M-0.00408936 12V0H4.93305C5.99591 0 6.90448 0.171429 7.65877 0.514286C8.42448 0.857143 9.01305 1.34857 9.42448 1.98857C9.83591 2.62857 10.0416 3.38857 10.0416 4.26857C10.0416 5.14857 9.83591 5.90857 9.42448 6.54857C9.01305 7.18857 8.42448 7.68 7.65877 8.02286C6.90448 8.36571 5.99591 8.53714 4.93305 8.53714H1.2302L2.22448 7.49143V12H-0.00408936ZM2.22448 7.73143L1.2302 6.65143H4.8302C5.81305 6.65143 6.5502 6.44571 7.04162 6.03429C7.54448 5.61143 7.79591 5.02286 7.79591 4.26857C7.79591 3.50286 7.54448 2.91429 7.04162 2.50286C6.5502 2.09143 5.81305 1.88571 4.8302 1.88571H1.2302L2.22448 0.788571V7.73143Z" fill="#FFFFFF"/>
</g>
</svg>
