<svg width="21" height="22" viewBox="0 0 21 22" fill="none" xmlns="http://www.w3.org/2000/svg">
<path id="Vector" d="M4.13 2.83333C4.2 3.87167 4.375 4.88667 4.655 5.855L3.255 7.255C2.77667 5.855 2.47333 4.37333 2.36833 2.83333H4.13ZM15.6333 16.8567C16.625 17.1367 17.64 17.3117 18.6667 17.3817V19.12C17.1267 19.015 15.645 18.7117 14.2333 18.245L15.6333 16.8567ZM5.25 0.5H1.16667C0.525 0.5 0 1.025 0 1.66667C0 12.6217 8.87833 21.5 19.8333 21.5C20.475 21.5 21 20.975 21 20.3333V16.2617C21 15.62 20.475 15.095 19.8333 15.095C18.3867 15.095 16.975 14.8617 15.6683 14.43C15.5517 14.3833 15.4233 14.3717 15.3067 14.3717C15.0033 14.3717 14.7117 14.4883 14.4783 14.71L11.9117 17.2767C8.61 15.585 5.90333 12.89 4.22333 9.58833L6.79 7.02167C7.11667 6.695 7.21 6.24 7.08167 5.83167C6.65 4.525 6.41667 3.125 6.41667 1.66667C6.41667 1.025 5.89167 0.5 5.25 0.5Z" fill="#A01B17"/>
</svg>
