<svg xmlns="http://www.w3.org/2000/svg" width="22" height="22" viewBox="0 0 22 22" fill="none">
  <g clipPath="url(#clip0_1100_12914)">
    <path d="M14.6666 15.5834H18.3333M3.66665 11.9167H7.33331M3.66665 14.6667V12.485C3.66665 10.5417 2.72248 9.62503 2.74998 7.33336C2.77748 4.84003 4.11581 1.83336 6.87498 1.83336C8.58915 1.83336 9.16665 3.48336 9.16665 5.04169C9.16665 7.89253 7.33331 10.23 7.33331 12.9984V14.6667C7.33331 15.1529 7.14016 15.6192 6.79634 15.9631C6.45252 16.3069 5.98621 16.5 5.49998 16.5C5.01375 16.5 4.54743 16.3069 4.20362 15.9631C3.8598 15.6192 3.66665 15.1529 3.66665 14.6667ZM18.3333 18.3334V16.1517C18.3333 14.2084 19.2775 13.2917 19.25 11C19.2225 8.50669 17.8841 5.50003 15.125 5.50003C13.4108 5.50003 12.8333 7.15003 12.8333 8.70836C12.8333 11.5592 14.6666 13.8967 14.6666 16.665V18.3334C14.6666 18.8196 14.8598 19.2859 15.2036 19.6297C15.5474 19.9735 16.0137 20.1667 16.5 20.1667C16.9862 20.1667 17.4525 19.9735 17.7963 19.6297C18.1402 19.2859 18.3333 18.8196 18.3333 18.3334Z" stroke="#54595E" stroke-width="2" stroke-linecap="round" stroke-linejoin="round"/>
  </g>
  <defs>
    <clipPath id="clip0_1100_12914">
      <rect width="22" height="22" fill="white"/>
    </clipPath>
  </defs>
</svg>