<svg width="24" height="24" viewBox="0 0 24 24" fill="none" xmlns="http://www.w3.org/2000/svg">
<g clip-path="url(#clip0_1106_16790)">
<path d="M10 9.333L15.333 11.995L10 14.667V9.333ZM24 5V19C24 21.761 21.762 24 19 24H5C2.239 24 0 21.761 0 19V5C0 2.239 2.239 0 5 0H19C21.762 0 24 2.239 24 5ZM20 12C19.98 7.877 19.677 6.3 17.077 6.123C14.674 5.959 9.323 5.96 6.924 6.123C4.326 6.3 4.02 7.87 4 12C4.02 16.123 4.323 17.7 6.923 17.877C9.322 18.04 14.673 18.041 17.076 17.877C19.674 17.7 19.98 16.13 20 12Z" fill="#A01B17"/>
</g>
<defs>
<clipPath id="clip0_1106_16790">
<rect width="24" height="24" fill="white"/>
</clipPath>
</defs>
</svg>
