<svg width="15" height="14" viewBox="0 0 15 14" fill="none" xmlns="http://www.w3.org/2000/svg">
<path d="M3.25333 1.55556C3.3 2.24778 3.41667 2.92444 3.60333 3.57L2.67 4.50333C2.35111 3.57 2.14889 2.58222 2.07889 1.55556H3.25333ZM10.9222 10.9044C11.5833 11.0911 12.26 11.2078 12.9444 11.2544V12.4133C11.9178 12.3433 10.93 12.1411 9.98889 11.83L10.9222 10.9044ZM4 0H1.27778C0.85 0 0.5 0.35 0.5 0.777778C0.5 8.08111 6.41889 14 13.7222 14C14.15 14 14.5 13.65 14.5 13.2222V10.5078C14.5 10.08 14.15 9.73 13.7222 9.73C12.7578 9.73 11.8167 9.57444 10.9456 9.28667C10.8678 9.25556 10.7822 9.24778 10.7044 9.24778C10.5022 9.24778 10.3078 9.32556 10.1522 9.47333L8.44111 11.1844C6.24 10.0567 4.43556 8.26 3.31556 6.05889L5.02667 4.34778C5.24444 4.13 5.30667 3.82667 5.22111 3.55444C4.93333 2.68333 4.77778 1.75 4.77778 0.777778C4.77778 0.35 4.42778 0 4 0Z" fill="#A01B17"/>
</svg>
