<svg width="17" height="16" viewBox="0 0 17 16" fill="none" xmlns="http://www.w3.org/2000/svg">
<g clip-path="url(#clip0_1341_9344)">
<path d="M13.1667 0H3.83333C1.99267 0 0.5 1.49267 0.5 3.33333V12.6667C0.5 14.5073 1.99267 16 3.83333 16H13.1667C15.008 16 16.5 14.5073 16.5 12.6667V3.33333C16.5 1.49267 15.008 0 13.1667 0ZM11.1667 4.66667H9.884C9.474 4.66667 9.16667 4.83467 9.16667 5.25933V6H11.1667L11.008 8H9.16667V13.3333H7.16667V8H5.83333V6H7.16667V4.718C7.16667 3.37 7.876 2.66667 9.474 2.66667H11.1667V4.66667Z" fill="#A01B17"/>
</g>
<defs>
<clipPath id="clip0_1341_9344">
<rect width="16" height="16" fill="white" transform="translate(0.5)"/>
</clipPath>
</defs>
</svg>
