<svg width="17" height="16" viewBox="0 0 17 16" fill="none" xmlns="http://www.w3.org/2000/svg">
<g clip-path="url(#clip0_1341_9348)">
<path d="M10.6553 3.65867C10.0933 3.63333 9.924 3.628 8.5 3.628C7.076 3.628 6.90733 3.63333 6.34533 3.65867C4.89867 3.72467 4.22467 4.41 4.15933 5.84467C4.13333 6.40733 4.12733 6.576 4.12733 8C4.12733 9.424 4.13333 9.59267 4.15867 10.1553C4.22467 11.5873 4.896 12.2753 6.34467 12.3413C6.90667 12.3667 7.076 12.3727 8.5 12.3727C9.92467 12.3727 10.0933 12.3673 10.6553 12.342C12.102 12.276 12.7753 11.5893 12.8413 10.156C12.8667 9.59333 12.872 9.42467 12.872 8.00067C12.872 6.57667 12.8667 6.408 12.8413 5.846C12.7753 4.41067 12.1007 3.72467 10.6553 3.65867ZM8.5 10.7387C6.98733 10.7387 5.76133 9.51267 5.76133 8C5.76133 6.48733 6.988 5.26133 8.5 5.26133C10.012 5.26133 11.2387 6.48733 11.2387 8C11.2387 9.51267 10.0127 10.7387 8.5 10.7387ZM11.3473 5.79333C10.994 5.79333 10.7073 5.50667 10.7073 5.15333C10.7073 4.8 10.994 4.51333 11.3473 4.51333C11.7007 4.51333 11.9873 4.8 11.9873 5.15333C11.9873 5.50667 11.7007 5.79333 11.3473 5.79333ZM10.278 8C10.278 8.982 9.482 9.778 8.5 9.778C7.518 9.778 6.722 8.982 6.722 8C6.722 7.018 7.518 6.222 8.5 6.222C9.482 6.222 10.278 7.018 10.278 8ZM13.1667 0H3.83333C1.99267 0 0.5 1.49267 0.5 3.33333V12.6667C0.5 14.5073 1.99267 16 3.83333 16H13.1667C15.008 16 16.5 14.5073 16.5 12.6667V3.33333C16.5 1.49267 15.008 0 13.1667 0ZM13.8013 10.1987C13.7133 12.138 12.634 13.2127 10.6993 13.3013C10.13 13.3273 9.94867 13.3333 8.5 13.3333C7.05133 13.3333 6.87067 13.3273 6.30133 13.3013C4.36267 13.2127 3.288 12.136 3.19867 10.1987C3.17267 9.63 3.16667 9.44867 3.16667 8C3.16667 6.552 3.17267 6.37 3.19867 5.80133C3.288 3.86267 4.364 2.78733 6.30133 2.69933C6.87067 2.67267 7.05133 2.66667 8.5 2.66667C9.94867 2.66667 10.13 2.67267 10.6993 2.69867C12.638 2.78733 13.7147 3.866 13.8013 5.80067C13.8273 6.37 13.8333 6.552 13.8333 8C13.8333 9.44867 13.8273 9.63 13.8013 10.1987Z" fill="#A01B17"/>
</g>
<defs>
<clipPath id="clip0_1341_9348">
<rect width="16" height="16" fill="white" transform="translate(0.5)"/>
</clipPath>
</defs>
</svg>
