<svg width="17" height="16" viewBox="0 0 17 16" fill="none" xmlns="http://www.w3.org/2000/svg">
<g clip-path="url(#clip0_1341_9346)">
<path d="M7.16667 6.222L10.722 7.99667L7.16667 9.778V6.222ZM16.5 3.33333V12.6667C16.5 14.5073 15.008 16 13.1667 16H3.83333C1.99267 16 0.5 14.5073 0.5 12.6667V3.33333C0.5 1.49267 1.99267 0 3.83333 0H13.1667C15.008 0 16.5 1.49267 16.5 3.33333ZM13.8333 8C13.82 5.25133 13.618 4.2 11.8847 4.082C10.2827 3.97267 6.71533 3.97333 5.116 4.082C3.384 4.2 3.18 5.24667 3.16667 8C3.18 10.7487 3.382 11.8 5.11533 11.918C6.71467 12.0267 10.282 12.0273 11.884 11.918C13.616 11.8 13.82 10.7533 13.8333 8Z" fill="#A01B17"/>
</g>
<defs>
<clipPath id="clip0_1341_9346">
<rect width="16" height="16" fill="white" transform="translate(0.5)"/>
</clipPath>
</defs>
</svg>
