<svg width="17" height="16" viewBox="0 0 17 16" fill="none" xmlns="http://www.w3.org/2000/svg">
<g clip-path="url(#clip0_1341_9350)">
<path d="M13.1667 0H3.83333C1.99267 0 0.5 1.49267 0.5 3.33333V12.6667C0.5 14.5073 1.99267 16 3.83333 16H13.1667C15.008 16 16.5 14.5073 16.5 12.6667V3.33333C16.5 1.49267 15.008 0 13.1667 0ZM5.83333 12.6667H3.83333V5.33333H5.83333V12.6667ZM4.83333 4.488C4.18933 4.488 3.66667 3.96133 3.66667 3.312C3.66667 2.66267 4.18933 2.136 4.83333 2.136C5.47733 2.136 6 2.66267 6 3.312C6 3.96133 5.478 4.488 4.83333 4.488ZM13.8333 12.6667H11.8333V8.93067C11.8333 6.68533 9.16667 6.85533 9.16667 8.93067V12.6667H7.16667V5.33333H9.16667V6.51C10.0973 4.786 13.8333 4.65867 13.8333 8.16067V12.6667Z" fill="#A01B17"/>
</g>
<defs>
<clipPath id="clip0_1341_9350">
<rect width="16" height="16" fill="white" transform="translate(0.5)"/>
</clipPath>
</defs>
</svg>
