<svg width="10" height="15" viewBox="0 0 10 15" fill="none" xmlns="http://www.w3.org/2000/svg">
<g id="Group 4">
<path id="Vector" d="M4.9 0.703857C2.191 0.703857 0 2.89486 0 5.60386C0 9.27886 4.9 14.7039 4.9 14.7039C4.9 14.7039 9.8 9.27886 9.8 5.60386C9.8 2.89486 7.609 0.703857 4.9 0.703857ZM1.4 5.60386C1.4 3.67186 2.968 2.10386 4.9 2.10386C6.832 2.10386 8.4 3.67186 8.4 5.60386C8.4 7.61986 6.384 10.6369 4.9 12.5199C3.444 10.6509 1.4 7.59886 1.4 5.60386Z" fill="#D5402D"/>
<path id="Vector_2" d="M4.89998 7.35388C5.86648 7.35388 6.64998 6.57038 6.64998 5.60388C6.64998 4.63738 5.86648 3.85388 4.89998 3.85388C3.93348 3.85388 3.14998 4.63738 3.14998 5.60388C3.14998 6.57038 3.93348 7.35388 4.89998 7.35388Z" fill="#D5402D"/>
</g>
</svg>
