<svg width="15" height="14" viewBox="0 0 15 14" fill="none" xmlns="http://www.w3.org/2000/svg">
<path d="M7.5 14C6.54333 14 5.63917 13.8161 4.7875 13.4484C3.93583 13.0811 3.1922 12.5795 2.5566 11.9434C1.92053 11.3078 1.41887 10.5642 1.0516 9.7125C0.683867 8.86083 0.5 7.95667 0.5 7C0.5 6.03167 0.683867 5.1247 1.0516 4.2791C1.41887 3.43303 1.92053 2.6922 2.5566 2.0566C3.1922 1.42053 3.93583 0.918633 4.7875 0.5509C5.63917 0.183633 6.54333 0 7.5 0C8.46833 0 9.3753 0.183633 10.2209 0.5509C11.067 0.918633 11.8078 1.42053 12.4434 2.0566C13.0795 2.6922 13.5811 3.43303 13.9484 4.2791C14.3161 5.1247 14.5 6.03167 14.5 7V8.015C14.5 8.70333 14.2639 9.28947 13.7916 9.7734C13.3189 10.2578 12.7383 10.5 12.05 10.5C11.63 10.5 11.2392 10.4067 10.8775 10.22C10.5158 10.0333 10.2183 9.78833 9.985 9.485C9.67 9.8 9.2997 10.048 8.8741 10.2291C8.44803 10.4097 7.99 10.5 7.5 10.5C6.53167 10.5 5.70637 10.1586 5.0241 9.4759C4.34137 8.79363 4 7.96833 4 7C4 6.03167 4.34137 5.20613 5.0241 4.5234C5.70637 3.84113 6.53167 3.5 7.5 3.5C8.46833 3.5 9.29387 3.84113 9.9766 4.5234C10.6589 5.20613 11 6.03167 11 7V8.015C11 8.35333 11.105 8.61863 11.315 8.8109C11.525 9.00363 11.77 9.1 12.05 9.1C12.33 9.1 12.575 9.00363 12.785 8.8109C12.995 8.61863 13.1 8.35333 13.1 8.015V7C13.1 5.47167 12.5486 4.15613 11.4459 3.0534C10.3436 1.95113 9.02833 1.4 7.5 1.4C5.97167 1.4 4.65613 1.95113 3.5534 3.0534C2.45113 4.15613 1.9 5.47167 1.9 7C1.9 8.52833 2.45113 9.84363 3.5534 10.9459C4.65613 12.0486 5.97167 12.6 7.5 12.6H11V14H7.5ZM7.5 9.1C8.08333 9.1 8.57917 8.89583 8.9875 8.4875C9.39583 8.07917 9.6 7.58333 9.6 7C9.6 6.41667 9.39583 5.92083 8.9875 5.5125C8.57917 5.10417 8.08333 4.9 7.5 4.9C6.91667 4.9 6.42083 5.10417 6.0125 5.5125C5.60417 5.92083 5.4 6.41667 5.4 7C5.4 7.58333 5.60417 8.07917 6.0125 8.4875C6.42083 8.89583 6.91667 9.1 7.5 9.1Z" fill="#A01B17"/>
</svg>
