<svg height="18" viewBox="0 0 182 30" fill="none" xmlns="http://www.w3.org/2000/svg">
<g id="Layer_1" clip-path="url(#clip0_1106_16502)">
<path id="Vector" d="M96.2849 2.54533C95.5857 2.54533 95.0757 2.70938 94.5395 2.92635L94.6551 3.65664C95.1441 3.43967 95.6646 3.27033 96.2113 3.27033C96.7318 3.27033 97.0683 3.47142 97.0683 4.03766V4.22817C95.1914 4.42926 94.224 4.87378 94.224 6.00626C94.224 6.77359 94.734 7.26574 95.5489 7.26574C96.2849 7.26574 96.7792 6.93235 97.1367 6.56191L97.2313 7.17049H97.9148V3.99532C97.9148 2.98456 97.3838 2.54004 96.2902 2.54004M97.0683 5.92688C96.6898 6.31848 96.2166 6.56191 95.7277 6.56191C95.3018 6.56191 95.0547 6.32378 95.0547 5.95863C95.0547 5.49294 95.4069 5.03783 97.0683 4.87378V5.93217V5.92688Z" fill="#505456"/>
<path id="Vector_2" d="M107.105 0.444475V2.78351C106.821 2.67238 106.416 2.58242 105.969 2.58242C104.876 2.58242 103.929 3.3815 103.929 5.03788C103.929 6.55666 104.734 7.27108 105.706 7.27108C106.369 7.27108 106.826 6.9271 107.168 6.51962L107.273 7.17582H107.946V0.306885L107.105 0.439183V0.444475ZM107.105 5.71525C106.747 6.19681 106.348 6.51433 105.827 6.51433C105.223 6.51433 104.781 5.99572 104.781 4.99554C104.781 3.87365 105.291 3.29683 106.001 3.29683C106.479 3.29683 106.753 3.37621 107.105 3.55614V5.72054V5.71525Z" fill="#505456"/>
<path id="Vector_3" d="M92.1315 4.49284C92.4364 3.89485 93.0673 3.39212 93.8139 3.34978L93.6825 2.54541C92.9464 2.58245 92.4259 3.04814 92.1052 3.56146L91.9632 2.64066H91.2903V7.17056H92.1315V4.49284Z" fill="#505456"/>
<path id="Vector_4" d="M100.055 4.03782C100.459 3.59859 100.912 3.30224 101.353 3.30224C101.847 3.30224 102.047 3.61975 102.047 4.08544V7.17594H102.888V3.87906C102.888 3.0641 102.436 2.55078 101.585 2.55078C100.943 2.55078 100.417 2.91063 99.9862 3.30224L99.8863 2.64604H99.2134V7.18123H100.055V4.04311V4.03782Z" fill="#505456"/>
<path id="Vector_5" d="M89.0191 3.67251C89.6027 3.42379 89.9549 2.97927 89.9549 2.31248C89.9549 1.30172 89.282 0.61377 87.8467 0.61377H86.2694V7.17048H87.8309C89.3345 7.17048 90.2388 6.56191 90.2388 5.2548C90.2388 4.38692 89.7499 3.89477 89.0243 3.6778M87.1369 1.37581H87.8256C88.7142 1.37581 89.0822 1.74624 89.0822 2.34423C89.0822 2.98985 88.6195 3.37087 87.7573 3.37087H87.1316V1.37052L87.1369 1.37581ZM87.894 6.41373H87.1369V4.10116H87.8677C88.8403 4.10116 89.3713 4.50864 89.3713 5.27068C89.3713 6.03271 88.8298 6.41373 87.8992 6.41373" fill="#505456"/>
<path id="Vector_6" d="M112.915 4.81565C112.915 3.56146 112.31 2.54541 110.996 2.54541C109.86 2.54541 109.013 3.43975 109.013 4.89503C109.013 6.5567 109.928 7.27111 111.101 7.27111C111.847 7.27111 112.426 7.04356 112.904 6.66254L112.783 5.90579C112.289 6.29739 111.821 6.55141 111.169 6.55141C110.386 6.55141 109.881 6.05926 109.855 5.00087H112.915V4.82094V4.81565ZM109.891 4.36055C110.023 3.58792 110.465 3.2069 110.985 3.2069C111.637 3.2069 111.958 3.62497 112.058 4.36055H109.886H109.891Z" fill="#505456"/>
<path id="Vector_7" d="M121.148 2.54545C120.533 2.54545 120.102 2.85768 119.797 3.17519V0.312256L118.955 0.444554V6.94835C119.555 7.12827 120.033 7.23411 120.711 7.23411C122.015 7.23411 122.92 6.43503 122.92 4.77865C122.92 3.26516 122.12 2.54545 121.143 2.54545M120.706 6.50912C120.291 6.50912 120.081 6.46149 119.797 6.35565V4.03778C120.138 3.60913 120.554 3.29691 121.027 3.29691C121.632 3.29691 122.078 3.83139 122.078 4.8157C122.078 5.98521 121.584 6.50912 120.711 6.50912" fill="#505456"/>
<path id="Vector_8" d="M114.823 4.03782C115.228 3.59859 115.68 3.30224 116.122 3.30224C116.616 3.30224 116.816 3.61975 116.816 4.08544V7.17594H117.657V3.87906C117.657 3.0641 117.205 2.55078 116.353 2.55078C115.712 2.55078 115.186 2.91063 114.755 3.30224L114.655 2.64604H113.982V7.18123H114.823V4.04311V4.03782Z" fill="#505456"/>
<path id="Vector_9" d="M129.775 3.56146L129.633 2.64066H128.96V7.17586H129.802V4.49284C130.107 3.89485 130.737 3.39212 131.484 3.34978L131.353 2.54541C130.617 2.58245 130.096 3.04814 129.775 3.56146Z" fill="#505456"/>
<path id="Vector_10" d="M134.139 2.58252C132.835 2.58252 131.926 3.39219 131.926 4.99035C131.926 6.47739 132.73 7.18651 133.703 7.18651C134.318 7.18651 134.754 6.87428 135.054 6.57264V7.15475C135.054 7.76333 134.744 8.19197 133.929 8.19197C133.314 8.19197 132.777 8.02792 132.315 7.76333L132.194 8.56241C132.667 8.7688 133.24 8.91697 133.876 8.91697C135.285 8.91697 135.895 8.19197 135.895 7.10184V2.87887C135.301 2.69365 134.823 2.5931 134.139 2.5931M135.054 5.69418C134.712 6.12283 134.297 6.43505 133.824 6.43505C133.219 6.43505 132.772 5.90057 132.772 4.96389C132.772 3.84729 133.266 3.30752 134.144 3.30752C134.56 3.30752 134.765 3.36043 135.049 3.46627V5.69418H135.054Z" fill="#505456"/>
<path id="Vector_11" d="M126.868 6.51432L126.968 7.17052H127.641V2.64062H126.8V5.77874C126.395 6.21798 125.937 6.51432 125.496 6.51432C125.002 6.51432 124.807 6.2021 124.807 5.73112V2.64062H123.966V5.9375C123.966 6.75775 124.413 7.27107 125.27 7.27107C125.906 7.27107 126.442 6.91651 126.868 6.51962" fill="#505456"/>
<path id="Vector_12" d="M89.0454 28.5129C87.3367 28.5129 86.1274 27.1423 86.1274 25.1154C86.1274 23.0886 87.3577 21.7021 89.1242 21.7021C89.8235 21.7021 90.4439 21.9297 90.9381 22.2737L90.854 22.75C90.3177 22.3584 89.7499 22.1149 89.1137 22.1149C87.5733 22.1149 86.6006 23.3532 86.6006 25.0996C86.6006 26.8459 87.5838 28.1054 89.0874 28.1054C89.7972 28.1054 90.4491 27.8196 90.9801 27.4016L91.0432 27.8355C90.5543 28.2165 89.855 28.5129 89.0506 28.5129" fill="#505456"/>
<path id="Vector_13" d="M93.9243 28.4811C92.8202 28.4811 91.9685 27.6238 91.9685 26.1527C91.9685 24.6815 92.8465 23.8242 93.9243 23.8242C95.0021 23.8242 95.8906 24.6709 95.8906 26.1527C95.8906 27.6344 95.0126 28.4811 93.9243 28.4811ZM93.9243 24.2158C92.9622 24.2158 92.4312 25.0043 92.4312 26.158C92.4312 27.3116 92.9674 28.1001 93.9243 28.1001C94.8812 28.1001 95.428 27.3222 95.428 26.158C95.428 24.9937 94.8864 24.2158 93.9243 24.2158Z" fill="#505456"/>
<path id="Vector_14" d="M98.4196 28.4654C97.7834 28.4654 97.3733 28.2008 97.3733 27.4494V24.3007H96.6793V23.9197H97.3733V22.3321L97.8149 22.2368V23.9197H98.9033L98.9611 24.3007H97.8149V27.3753C97.8149 27.8992 98.0252 28.0791 98.5142 28.0791C98.6562 28.0791 98.8507 28.0421 98.9611 28.0156L99.0242 28.3755C98.9085 28.4231 98.6667 28.4707 98.4196 28.4707" fill="#505456"/>
<path id="Vector_15" d="M101.479 28.4654C100.843 28.4654 100.433 28.2008 100.433 27.4494V24.3007H99.7444V23.9197H100.433V22.3321L100.875 22.2368V23.9197H101.963L102.021 24.3007H100.875V27.3753C100.875 27.8992 101.085 28.0791 101.574 28.0791C101.716 28.0791 101.916 28.0421 102.021 28.0156L102.084 28.3755C101.968 28.4231 101.726 28.4707 101.479 28.4707" fill="#505456"/>
<path id="Vector_16" d="M104.807 28.4443C104.229 28.4443 103.714 28.312 103.288 28.1374V21.6812L103.735 21.5859V24.5547C104.077 24.1631 104.513 23.8191 105.133 23.8191C106.117 23.8191 106.947 24.523 106.947 26.0259C106.947 27.6505 105.99 28.439 104.813 28.439M105.118 24.2319C104.587 24.2319 104.171 24.5494 103.73 25.0522V27.8463C104.013 27.9574 104.382 28.058 104.865 28.058C105.754 28.058 106.479 27.4282 106.479 26.0523C106.479 24.8722 105.917 24.2372 105.118 24.2372" fill="#505456"/>
<path id="Vector_17" d="M111.258 28.386L111.143 27.7086C110.606 28.1849 110.112 28.4813 109.529 28.4813C108.614 28.4813 108.177 27.9573 108.177 27.063V23.9143H108.624V27.026C108.624 27.698 108.945 28.0738 109.576 28.0738C110.07 28.0738 110.58 27.788 111.137 27.2641V23.9143H111.579V28.386H111.258Z" fill="#505456"/>
<path id="Vector_18" d="M114.392 28.4653C113.798 28.4653 113.209 28.2854 112.815 28.0631L112.899 27.6292C113.314 27.8673 113.85 28.0631 114.439 28.0631C115.102 28.0631 115.538 27.7668 115.538 27.2429C115.538 26.7772 115.265 26.5391 114.308 26.2745C113.372 26.0152 112.946 25.6924 112.946 25.0097C112.946 24.327 113.535 23.8296 114.408 23.8296C114.912 23.8296 115.354 23.9513 115.711 24.1365L115.633 24.5652C115.228 24.3588 114.812 24.2424 114.387 24.2424C113.687 24.2424 113.377 24.5758 113.377 24.9832C113.377 25.3907 113.64 25.613 114.434 25.8299C115.443 26.1051 115.964 26.4597 115.964 27.2111C115.964 28.0208 115.312 28.4653 114.387 28.4653" fill="#505456"/>
<path id="Vector_19" d="M121.521 25.4702H119.255V25.9465H121.521V25.4702Z" fill="#505456"/>
<path id="Vector_20" d="M126.616 28.4652C125.916 28.4652 125.349 28.2853 124.954 28.0736L125.017 27.6079C125.385 27.8355 125.974 28.0577 126.642 28.0577C127.473 28.0577 128.135 27.5444 128.135 26.7242C128.135 26.0362 127.756 25.6499 126.763 25.2213C125.496 24.6815 125.054 24.2423 125.054 23.3479C125.054 22.4536 125.837 21.7498 126.831 21.7498C127.436 21.7498 127.919 21.8821 128.24 22.0726L128.172 22.5277C127.793 22.3107 127.373 22.1572 126.81 22.1572C126.027 22.1572 125.517 22.6811 125.517 23.3268C125.517 23.9724 125.885 24.3163 126.905 24.7556C128.067 25.253 128.603 25.7558 128.603 26.6977C128.603 27.809 127.688 28.4652 126.61 28.4652" fill="#505456"/>
<path id="Vector_21" d="M131.6 28.4811C130.427 28.4811 129.644 27.608 129.644 26.1527C129.644 24.6974 130.459 23.8242 131.537 23.8242C132.672 23.8242 133.235 24.8244 133.235 26.0574V26.1527H130.101C130.101 27.2957 130.632 28.0895 131.621 28.0895C132.162 28.0895 132.73 27.8038 133.161 27.4069L133.224 27.8249C132.819 28.1954 132.231 28.4811 131.6 28.4811ZM130.117 25.7822H132.772C132.741 24.9091 132.309 24.1947 131.531 24.1947C130.69 24.1947 130.206 24.8509 130.112 25.7822" fill="#505456"/>
<path id="Vector_22" d="M137.467 28.386V25.2744C137.467 24.597 137.146 24.2266 136.51 24.2266C136.016 24.2266 135.506 24.5123 134.949 25.0362V28.386H134.507V23.9143H134.828L134.938 24.5917C135.48 24.1154 135.969 23.8191 136.552 23.8191C137.467 23.8191 137.903 24.343 137.903 25.2373V28.386H137.462H137.467Z" fill="#505456"/>
<path id="Vector_23" d="M140.837 21.988C140.385 21.988 140.112 22.2156 140.112 22.766V23.9196H141.048L141.111 24.3006H140.106V28.3913H139.67V24.3006H138.981V23.9196H139.67V22.7501C139.67 21.9775 140.075 21.5806 140.816 21.5806C140.958 21.5806 141.021 21.5806 141.111 21.5912L141.174 22.0198C141.09 22.0039 141.016 21.9933 140.832 21.9933" fill="#505456"/>
<path id="Vector_24" d="M143.482 28.4654C142.851 28.4654 142.435 28.2008 142.435 27.4494V24.3007H141.747V23.9197H142.435V22.3321L142.877 22.2368V23.9197H143.965L144.023 24.3007H142.877V27.3753C142.877 27.8992 143.087 28.0791 143.576 28.0791C143.718 28.0791 143.918 28.0421 144.023 28.0156L144.086 28.3755C143.971 28.4231 143.729 28.4707 143.482 28.4707" fill="#505456"/>
<path id="Vector_25" d="M146.91 28.4811C145.737 28.4811 144.954 27.608 144.954 26.1527C144.954 24.6974 145.769 23.8242 146.847 23.8242C147.982 23.8242 148.545 24.8244 148.545 26.0574V26.1527H145.411C145.411 27.2957 145.942 28.0895 146.931 28.0895C147.472 28.0895 148.035 27.8038 148.471 27.4069L148.534 27.8249C148.129 28.1954 147.541 28.4811 146.91 28.4811ZM145.422 25.7822H148.077C148.051 24.9091 147.614 24.1947 146.841 24.1947C146 24.1947 145.516 24.8509 145.422 25.7822Z" fill="#505456"/>
<path id="Vector_26" d="M152.772 28.386V25.2744C152.772 24.597 152.451 24.2266 151.815 24.2266C151.321 24.2266 150.811 24.5123 150.253 25.0362V28.386H149.812V23.9143H150.132L150.243 24.5917C150.784 24.1154 151.273 23.8191 151.857 23.8191C152.772 23.8191 153.208 24.343 153.208 25.2373V28.386H152.766H152.772Z" fill="#505456"/>
<path id="Vector_27" d="M156.247 28.4443C155.669 28.4443 155.148 28.312 154.728 28.1374V21.6812L155.169 21.5859V24.5547C155.511 24.1631 155.942 23.8191 156.568 23.8191C157.551 23.8191 158.382 24.523 158.382 26.0259C158.382 27.6505 157.425 28.439 156.247 28.439M156.557 24.2319C156.026 24.2319 155.611 24.5494 155.169 25.0522V27.8463C155.453 27.9574 155.821 28.058 156.305 28.058C157.193 28.058 157.919 27.4282 157.919 26.0523C157.919 24.8722 157.351 24.2372 156.557 24.2372" fill="#505456"/>
<path id="Vector_28" d="M161.342 28.4811C160.169 28.4811 159.386 27.608 159.386 26.1527C159.386 24.6974 160.201 23.8242 161.273 23.8242C162.409 23.8242 162.977 24.8244 162.977 26.0574V26.1527H159.843C159.843 27.2957 160.374 28.0895 161.363 28.0895C161.904 28.0895 162.467 27.8038 162.903 27.4069L162.966 27.8249C162.561 28.1954 161.972 28.4811 161.342 28.4811ZM159.854 25.7822H162.509C162.477 24.9091 162.046 24.1947 161.268 24.1947C160.427 24.1947 159.948 24.8509 159.854 25.7822Z" fill="#505456"/>
<path id="Vector_29" d="M164.691 25.449V28.386H164.244V23.9143H164.538L164.68 24.8457C165.022 24.343 165.542 23.8244 166.278 23.8191L166.357 24.2372C165.626 24.2848 164.995 24.8457 164.696 25.4437" fill="#505456"/>
<path id="Vector_30" d="M169.412 23.835C169.99 23.835 170.511 23.9673 170.931 24.1419C170.931 24.1419 170.931 27.5393 170.931 28.1479C170.931 28.7088 170.842 29.8307 169.58 29.9948C168.986 30.0742 167.63 29.6296 167.63 29.6296L167.777 29.2539C167.777 29.2539 168.807 29.5767 169.386 29.582C170.532 29.5979 170.49 28.4284 170.49 28.4284V27.7245C170.148 28.1108 169.712 28.4601 169.091 28.4601C168.108 28.4601 167.277 27.7563 167.277 26.2534C167.277 24.6288 168.229 23.835 169.412 23.835ZM169.102 28.0473C169.627 28.0473 170.043 27.7298 170.49 27.2271V24.4329C170.201 24.3218 169.833 24.2213 169.354 24.2266C168.466 24.2266 167.74 24.8563 167.74 26.2322C167.74 27.4123 168.308 28.0473 169.102 28.0473Z" fill="#505456"/>
<path id="Vector_31" d="M90.4544 15.1773C90.4544 16.368 89.8971 17.0454 88.793 17.0454C87.6889 17.0454 87.1579 16.2886 87.1579 15.1455V11.1819H86.2694V15.262C86.2694 16.8601 87.2158 17.8656 88.793 17.8656C90.3703 17.8656 91.3429 16.8654 91.3429 15.2143V11.1819H90.4544V15.1773Z" fill="#505456"/>
<path id="Vector_32" d="M95.0915 13.1187C94.4501 13.1187 93.9191 13.4785 93.4932 13.8701L93.388 13.2139H92.7151V17.7491H93.5563V14.611C93.9611 14.177 94.4185 13.8807 94.8602 13.8807C95.3491 13.8807 95.5489 14.1982 95.5489 14.6586V17.7491H96.3901V14.4522C96.3901 13.632 95.9327 13.1187 95.0862 13.1187" fill="#505456"/>
<path id="Vector_33" d="M98.1881 11.2241C97.8937 11.2241 97.6466 11.4728 97.6466 11.7692C97.6466 12.0655 97.8937 12.2984 98.1881 12.2984C98.4826 12.2984 98.7139 12.0602 98.7139 11.7692C98.7139 11.4781 98.4773 11.2241 98.1881 11.2241Z" fill="#505456"/>
<path id="Vector_34" d="M98.6035 13.2139H97.7623V17.7491H98.6035V13.2139Z" fill="#505456"/>
<path id="Vector_35" d="M101.579 16.7279L100.407 13.1453L99.5657 13.2776L101.164 17.7651H101.963L103.572 13.2141H102.71L101.579 16.7279Z" fill="#505456"/>
<path id="Vector_36" d="M107.936 15.3889C107.936 14.1347 107.331 13.1187 106.017 13.1187C104.881 13.1187 104.035 14.013 104.035 15.4683C104.035 17.1299 104.949 17.8444 106.122 17.8444C106.868 17.8444 107.447 17.6168 107.925 17.2358L107.799 16.4737C107.305 16.8653 106.837 17.1247 106.185 17.1247C105.401 17.1247 104.897 16.6272 104.87 15.5741H107.93V15.3942L107.936 15.3889ZM104.913 14.9338C105.044 14.1612 105.486 13.7801 106.011 13.7801C106.658 13.7801 106.984 14.1982 107.089 14.9338H104.918H104.913Z" fill="#505456"/>
<path id="Vector_37" d="M109.813 14.1347L109.671 13.2139H109.003V17.7491H109.844V15.0661C110.149 14.4681 110.78 13.9654 111.521 13.9283L111.39 13.1187C110.654 13.1557 110.133 13.6214 109.813 14.1347Z" fill="#505456"/>
<path id="Vector_38" d="M113.824 15.008C113.12 14.8281 112.888 14.6535 112.888 14.3518C112.888 14.029 113.151 13.8279 113.661 13.8279C114.134 13.8279 114.634 13.992 115.033 14.2195L115.165 13.4205C114.739 13.2299 114.239 13.1135 113.682 13.1135C112.704 13.1135 112.094 13.648 112.094 14.3677C112.094 15.1774 112.515 15.5002 113.577 15.7648C114.392 15.9659 114.644 16.1193 114.644 16.5374C114.644 16.9184 114.303 17.1354 113.729 17.1354C113.12 17.1354 112.573 16.9078 112.142 16.6168L112.021 17.4159C112.41 17.6328 113.072 17.8445 113.666 17.8445C114.828 17.8445 115.443 17.31 115.443 16.4845C115.443 15.6589 114.944 15.2938 113.829 15.0133" fill="#505456"/>
<path id="Vector_39" d="M116.958 11.2241C116.663 11.2241 116.416 11.4728 116.416 11.7692C116.416 12.0655 116.663 12.2984 116.958 12.2984C117.252 12.2984 117.483 12.0602 117.483 11.7692C117.483 11.4781 117.247 11.2241 116.958 11.2241Z" fill="#505456"/>
<path id="Vector_40" d="M117.378 13.2139H116.537V17.7491H117.378V13.2139Z" fill="#505456"/>
<path id="Vector_41" d="M120.428 17.0718C119.954 17.0718 119.802 16.8443 119.802 16.4685V13.9231H120.89L120.78 13.2087H119.807V11.5735L118.987 11.7005V13.214H118.303V13.9284H118.987V16.6273C118.987 17.5375 119.507 17.8286 120.301 17.8286C120.59 17.8286 120.79 17.7968 120.932 17.7703L120.822 17.0454C120.717 17.0612 120.585 17.0771 120.433 17.0771" fill="#505456"/>
<path id="Vector_42" d="M123.976 18.1619C123.603 19.1833 123.135 19.4479 122.415 19.4479L122.131 19.4108L122.02 18.6911C122.157 18.7282 122.325 18.7546 122.478 18.7546C122.814 18.7546 123.046 18.5906 123.172 18.2413L123.335 17.7915L121.742 13.4468L122.546 13.3198L123.734 16.8178L124.896 13.3833H125.727L123.971 18.1567L123.976 18.1619Z" fill="#505456"/>
<path id="Vector_43" d="M130.348 17.8657C129.187 17.8657 128.345 17.0296 128.345 15.5849C128.345 14.1402 129.187 13.2935 130.348 13.2935C131.51 13.2935 132.378 14.1402 132.378 15.5849C132.378 17.0296 131.516 17.8657 130.348 17.8657ZM130.348 13.9814C129.56 13.9814 129.166 14.6641 129.166 15.5849C129.166 16.5057 129.576 17.1883 130.348 17.1883C131.121 17.1883 131.552 16.5057 131.552 15.5849C131.552 14.6641 131.132 13.9814 130.348 13.9814Z" fill="#505456"/>
<path id="Vector_44" d="M135.054 11.9386C134.681 11.9386 134.449 12.0974 134.449 12.4996V13.3833H135.327L135.427 14.0713H134.449V17.7703H133.655V14.0713H132.998V13.3833H133.655V12.4149C133.655 11.5417 134.234 11.2136 135.007 11.2136L135.354 11.2295L135.469 11.9757C135.38 11.9598 135.212 11.9386 135.049 11.9386" fill="#505456"/>
<path id="Vector_45" d="M140.79 12.2138V17.7756H139.933V12.2138H137.919V11.4253H142.73L142.856 12.2138H140.79Z" fill="#505456"/>
<path id="Vector_46" d="M144.354 17.8656C143.219 17.8656 142.336 17.1777 142.336 15.5636C142.336 14.156 143.161 13.2881 144.255 13.2881C145.527 13.2881 146.11 14.2724 146.11 15.4895V15.6642H143.15C143.177 16.6855 143.66 17.1618 144.423 17.1618C145.054 17.1618 145.511 16.9131 145.984 16.5373L146.105 17.2729C145.637 17.6381 145.08 17.8603 144.36 17.8603M143.182 15.0503H145.285C145.185 14.3412 144.875 13.9337 144.244 13.9337C143.739 13.9337 143.313 14.3041 143.182 15.0503Z" fill="#505456"/>
<path id="Vector_47" d="M148.96 17.8657C147.788 17.8657 146.931 17.0454 146.931 15.5849C146.931 14.1243 147.845 13.2935 148.981 13.2935C149.623 13.2935 150.08 13.4575 150.406 13.7009L150.285 14.5C149.88 14.1719 149.47 14.0132 148.965 14.0132C148.25 14.0132 147.751 14.5582 147.751 15.5743C147.751 16.5903 148.292 17.146 149.06 17.146C149.496 17.146 149.88 17.0454 150.332 16.6591L150.453 17.3947C150.006 17.7334 149.549 17.8657 148.965 17.8657" fill="#505456"/>
<path id="Vector_48" d="M154.207 17.7757V14.7857C154.207 14.3359 154.018 14.029 153.539 14.029C153.108 14.029 152.672 14.3147 152.278 14.7381V17.7757H151.463V11.2613L152.278 11.1343V13.9708C152.635 13.6479 153.135 13.2987 153.76 13.2987C154.586 13.2987 155.022 13.7961 155.022 14.5846V17.781H154.207V17.7757Z" fill="#505456"/>
<path id="Vector_49" d="M159.023 17.7756V14.7856C159.023 14.3358 158.828 14.0289 158.355 14.0289C157.924 14.0289 157.483 14.3146 157.093 14.738V17.7756H156.279V13.3885H156.925L157.025 14.0236C157.435 13.6479 157.95 13.2986 158.571 13.2986C159.396 13.2986 159.833 13.796 159.833 14.5845V17.7809H159.018L159.023 17.7756Z" fill="#505456"/>
<path id="Vector_50" d="M162.85 17.8657C161.688 17.8657 160.847 17.0296 160.847 15.5849C160.847 14.1402 161.688 13.2935 162.85 13.2935C164.012 13.2935 164.88 14.1402 164.88 15.5849C164.88 17.0296 164.018 17.8657 162.85 17.8657ZM162.85 13.9814C162.062 13.9814 161.667 14.6641 161.667 15.5849C161.667 16.5057 162.078 17.1883 162.85 17.1883C163.623 17.1883 164.054 16.5057 164.054 15.5849C164.054 14.6641 163.634 13.9814 162.85 13.9814Z" fill="#505456"/>
<path id="Vector_51" d="M165.973 17.7756V11.2559L166.788 11.1289V17.7756H165.973Z" fill="#505456"/>
<path id="Vector_52" d="M169.89 17.8657C168.728 17.8657 167.887 17.0296 167.887 15.5849C167.887 14.1402 168.728 13.2935 169.89 13.2935C171.052 13.2935 171.92 14.1402 171.92 15.5849C171.92 17.0296 171.057 17.8657 169.89 17.8657ZM169.89 13.9814C169.102 13.9814 168.713 14.6641 168.713 15.5849C168.713 16.5057 169.123 17.1883 169.89 17.1883C170.695 17.1883 171.099 16.5057 171.099 15.5849C171.099 14.6641 170.679 13.9814 169.89 13.9814Z" fill="#505456"/>
<path id="Vector_53" d="M180.011 18.1619C179.638 19.1833 179.17 19.4479 178.45 19.4479L178.166 19.4108L178.055 18.6911C178.192 18.7282 178.36 18.7546 178.513 18.7546C178.849 18.7546 179.08 18.5906 179.207 18.2413L179.37 17.7915L177.777 13.4468L178.581 13.3198L179.769 16.8178L180.931 13.3833H181.762L180.006 18.1567L180.011 18.1619Z" fill="#505456"/>
<path id="Vector_54" d="M175.09 13.3462C173.786 13.3462 172.876 14.1506 172.876 15.754C172.876 17.2358 173.681 17.9502 174.654 17.9502C175.263 17.9502 175.7 17.638 176.005 17.3363V17.9184C176.005 18.527 175.695 18.9556 174.88 18.9556C174.27 18.9556 173.728 18.7916 173.266 18.527L173.139 19.3261C173.613 19.5325 174.191 19.6806 174.822 19.6806C176.231 19.6806 176.846 18.9556 176.846 17.8655V13.6425C176.252 13.4573 175.768 13.3568 175.09 13.3568M176.005 16.4579C175.663 16.8865 175.248 17.1987 174.774 17.1987C174.17 17.1987 173.728 16.6642 173.728 15.7276C173.728 14.6163 174.217 14.0712 175.095 14.0712C175.51 14.0712 175.721 14.1294 176.005 14.2299V16.4579Z" fill="#505456"/>
<path id="Vector_55" d="M29.9876 13.6109C28.7416 13.6109 27.6585 14.193 27.096 14.7592C26.1286 15.5689 25.1559 15.5689 24.8983 15.5689C24.0151 15.5689 23.2843 15.2408 22.727 14.7857C22.1697 14.3306 21.4284 13.0817 21.4284 13.0817C20.8185 11.8275 19.2202 10.1129 17.5378 8.96984C15.582 7.64156 13.4685 6.91127 11.5915 6.91127C9.52533 6.91127 7.38026 7.54101 5.78723 8.78991V2.58247C5.78723 1.15893 4.63584 0 3.21631 0C1.79677 0 0.650635 1.15893 0.650635 2.58247V17.9185C0.650635 23.9884 5.5559 28.9257 11.5863 28.9257C14.0994 28.9257 16.2707 27.7827 17.6429 26.8195C19.2833 25.6712 20.5924 24.0995 21.3968 22.7606C21.8437 22.0145 22.2801 21.4429 22.727 21.0249C23.3158 20.5168 24.0834 20.2417 24.9194 20.2417C25.8184 20.2417 26.628 20.5962 27.2379 21.1678C27.9792 21.8028 28.9361 22.1891 29.9876 22.1891C32.3377 22.1891 34.2462 20.2681 34.2462 17.8973C34.2462 15.5265 32.3377 13.6109 29.9876 13.6109ZM11.5758 23.8931C8.30559 23.8931 5.65054 21.226 5.65054 17.9291C5.65054 14.6322 8.30559 11.9704 11.5758 11.9704C14.8459 11.9704 17.4957 14.6375 17.4957 17.9291C17.4957 21.2207 14.8459 23.8931 11.5758 23.8931Z" fill="#505456"/>
<path id="Vector_56" d="M71.8953 6.9165C70.4811 6.9165 69.3297 8.07544 69.3297 9.49897V17.9184C69.3297 21.1412 66.7272 23.7607 63.5254 23.7607C60.3235 23.7607 57.7263 21.1412 57.7263 17.9184V9.49897C57.7263 8.07544 56.5749 6.9165 55.1606 6.9165C53.7464 6.9165 52.595 8.07544 52.595 9.49897V17.9184C52.595 23.9883 57.5002 28.9257 63.5306 28.9257C69.561 28.9257 74.4663 23.9883 74.4663 17.9184V9.49897C74.4663 8.07544 73.3149 6.9165 71.9006 6.9165" fill="#505456"/>
<path id="Vector_57" d="M47.779 12.0815C49.1933 12.0815 50.3447 10.9226 50.3447 9.49903C50.3447 8.0755 49.1933 6.91656 47.779 6.91656H41.9747V2.58247C41.9747 1.15893 40.8286 0 39.4143 0C38 0 36.8434 1.15893 36.8434 2.58247V17.9185C36.8434 23.9884 41.7487 28.9257 47.779 28.9257C49.1933 28.9257 50.3447 27.7668 50.3447 26.3433C50.3447 24.9197 49.1933 23.7608 47.779 23.7608C44.5772 23.7608 41.9747 21.136 41.9747 17.9185V12.0815H47.779Z" fill="#505456"/>
</g>
<defs>
<clipPath id="clip0_1106_16502">
<rect width="181.111" height="30" fill="white" transform="translate(0.650635)"/>
</clipPath>
</defs>
</svg>
