<svg height="25" viewBox="0 0 198 72" fill="none" xmlns="http://www.w3.org/2000/svg">
<g id="Layer_1" clip-path="url(#clip0_1106_16769)">
<path id="Vector" d="M7.23968 3.44011L3.71968 0.860107C-0.960316 7.34011 0.439684 16.4001 6.91968 21.0801C12.2197 24.9001 19.4197 24.7601 24.4997 20.6201L21.7597 17.1801C17.3997 20.7001 11.0797 19.9801 7.55968 15.6201C4.75968 12.1001 4.59968 7.10011 7.25968 3.44011" fill="#0E0D0C"/>
<path id="Vector_2" d="M50.3397 34.4401L50.2597 34.6801H50.3397V34.4401ZM38.3197 21.0801L37.2197 16.8601C30.8997 18.5001 26.4397 24.2801 26.4397 30.8401C26.4397 32.0801 26.5997 33.2601 26.9197 34.5201L31.1397 33.4201C30.8997 32.5601 30.8397 31.7801 30.8397 30.9201C30.8397 26.2201 33.9597 22.2401 38.3397 21.0801" fill="#0E0D0C"/>
<path id="Vector_3" d="M24.0997 42.1802C24.0997 34.2202 17.6197 27.7202 9.65974 27.7202C8.17974 27.7202 6.77974 27.9602 5.35974 28.3602L6.59974 32.5802C7.53974 32.2802 8.55974 32.1202 9.57974 32.1202C15.1197 32.1202 19.6597 36.6402 19.6597 42.2002V43.0602L24.0197 43.4402C24.0197 43.0602 24.0997 42.6602 24.0997 42.2002" fill="#0C8DB0"/>
<path id="Vector_4" d="M189.48 45.1402C189.48 42.9402 190.58 42.1002 192.16 42.1002C193.74 42.1002 194.82 43.0402 194.82 45.1402V45.3002H189.5V45.1402H189.48ZM197.32 45.9202C197.32 41.5402 195.2 39.7402 192.16 39.7402C189.12 39.7402 186.98 41.5202 186.98 45.9202V46.4602C186.98 50.7602 189.24 52.5602 192.68 52.5602C194.24 52.5602 195.8 52.1802 197.2 51.3202L196.44 49.2002C195.26 49.9202 194.02 50.2202 192.7 50.2202C190.74 50.2202 189.48 49.2002 189.48 47.2602V47.1802H197.3V45.9402L197.32 45.9202ZM184.66 40.0602H182.16V49.8202C181.38 50.1202 180.58 50.2002 179.82 50.2002C177.94 50.2002 176.68 49.2802 176.68 46.5202V40.0402H174.26V46.4402C174.26 50.7402 176.52 52.6202 179.66 52.6202C181.38 52.6202 183.08 52.3202 184.56 51.5202L184.66 40.0402V40.0602ZM164.18 45.9202C164.18 42.8602 165.42 42.0202 167.46 42.0202C168.16 42.0202 168.86 42.1802 169.58 42.4002V49.8202C168.94 50.1202 168.26 50.2802 167.62 50.2002C165.58 50.2002 164.18 49.4402 164.18 46.3002V45.9202ZM172.02 40.8402C170.6 40.1202 169.04 39.7402 167.4 39.8202C163.96 39.8202 161.7 41.7802 161.7 46.0002V46.4602C161.7 50.7602 164.2 52.6402 167.4 52.6402C168.1 52.6402 168.88 52.5602 169.6 52.2602V58.3602H172.1L172.02 40.8602V40.8402ZM156.54 36.4602C156.54 37.3202 157.26 37.9602 158.02 37.9602C158.88 37.9602 159.52 37.2402 159.52 36.4602C159.52 35.6202 158.8 34.9802 158.02 34.9802C157.24 34.9802 156.54 35.6202 156.54 36.4602ZM156.86 52.2402H159.26V40.0602H156.86V52.2402ZM143.74 52.2402H146.16V42.4002C146.88 42.1002 147.64 42.0202 148.42 42.0202C150.28 42.0202 151.54 42.9402 151.54 45.7602V52.2402H153.96V45.9202C153.96 41.6202 151.7 39.7402 148.58 39.7402C146.86 39.6602 145.22 40.0402 143.66 40.7602L143.74 52.2402ZM131.08 52.2402H133.5V42.4002C134.22 42.1602 134.98 42.0202 135.76 42.0202C137.62 42.0202 138.88 42.9402 138.88 45.7602V52.2402H141.3V45.9202C141.3 41.6202 139.04 39.7402 135.92 39.7402C135.06 39.7402 134.28 39.8202 133.42 39.9802V35.1402H131L131.08 52.2602V52.2402ZM119.22 46.2402C119.22 50.7002 121.56 52.4202 124.84 52.4202C126.32 52.4202 127.82 52.0402 129.06 51.1802L128.2 49.0602C127.18 49.7002 126.08 50.0802 124.92 50.0802C123.06 50.0802 121.72 49.1402 121.72 46.1802V45.8002C121.72 42.8202 123.04 41.9002 124.92 41.9002C126.1 41.9002 127.26 42.2802 128.2 42.9802L129.14 40.8802C127.9 40.1002 126.4 39.6402 124.92 39.6402C121.66 39.6402 119.3 41.3602 119.3 45.8202L119.22 46.2802V46.2402ZM109.46 45.0602C109.46 42.8602 110.56 42.0202 112.12 42.0202C113.68 42.0202 114.78 42.9402 114.78 45.0602V45.2202H109.48V45.0602H109.46ZM117.26 45.8402C117.26 41.4602 115.14 39.6602 112.1 39.6602C109.06 39.6602 106.94 41.4402 106.94 45.8402V46.3802C106.94 50.6802 109.2 52.4802 112.64 52.4802C114.2 52.4802 115.76 52.1002 117.16 51.2402L116.38 49.1202C115.22 49.7602 113.98 50.1402 112.66 50.1402C110.7 50.1402 109.44 49.1202 109.44 47.1802V47.1002H117.24V45.8602L117.26 45.8402ZM97.4197 47.9402C97.4197 51.2202 99.2997 52.4802 101.8 52.4802C103.2 52.5602 104.52 52.1002 105.62 51.2402C105.38 50.5402 105.16 49.8402 104.76 49.1202C104.14 49.6802 103.36 49.9802 102.58 50.0602C102.18 50.1402 101.8 50.1402 101.4 50.1402C100.46 49.9802 99.8197 49.4402 99.8197 48.0402V42.4002H104.58V40.1402H99.8197V36.4602H97.3997V47.9402H97.4197ZM94.5397 39.9802H92.1197V49.7402C91.4997 50.0402 90.8797 50.2002 90.1797 50.2002C88.0597 50.2002 86.7397 49.2802 86.7397 46.4602V39.9802H84.3197V46.3802C84.3197 50.6802 86.7397 52.5602 89.8597 52.5602C90.6397 52.5602 91.4397 52.4802 92.1997 52.1802V52.9402C92.1997 55.2002 91.0197 56.0802 89.3997 56.0802C87.9997 56.0802 86.6797 55.7002 85.4997 54.9802L84.6397 57.1802C86.0397 57.9402 87.6997 58.4202 89.3397 58.3602C92.3797 58.3602 94.6397 56.5602 94.6397 52.8802L94.5597 40.0002L94.5397 39.9802ZM76.9597 48.2002C76.9597 51.3202 78.5397 52.4202 80.6397 52.4202C81.5797 52.4202 82.4397 52.2602 83.2197 51.8002L82.4597 49.6802C81.9797 49.9802 81.5197 50.1402 80.9597 50.1402C80.0397 50.1402 79.3997 49.6802 79.3997 48.2002V35.1402H76.8997L76.9797 48.2002H76.9597ZM64.3197 46.3002C64.3197 50.7602 66.5797 52.4802 69.4797 52.4802C72.3797 52.4802 74.6397 50.7602 74.6397 46.3002V45.9202C74.6397 41.4602 72.3997 39.7402 69.4797 39.7402C66.5597 39.7402 64.3197 41.4602 64.3197 45.9202V46.3002ZM72.1197 46.3002C72.1197 49.2802 71.1197 50.2002 69.4597 50.2002C67.7997 50.2002 66.7397 49.2802 66.7397 46.3002V45.9202C66.7397 42.9402 67.7597 42.0202 69.4597 42.0202C71.1597 42.0202 72.1197 42.9402 72.1197 45.9202V46.3002ZM57.0397 38.7402C59.6397 38.7402 60.3997 39.6802 60.3997 41.3202C60.3997 42.9602 59.6397 43.8202 57.0397 43.8202H53.7797V38.7402H57.0397ZM51.2797 36.3802V52.2402H53.8597V46.1402H57.1397C61.3597 46.1402 63.0597 44.1002 63.0597 41.3002C63.0597 38.5002 61.4197 36.3802 57.1397 36.3802H51.2797Z" fill="#0C8DB0"/>
<path id="Vector_5" d="M155.28 13.8201L153.34 17.1001H155.12L157.62 13.8201H155.28ZM151.7 23.6601C151.7 21.4801 152.8 20.6201 154.38 20.6201C155.96 20.6201 157.04 21.5601 157.04 23.6601V23.8201H151.72V23.6601H151.7ZM159.52 24.4401C159.52 20.0601 157.4 18.2601 154.36 18.2601C151.32 18.2601 149.18 20.0401 149.18 24.4401V24.9801C149.18 29.2801 151.44 31.0801 154.88 31.0801C156.44 31.0801 158 30.7001 159.42 29.8401L158.64 27.7201C157.54 28.4401 156.22 28.7401 154.9 28.7401C152.94 28.7401 151.68 27.7201 151.68 25.7801V25.7001H159.5V24.4601L159.52 24.4401ZM139.44 26.5401C139.44 29.8201 141.3 31.0001 143.8 31.0001C145.2 31.0001 146.52 30.6201 147.62 29.7601C147.38 29.0401 147.08 28.3601 146.86 27.6401C146.22 28.2001 145.46 28.5001 144.6 28.5801C144.22 28.6601 143.82 28.6601 143.42 28.6601C142.48 28.5001 141.86 27.9601 141.86 26.5401V20.8401H146.6V18.5801H141.86V14.9001H139.44V26.5401ZM133.34 15.0601C133.34 15.9201 134.04 16.5601 134.82 16.5601C135.68 16.5601 136.3 15.8401 136.3 15.0601C136.3 14.2201 135.6 13.5801 134.82 13.5801C133.96 13.5001 133.34 14.2201 133.34 15.0601ZM133.58 30.7801H136V18.6001H133.58V30.7801ZM120.54 29.7601C122.02 30.6201 123.66 31.0001 125.38 31.0001C127.8 31.0001 130.54 30.2801 130.54 27.4801C130.54 25.2201 129.14 23.8001 125.78 23.2001C124.92 23.0401 123.28 22.9601 123.28 21.8001C123.28 20.8601 124.46 20.5601 125.78 20.5601C127.1 20.5601 128.44 20.8601 129.6 21.5801L130.38 19.4601C128.96 18.6801 127.4 18.2201 125.76 18.2801C123.34 18.2801 120.84 19.0001 120.84 21.9601C120.84 24.9201 123.42 25.4001 125.3 25.7001C126.86 26.0001 128.1 26.4601 128.1 27.4801C128.1 28.4201 126.78 28.7201 125.44 28.7201C124.04 28.7201 122.62 28.4201 121.36 27.7001L120.52 29.7401L120.54 29.7601ZM111.72 30.7801H114.14V20.9401C114.76 20.7001 115.46 20.5601 116.16 20.5601C116.8 20.5601 117.48 20.7201 118.04 21.0201L118.98 18.8201C118.12 18.4401 117.1 18.2801 116.16 18.2801C114.6 18.2801 113.12 18.5801 111.72 19.3001V30.7801ZM100.7 23.5801C100.7 21.3801 101.8 20.5401 103.36 20.5401C104.92 20.5401 106.02 21.4801 106.02 23.5801V23.7401H100.72V23.5801H100.7ZM108.52 24.3801C108.52 20.0001 106.42 18.2001 103.36 18.2001C100.3 18.2001 98.1997 19.9801 98.1997 24.3801V24.9201C98.1997 29.2201 100.46 31.0201 103.9 31.0201C105.46 31.0201 107.02 30.6401 108.42 29.7801L107.66 27.6601C106.48 28.3801 105.24 28.6801 103.92 28.6801C101.96 28.6801 100.7 27.6601 100.7 25.7201V25.6401H108.5V24.4001L108.52 24.3801ZM87.1198 18.5801H84.5398L89.4598 30.7601H91.9598L96.8797 18.5801H94.3797L90.7798 27.8801L87.0998 18.5801H87.1198ZM79.3797 15.0601C79.3797 15.9201 80.0998 16.5601 80.8598 16.5601C81.7198 16.5601 82.3397 15.8401 82.3397 15.0601C82.3397 14.2201 81.6398 13.5801 80.8598 13.5801C80.0998 13.5001 79.4597 14.2201 79.3797 15.0601ZM79.6997 30.7801H82.1198V18.6001H79.6198L79.6997 30.7801ZM66.4198 30.7801H68.8397V20.9401C69.5397 20.6401 70.3197 20.5601 71.0998 20.5601C72.9598 20.5601 74.2198 21.5001 74.2198 24.2401V30.8001H76.6398V24.4801C76.6398 20.1801 74.3798 18.3001 71.2598 18.3001C69.5198 18.2201 67.8997 18.6001 66.3397 19.3201L66.4198 30.8001V30.7801ZM51.1998 23.5001C51.1998 28.9601 53.7798 31.0801 57.2998 31.0801C60.8198 31.0801 63.3797 28.9601 63.3797 23.5001V14.9001H60.8997V23.5001C60.8997 27.4001 59.4798 28.7201 57.2998 28.7201C55.1198 28.7201 53.6998 27.4001 53.6998 23.5001V14.9001H51.1198V23.5001H51.1998Z" fill="#0C8DB0"/>
<path id="Vector_6" d="M154.98 67.3201H158.8V66.0801H154.98V64.1201H159.36V62.9401H153.72V71.0001H159.36V69.8201H154.98V67.3201ZM147.18 66.5401C147.18 64.6001 148.04 63.8801 149.44 63.8801C150.14 63.8801 150.92 64.1201 151.46 64.6001L151.94 63.5001C151.22 62.9401 150.28 62.6401 149.36 62.6401C147.32 62.6401 145.76 63.7401 145.76 66.4601V67.2401C145.76 69.9601 147.24 71.0601 149.36 71.0601C150.28 71.0601 151.14 70.7601 151.94 70.2001L151.46 69.1001C150.84 69.5801 150.14 69.8201 149.44 69.8201C148.04 69.8201 147.18 69.1001 147.18 67.1601V66.5201V66.5401ZM138.04 71.0001H139.28V65.3001L142.54 71.0001H143.94V62.8601H142.7V68.6401L139.44 62.8601H138.04V71.0001ZM133.12 64.7401L134.04 67.4001H132.1L133.12 64.7401ZM129.6 71.0001H130.92L131.78 68.5801H134.58L135.44 71.0001H136.84L133.94 62.9401H132.62L129.58 71.0001H129.6ZM116.24 67.3201H120.06V66.0801H116.24V64.1201H120.62V62.9401H114.98V71.0001H116.22V67.3201H116.24ZM113.12 66.1401H109.9V67.2401H113.12V66.1401ZM104 67.3201H107.82V66.0801H104V64.1201H108.36V62.9401H102.74V71.0001H108.36V69.8201H104V67.3201ZM99.5397 67.3201C99.5397 69.1001 98.6797 69.8201 97.3397 69.8201H96.1597V64.1201H97.3397C98.7397 64.1201 99.5397 64.7601 99.5397 66.6201V67.3401V67.3201ZM94.8397 71.0001H97.3397C99.4597 71.0001 100.86 69.9801 100.86 67.3201V66.5401C100.86 63.9601 99.4597 62.8601 97.3397 62.8601H94.8397V71.0001ZM92.9797 66.1401H89.7597V67.2401H92.9797V66.1401ZM81.4997 70.2801C82.5997 70.8401 83.8397 71.1401 85.0997 71.1401C86.4197 71.1401 88.2197 70.8401 88.2197 68.8801C88.2197 67.4001 87.2797 66.7601 85.3397 66.2201C84.6997 66.0601 83.5997 65.8401 83.5997 64.9001C83.5997 64.1201 84.4597 63.9601 85.2597 63.9601C86.0997 63.9601 86.8997 64.2001 87.5997 64.6801L88.1397 63.5801C87.2797 63.0201 86.2797 62.7201 85.2597 62.7201C83.7797 62.7201 82.2797 63.2001 82.2797 64.9201C82.2797 66.6401 83.8597 67.1801 85.0197 67.5001C86.1797 67.8201 86.8797 68.1201 86.8797 68.9001C86.8797 69.6801 86.1797 70.0001 85.0997 70.0001C84.2397 70.0001 83.3597 69.7601 82.5997 69.2801L81.4997 70.3001V70.2801ZM74.4597 64.0401H77.1197V70.9201H78.3597V64.1201H81.0197V62.9401H74.3797L74.4597 64.0401ZM66.9597 67.2401C66.9597 69.9601 68.2797 71.0601 70.0997 71.0601C71.9197 71.0601 73.2197 69.9601 73.2197 67.2401V62.8601H71.8997V67.2401C71.8997 69.2601 71.1997 69.9001 70.1197 69.9001C69.0397 69.9001 68.3197 69.2601 68.3197 67.2401V62.8601H66.9997V67.2401H66.9597ZM62.2197 64.6601L63.1397 67.3201H61.1997L62.2197 64.6601ZM58.6197 70.9201H59.9397L60.7797 68.5001H63.5997L64.4397 70.9201H65.7597L62.8797 62.8601H61.5597L58.5997 70.9201H58.6197ZM52.5997 67.3201H55.9597V71.0001H57.2797V62.8601H55.9597V66.0801H52.5197V62.8601H51.1997V70.9201H52.5197L52.5997 67.3201Z" fill="#0E0D0C"/>
<path id="Vector_7" d="M125.22 64.0401C126.56 64.0401 126.96 64.5201 126.96 65.2201C126.96 65.9201 126.58 66.4001 125.22 66.4001H123.58V64.0601H125.22V64.0401ZM127.34 71.0001H128.82L126.48 67.4001C127.5 67.1601 128.28 66.3001 128.22 65.2001C128.22 63.8001 127.36 62.8601 125.16 62.8601H122.2V71.0001H123.52V67.6401H125.16L127.36 71.0001H127.34Z" fill="#0E0D0C"/>
</g>
<defs>
<clipPath id="clip0_1106_16769">
<rect width="196.36" height="70.28" fill="white" transform="translate(0.959717 0.860107)"/>
</clipPath>
</defs>
</svg>
