<svg height="22" viewBox="0 0 178 36" fill="none" xmlns="http://www.w3.org/2000/svg">
<g id="Layer_1" clip-path="url(#clip0_1106_16282)">
<path id="Vector" d="M18.2383 0C8.29536 0 0.238281 8.05708 0.238281 18C0.238281 27.9429 8.29536 36 18.2383 36C28.1812 36 36.2383 27.9429 36.2383 18C36.2383 8.05708 28.1812 0 18.2383 0Z" fill="#1D1D1B"/>
<path id="Vector_2" d="M67.7057 9.81943L67.7252 0.877955C67.7252 0.689372 67.6212 0.539805 67.4781 0.46177C67.3416 0.377233 67.1595 0.357724 66.9969 0.455268L59.239 4.90324C58.6667 5.22839 58.192 5.7031 57.8604 6.27535L52.2094 16.0297H52.2159L42.6306 32.5015C42.6306 32.5015 42.6306 32.5145 42.6241 32.521L41.317 34.771C41.1349 35.0832 41.3625 35.4798 41.7267 35.4798H44.3474L47.1566 35.4733H52.0858L52.9507 35.4668C53.2108 35.4668 53.4579 35.3238 53.588 35.1027L61.5345 21.4531L67.205 11.7053C67.5367 11.133 67.7122 10.4892 67.7122 9.82593" fill="#1D1D1B"/>
<path id="Vector_3" d="M143.881 25.6019V31.3959C143.881 34.0621 145.305 35.6488 147.555 35.6488C148.92 35.6488 149.928 35.1351 150.5 34.3808V35.4863H153.524V25.6019H150.5V30.9993C150.5 32.3454 149.792 33.0737 148.641 33.0737C147.49 33.0737 146.898 32.3454 146.898 30.9993V25.6019H143.874H143.881ZM135.654 29.38C135.83 28.2941 136.584 27.7608 137.592 27.7608C138.6 27.7608 139.452 28.3136 139.452 29.38H135.654ZM137.709 35.6488C140.18 35.6488 141.943 34.2442 142.417 32.1893H139.296C139.062 32.8201 138.464 33.1582 137.618 33.1582C136.649 33.1582 135.739 32.547 135.641 31.2594H142.502C142.541 30.9407 142.56 30.6481 142.56 30.3685C142.56 27.3446 140.525 25.4458 137.618 25.4458C134.711 25.4458 132.637 27.3837 132.637 30.5246C132.637 33.6655 134.809 35.6423 137.716 35.6423M123.234 32.2478C123.37 34.1467 125.152 35.6488 127.799 35.6488C130.27 35.6488 131.792 34.3222 131.792 32.6055C131.753 28.9313 126.394 29.9393 126.394 28.4566C126.394 27.9819 126.791 27.7023 127.48 27.7023C128.332 27.7023 128.865 28.138 128.943 28.8078H131.753C131.558 26.8699 130.133 25.4458 127.584 25.4458C125.035 25.4458 123.553 26.8309 123.553 28.5087C123.553 32.1438 128.95 31.1163 128.95 32.5795C128.95 33.0347 128.534 33.3923 127.766 33.3923C126.934 33.3923 126.303 32.9371 126.245 32.2478H123.24H123.234ZM118.656 22.6366C118.656 23.625 119.43 24.4183 120.418 24.4183C121.407 24.4183 122.18 23.625 122.18 22.6366C122.18 21.6481 121.387 20.8743 120.418 20.8743C119.449 20.8743 118.656 21.6676 118.656 22.6366ZM118.896 35.4863H121.92V25.6019H118.896V35.4863ZM109.266 35.4863H113.102L118.025 21.5506H114.644L111.184 32.0462L107.724 21.5506H104.323L109.266 35.4863ZM93.2555 29.38C93.4311 28.2941 94.1855 27.7608 95.1934 27.7608C96.2014 27.7608 97.0532 28.3136 97.0532 29.38H93.2555ZM95.3105 35.6488C97.7816 35.6488 99.5438 34.2442 100.019 32.1893H96.8972C96.6631 32.8201 96.0648 33.1582 95.2194 33.1582C94.2505 33.1582 93.3401 32.547 93.2425 31.2594H100.103C100.142 30.9407 100.162 30.6481 100.162 30.3685C100.162 27.3446 98.1262 25.4458 95.2194 25.4458C92.3126 25.4458 90.2382 27.3837 90.2382 30.5246C90.2382 33.6655 92.4102 35.6423 95.317 35.6423M81.4398 30.5246C81.4398 28.9444 82.4673 28.0925 83.6313 28.0925C84.7953 28.0925 85.7837 28.9639 85.7837 30.5246C85.7837 32.0852 84.7563 32.9761 83.6313 32.9761C82.5063 32.9761 81.4398 32.0852 81.4398 30.5246ZM82.7274 35.6488C84.171 35.6488 85.1594 35.1156 85.7707 34.3027V35.4863H88.7946V21.2514H85.7707V26.7854C85.2375 25.992 84.1515 25.4393 82.7274 25.4393C80.2758 25.4393 78.3574 27.3967 78.3574 30.5181C78.3574 33.6394 80.2953 35.6358 82.7274 35.6358" fill="#1D1D1B"/>
<path id="Vector_4" d="M172.097 10.6257C173.163 10.6257 174.151 11.3995 174.151 13.0773C174.151 14.755 173.144 15.5484 172.058 15.5484C170.972 15.5484 170.042 14.755 170.042 13.0773C170.042 11.3995 171.011 10.6257 172.097 10.6257ZM166.959 13.0773C166.959 16.2182 169.151 18.1951 172.058 18.1951C174.964 18.1951 177.234 16.2182 177.234 13.0773C177.234 9.9364 174.997 7.99853 172.097 7.99853C169.196 7.99853 166.959 9.9559 166.959 13.0773ZM161.477 18.1951C163.948 18.1951 165.711 16.7319 166.224 14.4559H162.999C162.719 15.1647 162.245 15.5809 161.419 15.5809C160.333 15.5809 159.5 14.729 159.5 13.0708C159.5 11.4126 160.333 10.5802 161.419 10.5802C162.251 10.5802 162.745 11.0159 162.999 11.7052H166.224C165.711 9.35113 163.948 7.98553 161.477 7.98553C158.571 7.98553 156.418 9.96241 156.418 13.0643C156.418 16.1662 158.571 18.1821 161.477 18.1821M151.795 5.18929C151.795 6.17772 152.568 6.97108 153.557 6.97108C154.545 6.97108 155.319 6.17772 155.319 5.18929C155.319 4.20085 154.526 3.427 153.557 3.427C152.588 3.427 151.795 4.22035 151.795 5.18929ZM152.029 18.039H155.053V8.1546H152.029V18.039ZM140.447 8.1546V18.039H143.49V12.6611C143.49 11.315 144.18 10.5672 145.35 10.5672C146.521 10.5672 147.093 11.3215 147.093 12.6611V18.039H150.097V12.2449C150.097 9.59824 148.693 7.99203 146.443 7.99203C145.077 7.99203 144.069 8.52527 143.497 9.26009V8.1546H140.454H140.447ZM134.373 18.1951C136.844 18.1951 138.607 16.7319 139.12 14.4559H135.895C135.615 15.1647 135.141 15.5809 134.315 15.5809C133.229 15.5809 132.396 14.729 132.396 13.0708C132.396 11.4126 133.229 10.5802 134.315 10.5802C135.147 10.5802 135.641 11.0159 135.895 11.7052H139.12C138.607 9.35113 136.844 7.98553 134.373 7.98553C131.467 7.98553 129.314 9.96241 129.314 13.0643C129.314 16.1662 131.467 18.1821 134.373 18.1821M125.386 11.9458H121.608C121.764 10.8403 122.538 10.3266 123.526 10.3266C124.515 10.3266 125.386 10.8598 125.386 11.9458ZM128.488 12.9147C128.488 9.91038 126.453 7.99203 123.566 7.99203C120.678 7.99203 118.565 9.9494 118.565 13.0708C118.565 16.1922 120.756 18.1886 123.663 18.1886C126.134 18.1886 127.896 16.7839 128.371 14.7485H125.25C125.016 15.3598 124.417 15.698 123.572 15.698C122.584 15.698 121.693 15.1062 121.595 13.7991H128.456C128.495 13.5 128.495 13.2073 128.495 12.9082M124.593 7.10764L126.336 3.80417H123.526L121.985 7.10764H124.593ZM112.25 10.6647V14.599C112.25 17.1676 113.694 18.039 115.73 18.039H117.57V15.4704H116.204C115.534 15.4704 115.274 15.2102 115.274 14.638V10.6647H117.609V8.1546H115.274V5.20879H112.446V6.65244C112.446 7.56284 111.795 8.1546 110.865 8.1546H110.547V10.6647H112.244H112.25ZM106.144 5.18929C106.144 6.17772 106.918 6.97108 107.907 6.97108C108.895 6.97108 109.669 6.17772 109.669 5.18929C109.669 4.20085 108.875 3.427 107.907 3.427C106.938 3.427 106.144 4.22035 106.144 5.18929ZM106.385 18.039H109.409V8.1546H106.385V18.039ZM101.131 18.039H104.154V3.80417H101.131V18.039ZM94.5236 10.6257C95.5901 10.6257 96.5785 11.3995 96.5785 13.0773C96.5785 14.755 95.5706 15.5484 94.4846 15.5484C93.3986 15.5484 92.4687 14.755 92.4687 13.0773C92.4687 11.3995 93.4376 10.6257 94.5236 10.6257ZM89.3798 13.0773C89.3798 16.2182 91.5713 18.1951 94.4781 18.1951C97.3849 18.1951 99.6544 16.2182 99.6544 13.0773C99.6544 9.9364 97.4174 7.99853 94.5171 7.99853C91.6168 7.99853 89.3798 9.9559 89.3798 13.0773ZM84.1905 6.65244C85.5366 6.65244 86.1089 7.42628 86.1089 8.49275C86.1089 9.55923 85.5366 10.3331 84.1905 10.3331H82.3502V6.65894H84.1905V6.65244ZM79.2678 18.039H82.3502V13.0383H84.4441C88.0012 13.0383 89.2693 10.7818 89.2693 8.5903C89.2693 6.15822 87.8646 4.1033 84.4441 4.1033H79.2678V18.039Z" fill="#1D1D1B"/>
</g>
<defs>
<clipPath id="clip0_1106_16282">
<rect width="177.002" height="36" fill="white" transform="translate(0.238281)"/>
</clipPath>
</defs>
</svg>
