<svg height="28" viewBox="0 0 73 72" fill="none" xmlns="http://www.w3.org/2000/svg">
<g id="Layer_1" clip-path="url(#clip0_1106_16765)">
<path id="Vector" d="M64.7504 58.6405C55.5559 69.9261 41.4532 73.8666 28.543 70.8767C15.8056 67.9732 4.96927 57.2233 2.11762 44.2958C-1.33894 29.4153 4.34709 14.6213 17.3265 6.04901C28.8368 -1.72824 44.7369 -1.71095 56.109 5.61694C61.3629 8.93523 66.2712 14.1719 69.2612 20.5147C75.0336 32.4398 73.9621 47.5968 64.7676 58.6405" fill="white"/>
<path id="Vector_2" d="M69.4686 20.411C66.4614 14.0336 61.484 8.84882 56.1955 5.51325C44.7888 -1.84921 28.8196 -1.95291 17.2228 5.8589C4.34716 14.3793 -1.49441 29.5536 1.92757 44.313C4.79651 57.3097 15.7019 68.1287 28.5085 71.0322C41.5051 74.0394 55.6943 70.0816 64.9405 58.7269C74.0486 47.8042 75.1892 32.1978 69.4686 20.411ZM64.1974 58.1047C55.2103 69.1484 41.4014 73.0197 28.7331 70.0816C16.2896 67.2473 5.66065 56.7221 2.87813 44.1057C-0.457448 29.7437 5.22858 14.9669 17.7586 6.68847C29.0097 -0.89866 44.5814 -0.812246 55.6597 6.34282C60.81 9.59198 65.6664 14.6385 68.5872 20.8431C74.1523 32.3188 73.0462 47.5104 64.1974 58.122M36.1993 4.21704H36.424L36.5622 4.28617L36.6141 4.42443C36.6141 4.42443 36.545 5.77249 36.5104 6.48108C36.4931 7.03413 36.6141 7.43163 36.9079 7.69087C37.1844 7.93283 37.5992 8.07109 38.2041 8.08838H38.4288C39.1374 8.08838 39.8978 7.89827 40.0361 6.48108L40.1225 4.54541L40.3126 4.3553H40.4509L40.5718 4.23432V3.9578L40.5546 3.87138L40.4681 3.83682L38.9991 3.78497L38.8781 3.90595V4.18247L38.9991 4.32073H39.2238L39.3448 4.38987L39.3966 4.52813L39.3102 6.30825C39.1892 7.18967 38.9645 7.4662 38.3596 7.4662H38.2732C37.5992 7.43163 37.2881 7.08598 37.3227 6.3601C37.34 5.68607 37.4091 4.44171 37.4091 4.44171L37.6165 4.26889H37.7547L37.8757 4.14791V3.87138L37.8584 3.78497L37.772 3.7504L36.2339 3.69856L36.0956 3.81954V4.09606L36.2166 4.23432M50.4057 11.3548H50.4576L50.5786 11.303L50.6995 11.061L50.6477 10.8882L50.4749 10.8018L50.3885 10.6981V10.5598L51.7019 8.08838L51.8748 7.98468H51.9612L52.1167 8.08838H52.1686L52.2896 8.03653L52.4105 7.79457V7.69087L52.3587 7.62174L50.9933 6.91315H50.9415L50.8205 6.965L50.6995 7.20696L50.7514 7.37978L50.9242 7.4662L51.0106 7.58718V7.72544L49.6971 10.2142L49.5243 10.3179H49.4379L49.2823 10.2142H49.2305L49.1095 10.266L48.9885 10.508L49.0404 10.6808L50.4057 11.3894M27.074 7.63903C27.2468 7.63903 27.4197 7.63903 27.5925 7.60446C27.748 7.60446 27.9209 7.5699 28.0591 7.5699C28.3184 7.5699 28.6467 7.60446 28.7504 7.95012C28.8196 8.15751 28.785 8.3649 28.6467 8.52045C28.5258 8.65871 28.3356 8.77969 28.0937 8.84882C27.869 8.91795 27.4715 8.95252 27.4542 8.95252L27.2295 8.79697L27.1431 8.55501L26.9876 8.4686H26.9703L26.6246 8.5723L26.5555 8.64143V8.74512L26.7975 9.48828L26.9703 9.60926C26.9703 9.60926 27.7653 9.5747 28.1974 9.43643C28.8196 9.22904 29.2516 8.93523 29.4417 8.55501C29.6491 8.15751 29.58 7.77729 29.5109 7.58718C29.2862 6.89587 28.7504 6.80945 28.3184 6.80945C28.1455 6.80945 27.99 6.80945 27.7999 6.84402C27.6443 6.84402 27.4888 6.87858 27.3505 6.87858C27.0913 6.87858 26.7802 6.84402 26.6765 6.53293C26.5555 6.16999 26.7975 5.87618 27.2987 5.70336C27.4715 5.65151 27.748 5.63423 27.7653 5.63423L27.99 5.78977L28.0591 5.97988L28.2147 6.06629H28.2319L28.5776 5.9626L28.6467 5.89347V5.78977L28.4393 5.13303L28.2665 5.01205C28.2665 5.01205 27.4715 5.04661 27.1604 5.15031C26.6419 5.32314 26.2444 5.59966 26.037 5.92803C25.8469 6.23912 25.8124 6.58478 25.9333 6.94772C26.1407 7.58718 26.6419 7.67359 27.074 7.67359M19.2968 9.38459L19.4177 9.45372H19.4869L19.6597 9.33274H19.7461L19.9189 9.40187L21.3016 11.8387L21.2324 12.098L21.0769 12.1844L21.025 12.3572L21.1633 12.5992L21.2843 12.6683H21.3534L22.8224 11.8042L23.0817 11.6313C23.0817 11.6313 23.6693 11.2166 23.9113 10.8363C24.0495 10.6117 24.4816 9.78209 23.8594 8.69328C23.4273 7.93283 22.8916 7.55261 22.2694 7.55261C22.0101 7.55261 21.7163 7.62174 21.4225 7.74272C21.146 7.84642 20.9386 7.9674 20.8695 8.01925L19.2276 8.95252L19.1758 9.12534L19.314 9.3673M20.6621 8.74512L20.9905 8.55501L21.2843 8.41675C21.2843 8.41675 21.6818 8.26121 21.9929 8.26121H22.2003C22.5286 8.38218 22.7706 8.53773 23.099 9.10806C23.4446 9.71296 23.4273 10.266 23.3064 10.5771C23.1681 10.9228 22.7533 11.182 22.736 11.182L22.2348 11.5104H22.1484L21.9929 11.4412L20.6102 9.00436L20.6794 8.74512M65.1652 31.3337V31.1609L64.9924 31.0572L64.7159 31.0917L64.6122 31.23L64.8368 32.7509L64.9751 32.8546L65.2516 32.82L65.3553 32.6818L65.3208 32.4916L65.3553 32.3534L65.4763 32.2842L68.2761 31.904L68.4662 32.0769V32.2497L68.639 32.3534L68.9156 32.3188L69.002 32.267L69.0366 32.1633L68.8119 30.6424L68.6736 30.5387L68.3971 30.5733L68.3107 30.6251V30.7288V30.9189L68.2761 31.0572L68.1551 31.1263L65.3553 31.5065L65.1652 31.351M53.9141 13.5843L54.3635 13.93L54.5017 13.9645H54.6054L57.82 12.1153L57.941 12.0807L58.1138 12.1325L58.183 12.1844L58.2694 12.219L58.3731 12.1671L58.5459 11.9424L58.5805 11.8387L58.5286 11.7523L57.388 10.8536L57.3016 10.8191L57.1979 10.8709L57.025 11.0956L56.9905 11.1993L57.0423 11.2857L57.1979 11.4067L57.267 11.5276L57.1979 11.6486L54.8301 13.1349L54.6746 13.2214C54.6746 13.2214 54.64 13.2041 54.7091 13.0312L55.5733 10.3697L55.6943 10.266L55.798 10.3006L55.8844 10.3697L55.9708 10.4043L56.0745 10.3524L56.2473 10.1277V9.93763L55.0202 9.00436L54.9338 8.9698L54.8301 9.02165L54.6573 9.24632V9.41915L54.761 9.48828L54.8474 9.76481L53.8623 13.3423L53.9314 13.567M65.3899 26.7538C65.4245 27.2722 65.459 27.7734 65.027 27.9117L64.8368 27.9463C64.5257 27.9463 64.2665 27.687 64.1282 27.2377C64.0591 27.013 64.0418 26.6155 64.0418 26.5982L64.1974 26.3563L64.4393 26.2698L64.5257 26.097L64.4221 25.7514L64.2838 25.665H64.2665L63.5234 25.9069L63.4024 26.0797C63.4024 26.0797 63.4369 26.8747 63.5579 27.3068C63.9381 28.5339 64.6295 28.724 65.0097 28.724C65.1307 28.724 65.2689 28.7067 65.3899 28.6721C66.254 28.4129 66.2022 27.6525 66.1503 26.9784C66.1158 26.4772 66.0812 25.9933 66.496 25.8723H66.6688C66.9453 25.8551 67.1873 26.0797 67.3256 26.4945C67.3774 26.6674 67.3947 26.9439 67.3947 26.9439L67.2391 27.1858L67.049 27.255L66.9626 27.4278L67.0663 27.7734L67.2046 27.8599H67.2219L67.8959 27.6525L68.0169 27.4796C68.0169 27.4796 67.9996 26.6846 67.8959 26.3735C67.6367 25.544 67.1354 25.0601 66.496 25.0601C66.375 25.0601 66.2367 25.0773 66.1158 25.1119C65.3035 25.3711 65.3553 26.1143 65.4072 26.771M60.2223 14.3447L60.2742 14.483L60.2051 14.604L58.0793 16.436L57.9583 16.4878L57.82 16.4187L57.7163 16.2977L57.6126 16.2458L57.5262 16.2804L57.3188 16.4705L57.2843 16.5569L57.3188 16.6433L59.2545 18.8555L59.3582 18.9074L59.4446 18.8728L60.2223 18.2852L60.2742 18.1988L60.2396 18.1124L59.9977 17.8359L59.8767 17.784L59.7903 17.8186L59.4792 18.026L59.3582 18.0605L59.2027 17.9914L58.5978 17.3174L58.5459 17.1791L58.615 17.0581L59.3582 16.4187L59.4792 16.3668L59.6174 16.436L60.2223 17.1273L60.326 17.1791L60.4125 17.1445L60.6198 16.9544L60.6717 16.868L60.6371 16.7816L60.0322 16.0903L59.9804 15.952L60.0495 15.8311L60.7235 15.2434L60.8445 15.1916L60.9828 15.2607L61.5704 15.9348V16.2113L61.363 16.4187V16.6088L61.5704 16.8507L61.6568 16.9026L61.7432 16.868L62.4 16.2631V16.073L60.4816 13.8781L60.3779 13.8263L60.2915 13.8608L60.0841 14.0509L60.0495 14.1373L60.0841 14.2238L60.2051 14.362M64.0246 19.2876V19.4259L63.9554 19.5469L61.5013 20.8949H61.4149L61.242 20.8258L61.1556 20.6702L61.0346 20.6011H60.9655L60.7235 20.7566L60.6717 20.9295L61.4149 22.2775L61.5186 22.3467H61.5877L61.8296 22.1911L61.8815 22.0183L61.7951 21.8455V21.6899L61.8642 21.5862L62.6592 21.1369L62.7802 21.1023L62.8666 21.1541L62.9703 21.3788C62.9703 21.3788 63.0567 21.6381 62.5555 22.3812C62.0025 23.1935 62.1753 23.6429 62.1926 23.6601L62.3308 23.9367L62.3827 24.0404L62.5037 24.1095H62.5728L62.8493 23.9367C62.9185 23.9021 62.953 23.8848 62.832 23.6256C62.7802 23.5219 62.8493 23.4009 62.953 23.2281C63.0221 23.0898 63.1258 22.9343 63.195 22.7269C63.2641 22.5368 63.3678 22.2257 63.4024 21.8282V21.7763H63.4369L63.5752 21.8973C63.5752 21.8973 63.7307 22.0356 63.8517 22.122C64.0246 22.2257 64.1974 22.2775 64.3702 22.2775C64.543 22.2775 64.7159 22.2257 64.906 22.122C65.4936 21.7763 65.5973 21.085 65.1652 20.3246L64.3529 18.8728L64.2319 18.8037H64.1628L63.9209 18.9592L63.8517 19.0284V19.1321L63.9554 19.3049M64.3529 20.2382H64.4393L64.6122 20.3073C64.6122 20.3073 64.7677 20.5665 64.8023 20.7912C64.8023 20.7912 64.9233 21.2406 64.5085 21.4825L64.2492 21.5517C63.9209 21.5517 63.6443 21.2406 63.627 21.2233L63.4197 20.9468V20.8085L63.4888 20.6875L64.3356 20.2209M42.6803 8.45132L44.0284 8.83154L44.1494 8.74512L44.2185 8.4686V8.3649L44.1321 8.29577L43.942 8.24392L43.821 8.15751V8.01925L44.4259 5.9626C44.4777 5.80705 44.4777 5.78977 44.5123 5.78977C44.5123 5.78977 44.5296 5.78977 44.5987 5.9626L45.8431 9.24632L46.0332 9.41915L46.3443 9.50556H46.3788L46.4998 9.41915L47.4677 6.16999L47.6578 6.03173H47.7096L47.8997 6.08358L48.0207 5.99716L48.0898 5.72064V5.61694L48.0034 5.54781L46.6554 5.16759L46.5344 5.254L46.4653 5.51325L46.5517 5.66879L46.7418 5.72064L46.8455 5.80705V5.94532L46.2924 7.8637C46.2406 8.01925 46.2406 8.03653 46.206 8.03653C46.206 8.03653 46.206 8.03653 46.1369 7.8637L44.9617 4.7528L44.7715 4.57998L43.821 4.30345L43.7 4.38987L43.6309 4.66639V4.77009L43.7173 4.83922L43.9074 4.89107L44.0284 4.97748V5.11574L43.2507 7.79457L43.0606 7.93283H43.0087L42.8186 7.88098L42.6976 7.9674L42.6285 8.24392V8.34762L42.7149 8.41675M11.4331 47.6832L11.3121 47.6141H11.2603L11.001 47.735L10.9319 47.9079L11.001 48.0807L10.8973 48.3227L9.87765 48.772H9.80851H9.73938V48.6683L10.327 47.0264L10.4134 46.94L10.4998 47.0092L10.5344 47.0783L10.6554 47.1474H10.7072L10.9665 47.0264L11.0356 46.8536L10.4134 45.4537L10.2924 45.3846H10.2406L9.98134 45.5056L9.91221 45.5747V45.6784L9.94678 45.7475V46.0586L9.25547 47.977L9.08264 48.098H9.01351L7.28523 47.3203L7.06055 47.0956L7.02599 47.0437L6.90501 46.9746H6.85316L6.59392 47.0956L6.52479 47.1647V47.2684L7.1124 48.5992L7.23338 48.6683H7.28523L7.54447 48.5473L7.6136 48.4782V48.3745L7.54447 48.219V48.1153L7.57904 48.0807H7.66545L9.3246 48.8239L9.39373 48.9103L9.3246 48.9967L8.28763 49.446H8.2185L8.04567 49.3423L7.97654 49.1868L7.85556 49.1177H7.80371L7.54447 49.2386L7.47534 49.3078V49.4115L8.09752 50.8114L8.2185 50.8805H8.27035L8.52959 50.7595L8.59872 50.5867L8.51231 50.4139V50.2756L8.616 50.1719L11.1911 49.0485H11.2603L11.4331 49.1522L11.5022 49.3078L11.6232 49.3769H11.6751L11.9343 49.2559L12.0034 49.0831L11.3812 47.6832M9.29003 43.4662V43.5872L9.44558 43.6909H9.46286L9.73938 43.639L9.8258 43.5872V43.4835L9.58384 42.0836L9.44558 41.9799L9.16905 42.0317L9.06536 42.1873V42.3083V42.4292L8.94438 42.4811L8.39133 42.3774L8.18393 42.17L7.92469 41.012L8.04567 40.7528L8.54687 40.4936H8.616L8.75427 40.5973V40.7182L8.92709 40.8219L9.20362 40.7701L9.30731 40.6145L9.03079 39.1109L8.89253 39.0072L8.616 39.0591L8.52959 39.1109V39.2146V39.3356L8.40861 39.6121L5.26315 41.5651L5.17673 41.7725L5.29771 42.3947L5.45326 42.5502L9.1172 43.2934L9.3246 43.5008M7.57904 42.1873L7.45806 42.2391L6.07544 42.0144C5.90261 41.9799 5.90261 41.9799 5.88533 41.9626C5.88533 41.9453 5.88533 41.928 6.04087 41.8416L7.25067 41.1849H7.33708L7.47534 41.2886L7.63089 42.0836L7.59632 42.2046M16.0476 16.2977L15.9785 16.5915L15.892 16.6779V16.868L16.0822 17.0754L16.1859 17.11L16.2723 17.0754L17.3092 16.1076V15.9175L17.1191 15.7101L17.0154 15.6755L16.929 15.7101L16.8426 15.7792L16.7389 15.8311L16.6179 15.7446L16.4105 15.2262L16.4797 14.9324L17.3265 14.1028L17.4993 14.0336L17.6203 14.0682L18.1215 14.362L18.2079 14.4657L18.1561 14.5867L18.0697 14.6558L18.0351 14.7422L18.0697 14.8287L18.2598 15.036L18.3462 15.0706L18.4326 15.036L19.556 13.9991V13.809L19.3659 13.6016L19.2795 13.567L19.1931 13.6016L19.1066 13.688L18.9165 13.7571H18.8128L15.4945 12.1153H15.4081L15.2699 12.1498L14.8032 12.5819L14.7514 12.8066L16.0649 16.2977M15.4427 12.893C15.4427 12.893 15.46 12.893 15.5982 12.9621L16.808 13.6361L16.8945 13.7398L16.8426 13.8608L16.255 14.4139L16.1513 14.4657L16.0303 14.3793L15.4945 13.1004C15.4254 12.9276 15.4254 12.9276 15.4427 12.9103M68.6736 41.5132L68.3798 41.4614L68.2588 41.5651L68.2243 41.7552L68.0169 41.8935L65.2862 41.3059L65.1652 41.2194L65.1307 41.0812L65.1652 40.9083V40.8047L65.0615 40.7528L64.7677 40.701L64.6467 40.8047L64.0418 43.6736L64.1455 43.8291L65.1134 44.0884L65.2343 43.9847L65.3035 43.6217L65.1998 43.4489L64.8368 43.3279L64.6986 43.086L64.8887 42.2046L65.0961 42.0663L66.0466 42.2737L66.2022 42.4984L66.0121 43.3971V43.5008L66.1158 43.5526L66.4096 43.6217L66.5305 43.518L66.7207 42.6193L66.9281 42.4811L67.8095 42.6712L67.9477 42.8959L67.7576 43.7773L67.533 43.9328L67.2219 43.8983L67.0836 44.0192L67.0145 44.3303V44.4167L67.1182 44.4686L67.9996 44.6241H68.0169L68.1551 44.5204L68.76 41.6688V41.5651L68.6563 41.5132M59.9977 24.8699C57.9065 20.4456 54.3116 16.6952 50.5267 14.3102C42.5421 9.15991 31.0663 9.12534 23.0125 14.5867C13.8181 20.6702 9.65297 31.4547 12.159 42.0317C14.1465 51.0533 21.9583 58.796 30.8935 60.8181C40.3126 62.9957 50.3712 60.1095 56.904 52.0212C63.2295 44.4167 64.111 33.2175 60.0149 24.8699M50.9069 20.5493C51.7019 19.7542 52.3241 18.6481 52.5661 16.9717C55.1585 19.1148 57.4744 21.8973 59.0126 25.0255L58.9434 25.0601C57.5954 25.7686 56.2992 25.8032 54.7437 25.2329C54.3462 25.0773 52.6525 24.5761 52.2204 24.4724C49.1268 23.7638 47.4158 25.5267 47.1566 26.1489C46.9837 25.9588 46.7072 23.3491 48.6947 22.0701C48.9885 21.88 49.3342 21.6899 49.6799 21.4825C50.0601 21.2406 50.4921 20.9468 50.8896 20.5493M39.9842 18.0778C40.1571 17.7667 40.3472 17.4211 40.5546 17.0754C40.7619 16.6779 40.9866 16.2113 41.1422 15.6582C41.436 14.5694 41.4187 13.3078 40.7965 11.735C44.0975 12.2362 47.2775 13.3596 50.0082 15.1397L50.302 15.3299L50.0946 15.6409C49.2824 16.9199 48.6083 17.5248 46.9665 17.8013C46.5517 17.8704 44.8407 18.2679 44.3913 18.4062C41.1595 19.3913 40.8656 21.9664 40.8484 22.3812C40.6064 22.3121 38.8781 20.169 39.9669 18.0778M23.531 15.3817C24.2223 14.9151 24.9482 14.483 25.7087 14.0855L25.8815 14.4312C26.5901 15.7792 26.5728 16.6606 26.0025 18.2161C25.8469 18.6136 25.7087 19.0111 25.5704 19.4086C25.4321 19.8407 25.3112 20.29 25.242 20.7394C25.0865 21.6899 25.1383 22.7096 25.5704 23.8157C25.9679 24.8354 26.7629 25.5785 27.1258 25.8032C26.953 25.976 24.2051 26.3908 22.9434 24.4033C22.7533 24.0922 22.5632 23.7638 22.3558 23.4182C22.1138 23.038 21.82 22.6059 21.4225 22.2084C20.6275 21.4134 19.5041 20.7912 17.8277 20.5493C19.4177 18.5963 21.3188 16.8507 23.531 15.399M16.5834 22.243L16.8426 22.3985C18.1215 23.2108 18.4672 24.3515 18.7437 25.976C18.8128 26.3908 18.882 26.8056 18.9684 27.2204C19.0721 27.6698 19.1758 28.1191 19.3486 28.5339C19.6943 29.4326 20.4547 30.6769 21.3534 31.3337C22.0274 31.8176 22.9261 32.0596 23.3582 32.0769C23.2891 32.3188 21.1287 34.0471 19.0375 32.9583C18.7264 32.7854 18.3808 32.5953 18.0351 32.3879C17.6376 32.1805 17.171 31.9559 16.6179 31.8003C15.5291 31.5065 14.2675 31.5238 12.6947 32.146C13.2478 28.5857 14.5613 25.1983 16.6006 22.2084M13.9909 44.8661C13.6107 43.881 13.2996 42.8613 13.075 41.8416C12.5219 39.4912 12.3145 37.1234 12.4182 34.8075H12.7466C14.2675 34.8767 14.9761 35.447 16.0303 36.7259C16.3068 37.0543 16.5661 37.3827 16.8599 37.6938C17.1537 38.0221 17.4821 38.3505 17.845 38.6443C18.5882 39.2492 19.6251 39.8714 20.8004 39.9924C21.6645 40.0788 22.8397 39.6121 23.2199 39.422L23.2545 39.5949C23.2891 39.785 22.2694 42.2564 19.9017 42.3428C19.5387 42.3428 19.1585 42.3428 18.7437 42.3428C18.2944 42.3428 17.7759 42.3947 17.2228 42.5502C16.134 42.844 15.0279 43.5008 13.9737 44.8488M21.5089 55.1321C18.8647 52.9717 16.6352 50.2756 15.0625 47.2684L15.3909 47.0956C16.7389 46.387 17.6203 46.2142 19.1758 46.7845C19.5733 46.94 19.9708 47.0783 20.3683 47.2166C20.8004 47.3548 22.9089 48.2362 25.1729 47.2857C26.1753 46.8709 26.6246 46.2314 26.7629 45.8339C26.9357 46.0068 27.3505 48.7547 25.3457 50.0336C25.0519 50.2238 24.7063 50.4139 24.3606 50.6213C23.9804 50.8632 23.5483 51.157 23.1508 51.5545C22.3558 52.3495 21.7336 53.4556 21.4917 55.1321M33.9353 53.9395C33.7624 54.2506 33.5723 54.5963 33.3649 54.942C33.1575 55.3395 32.9329 55.8061 32.7773 56.3591C32.4835 57.448 32.5008 58.7096 33.123 60.2823C32.4317 60.1786 31.7576 60.0577 31.0663 59.9021C28.2838 59.2799 25.605 58.0528 23.2027 56.411L23.2891 56.2727C24.1014 54.9938 25.6395 54.7 27.2641 54.4235C27.6789 54.3543 28.0937 54.2852 28.5085 54.1988C28.9578 54.0951 29.3899 53.9741 29.822 53.8186C33.3304 52.6088 33.002 50.0682 33.0193 49.6534C33.1402 49.688 34.9895 51.8483 33.9007 53.9568M33.123 19.6505C32.9674 20.7048 33.2439 21.6381 33.5378 22.2602C33.2785 22.3121 30.7207 21.327 30.617 18.9592C30.617 18.5963 30.617 18.2161 30.5997 17.8013C30.5997 17.3519 30.5478 16.8335 30.3923 16.2804C30.0985 15.1743 29.4417 14.0855 28.0937 13.0312C31.2737 11.8215 34.7475 11.303 38.1695 11.4585V11.7869C38.1004 13.3078 37.7547 14.1028 36.4758 15.1743C36.1474 15.4508 33.4341 17.3865 33.123 19.6505ZM35.7672 60.5416V60.2132C35.8364 58.6923 36.1302 57.8455 37.4091 56.7912C37.7375 56.5147 39.0337 55.3395 39.3275 54.9765C39.9324 54.2334 41.2113 53.11 40.8484 51.1916C40.7965 50.8632 40.5891 50.1201 40.3817 49.7398C40.6237 49.688 43.1988 50.6904 43.3025 53.0408C43.3025 53.4038 43.3025 53.784 43.3025 54.1988C43.3025 54.6481 43.3544 55.1666 43.5099 55.7197C43.8037 56.8085 44.4605 57.9146 45.7912 58.9516C42.5939 60.1613 39.1719 60.6971 35.7499 60.5243M48.2108 57.8973L48.038 57.5689C47.3294 56.2209 47.3467 55.3395 47.917 53.784C48.0726 53.3865 48.6602 51.399 48.7466 50.9496C49.3342 47.4758 47.4331 46.5598 46.8109 46.1969C47.001 46.024 49.3169 45.6957 50.5958 47.6832C50.7859 47.977 50.9761 48.3227 51.1835 48.6683C51.4254 49.0485 51.7192 49.4806 52.1167 49.8781C52.9117 50.6904 54.3808 51.2262 56.109 51.4508C53.845 54.2334 51.1489 56.3764 48.2108 57.88M57.6818 49.3596L57.3361 49.1522C56.0572 48.3399 55.4523 47.6659 55.1758 46.024C55.1066 45.6093 54.6919 43.8983 54.5709 43.4489C53.5858 39.8541 50.9933 39.9232 50.5786 39.9059C50.6477 39.664 52.7908 37.9357 54.882 39.0245C55.1931 39.1974 55.5387 39.3875 55.9017 39.5949C56.2992 39.8022 56.7658 40.0269 57.3188 40.1825C58.4077 40.4763 59.6693 40.459 61.242 39.8368C60.7408 43.1897 59.5483 46.4734 57.6818 49.3596ZM61.1729 37.1926C59.652 37.1407 58.857 36.5531 57.7855 35.2742C57.5089 34.9458 56.5238 33.6842 55.7634 33.0965C53.4302 31.2991 51.0798 32.3707 50.7168 32.5608C50.665 32.3015 51.6501 29.7437 54.0005 29.6573C54.3635 29.6573 54.7437 29.6573 55.1585 29.6573C55.6078 29.6573 56.1263 29.5881 56.6794 29.4499C57.7855 29.1561 58.8743 28.4993 59.9285 27.1513C61.1383 30.2967 61.6568 33.7533 61.5013 37.2098H61.1729M66.3059 47.0956H66.254L66.133 47.1647L65.9948 47.4758L66.0639 47.6486L66.3232 47.7869L66.4096 48.0461L66.1849 48.5473L66.0121 48.651H65.9429L63.3851 47.4931L63.2814 47.2338L63.3505 47.0783L63.2814 46.9055L63.0222 46.7845H62.9703L62.8493 46.8536L62.2271 48.2708V48.3745L62.2963 48.4436L62.5555 48.5646H62.6074L62.7283 48.4955L62.7975 48.3227L62.9703 48.219H63.0394L65.58 49.3769L65.6837 49.6361L65.459 50.1373L65.2689 50.2583H65.1998L64.9233 50.1373H64.8714L64.7504 50.2065L64.6122 50.5176V50.6213L64.6813 50.6904L65.5109 51.0188H65.5627L65.6837 50.9496L67.1182 47.7005L67.049 47.5276L66.2367 47.1301M10.2406 19.5814H10.3097L10.4134 19.5469L10.6035 19.2703L10.569 19.0802L10.3443 18.8901L10.3097 18.6136L10.6208 18.1642L10.7763 18.0778L10.88 18.1124L13.1614 19.737L13.2305 19.8579L13.1959 19.9962L13.0922 20.1345L13.1268 20.3073L13.3515 20.4628H13.4206L13.5243 20.4283L14.4057 19.1666L14.3712 18.9938L14.1465 18.8383H14.0774L13.9737 18.8728L13.87 19.0284L13.7144 19.1148L13.6107 19.0802L11.3294 17.4556L11.2775 17.1964L11.5886 16.747L11.7442 16.6606L11.8479 16.6952L12.1071 16.8507H12.1763L12.2972 16.8162L12.4873 16.5396V16.436L12.4528 16.3495L11.7096 15.8656H11.6405L11.5368 15.9002L9.49743 18.8037L9.53199 18.9938L10.2406 19.5296M5.19402 36.7259V36.5358L5.40141 36.363L8.20122 36.484L8.39133 36.6741V36.8469L8.51231 36.9852H8.78883L8.92709 36.8642L8.97894 35.326L8.94438 35.2396L8.85796 35.205H8.58144L8.44318 35.326V35.5161L8.23578 35.7062L7.3198 35.6717L7.16425 35.6198L7.12969 35.5507L7.16425 35.3087C7.16425 35.3087 7.2161 35.0322 8.04567 34.652C8.94438 34.2372 9.01351 33.7706 9.01351 33.7533L9.04807 33.4422V33.3212L8.92709 33.183H8.616H8.51231L8.47774 33.4422C8.47774 33.4422 8.39133 33.5459 8.20122 33.6669C8.08024 33.736 7.92469 33.8397 7.7173 33.9952C7.42349 34.2026 7.18153 34.4446 7.04327 34.6866L6.99142 34.7557V34.6693C6.93958 34.3582 6.83588 34.1162 6.66305 33.9261C6.47294 33.7187 6.12729 33.615 5.90261 33.615C5.69522 33.615 5.45326 33.6496 5.12489 33.9261C4.8138 34.1681 4.77923 34.7384 4.77923 34.7384L4.74466 35.0495L4.67553 36.7259L4.7101 36.8123L4.79651 36.8469H5.07304L5.2113 36.7259M5.26315 35.1705L5.33228 34.8594C5.33228 34.8594 5.47054 34.4273 5.95446 34.4273C6.36924 34.4273 6.49022 34.6866 6.55935 34.9285C6.6112 35.1359 6.6112 35.3087 6.6112 35.4297L6.42109 35.6198L5.45326 35.5853L5.26315 35.3951V35.1878M7.92469 24.9391C8.08024 25.0082 8.2185 25.0428 8.35676 25.0428C8.84068 25.0428 9.15177 24.6625 9.44558 24.265L9.53199 24.1441C9.79123 23.7811 10.0332 23.4528 10.3443 23.4528L10.5517 23.5046C10.7591 23.591 10.88 23.7466 10.9146 23.9712C10.9492 24.1441 10.9146 24.3687 10.8109 24.5934C10.7245 24.8008 10.4825 25.1292 10.4653 25.1292L10.2579 25.2329H10.1887L9.94678 25.1292H9.89493L9.77395 25.1983L9.63569 25.5267L9.70482 25.6995L10.4307 26.0106H10.4998L10.6554 25.9588C10.6554 25.9588 11.1566 25.3193 11.3294 24.9218C12.0034 23.3491 11.0874 22.8306 10.7936 22.6923C10.6381 22.6232 10.4653 22.5886 10.327 22.5886C9.8258 22.5886 9.49743 22.9861 9.20362 23.3663L9.09992 23.5046C8.84068 23.8503 8.616 24.1786 8.30491 24.1786L8.1148 24.1441C7.97654 24.0922 7.89013 23.9885 7.821 23.8675C7.75187 23.6774 7.76915 23.4355 7.89013 23.1417C7.95926 22.9861 8.13209 22.7614 8.13209 22.7442L8.33948 22.6405H8.40861L8.59872 22.7269H8.65057L8.77155 22.6577L8.90981 22.3294V22.2257L8.84068 22.1565L8.20122 21.88H8.13209L7.97654 21.9319C7.97654 21.9319 7.49262 22.5541 7.35436 22.8479C6.85316 24.0231 7.30251 24.6971 7.90741 24.9564M69.1403 34.9804L68.2415 34.9112L68.1206 35.0322V35.3606L68.2415 35.4988H68.5353L68.7082 35.7235V36.2766L68.5008 36.4667L65.701 36.3457L65.5627 36.2938L65.5109 36.1556V35.9828L65.3899 35.8445H65.1134L64.9751 35.9655L64.9233 37.5036L64.9578 37.5901L65.0442 37.6246H65.3208L65.4417 37.5036V37.3135L65.6491 37.1234L68.4489 37.2271L68.5872 37.279L68.639 37.4172V37.953L68.4317 38.1431H68.1378L67.9996 38.2814V38.6097L68.0169 38.6962L68.1033 38.7307H69.002L69.1403 38.5925L69.2439 35.0495L69.123 34.9112M5.29771 30.2794L5.59152 30.3486L5.7125 30.2449L5.76435 30.0548L5.95446 29.9165H5.98902L8.70242 30.5733L8.84068 30.7979L8.80611 30.9535L8.90981 31.109L9.18634 31.1782H9.2209L9.34188 31.0745L10.0159 28.2055L9.91221 28.0327L8.94438 27.7562L8.8234 27.8426L8.73698 28.2055L8.84068 28.3783L9.20362 28.4993L9.34188 28.7413L9.13449 29.6227L8.94438 29.7782H8.90981L6.19642 29.1215L6.05815 28.8968L6.09272 28.7413L5.98902 28.5857L5.69522 28.5166L5.57424 28.6203L5.22858 30.1239V30.2276L5.33228 30.2794" fill="#010000"/>
<path id="Vector_3" d="M25.9851 50.9842C25.674 51.1743 25.3284 51.3644 24.9827 51.5891C24.6371 51.8137 24.2914 52.0557 23.963 52.3668C23.3927 52.9198 22.9088 53.7148 22.6668 54.9765C23.7902 53.6457 25.2765 53.3692 26.7456 53.1099C27.1431 53.0408 27.5579 52.9717 27.9554 52.8853C28.3529 52.7989 28.7331 52.6952 29.1133 52.5569C29.8565 52.2804 30.5478 51.8483 31.1181 51.1051C31.5502 50.5521 31.8267 50.0336 31.8785 49.3596C31.2736 49.0831 29.338 48.1325 28.5084 47.493C28.4566 48.2362 27.9899 49.7052 25.9851 50.9842ZM47.3121 44.0538C50.3538 40.4071 50.8723 34.4273 48.7292 30.2103C47.7441 28.1018 45.8085 26.0279 43.7691 24.7835C39.8632 22.2602 33.676 22.2948 29.8565 24.9736C25.0173 28.1709 22.8915 33.736 24.2914 39.3529C25.242 43.6217 29.3725 47.7523 33.6587 48.6856C38.8435 49.8954 43.9765 48.2708 47.2948 44.0538M35.3869 50.1719C35.698 50.8459 36.0437 52.3495 34.9376 54.458C34.7648 54.7864 34.5574 55.1147 34.3673 55.4777C34.1772 55.8406 34.0043 56.2208 33.8833 56.6529C33.676 57.4134 33.6414 58.3466 34.0735 59.5564C34.3673 57.8454 35.6116 56.8776 36.735 55.9098C37.0461 55.6505 37.3572 55.374 37.651 55.1147C37.9448 54.8382 38.2386 54.5617 38.4978 54.2506C39.0163 53.6457 39.4138 52.9371 39.6039 52.0384C39.7422 51.3817 39.3965 50.6039 38.9818 50.1546C38.3596 50.2064 36.4066 50.3274 35.4042 50.1719M38.5324 21.8281C38.2213 21.1541 37.8757 19.6505 38.9818 17.542C39.1546 17.2136 39.362 16.8853 39.5521 16.5223C39.7422 16.1594 39.915 15.7792 40.036 15.3471C40.2434 14.5867 40.278 13.6534 39.8459 12.4436C39.5521 14.1546 38.3596 15.157 37.2016 16.1075C36.8905 16.3668 36.5622 16.626 36.2511 16.9026C35.94 17.1791 35.6635 17.4556 35.4042 17.7667C34.903 18.3889 34.5055 19.0975 34.3845 20.0307C34.2981 20.7048 34.4537 21.5516 34.6784 21.8973C35.3351 21.8454 37.4954 21.6726 38.5497 21.8281M54.1215 46.1104C54.0523 45.6956 54.0005 45.2809 53.9141 44.8661C53.8449 44.4686 53.7412 44.0711 53.603 43.6736C53.3265 42.9131 52.9117 42.2218 52.1512 41.6342C51.6327 41.2367 50.8032 41.0639 50.302 41.0639C50.0254 41.6688 49.0749 43.6044 48.4354 44.434C49.1786 44.5031 50.6476 44.9525 51.9266 46.9573C52.1167 47.2684 52.3068 47.614 52.5315 47.9597C52.7388 48.3053 52.9981 48.651 53.3092 48.9794C53.8622 49.5497 54.6572 50.0336 55.9189 50.2756C54.5881 49.1522 54.3289 47.5967 54.1042 46.0931M19.867 25.8032C20.0571 27.134 20.23 27.929 20.3682 28.3092C20.6447 29.0523 21.0768 29.7437 21.82 30.314C22.3557 30.7288 23.1507 30.8843 23.6174 30.9189C23.8939 30.314 24.8272 28.3783 25.4839 27.5487C24.7408 27.4969 23.2717 27.0303 21.9928 25.0255C21.8027 24.7144 21.6126 24.3687 21.3879 24.0231C21.1632 23.6774 20.9213 23.3317 20.6102 23.0034C20.0571 22.433 19.2621 21.9491 18.0005 21.7072C19.3313 22.8305 19.6596 24.3169 19.867 25.7859M56.8694 36.2938C56.6102 35.9827 56.3509 35.6716 56.0744 35.3605C55.7979 35.0667 55.5214 34.7729 55.2103 34.531C54.5881 34.0298 53.8795 33.6496 52.9462 33.5286C52.2722 33.4422 51.5118 33.5459 51.0624 33.7533C51.1143 34.4273 51.2871 36.5703 51.1315 37.6073C51.8056 37.2962 53.3092 36.9506 55.4177 38.0567C55.746 38.2295 56.0744 38.4369 56.4374 38.627C56.8003 38.8171 57.1805 39.0072 57.6126 39.1109C58.373 39.3183 59.3063 39.3529 60.5161 38.9208C58.8051 38.627 57.82 37.469 56.8694 36.3111M16.9808 35.6025C17.24 35.9136 17.482 36.2247 17.7412 36.5185C18.0005 36.8123 18.277 37.1061 18.5708 37.3826C19.1757 37.9184 19.867 38.3505 20.783 38.5924C21.6126 38.7998 22.2866 38.5924 22.8397 38.2986C22.7878 37.6419 22.615 35.4815 22.7705 34.4446C22.0965 34.7557 20.5929 35.1013 18.4844 33.9952C18.156 33.8224 17.8277 33.615 17.4647 33.4249C17.1018 33.2348 16.7216 33.0619 16.2895 32.941C15.529 32.7336 14.5958 32.699 13.386 33.1311C15.097 33.4249 16.0475 34.4964 16.9808 35.6198M49.4033 25.6822C48.7984 25.9242 48.228 26.5809 48.0206 26.9784C48.4009 27.5142 49.6107 29.3116 50.0082 30.2794C50.423 29.6745 51.5636 28.6203 53.9486 28.5166C54.3116 28.5166 54.6918 28.5166 55.1066 28.4993C55.5214 28.4993 55.9362 28.4474 56.3682 28.3265C57.146 28.1191 57.9582 27.687 58.7878 26.7019C57.1459 27.2895 55.6769 26.7365 54.2424 26.1834C53.8449 26.0279 53.4647 25.8723 53.0672 25.7341C52.6697 25.5958 52.2722 25.4921 51.8747 25.4057C51.0797 25.2674 50.2501 25.2847 49.386 25.6304M24.3605 46.1623C25.0173 45.903 25.6913 45.4537 25.8987 45.0389C25.5185 44.5031 24.2914 42.7057 23.8939 41.7206C23.4791 42.3255 22.3385 43.3798 19.9534 43.4834C19.5905 43.4834 19.2103 43.4835 18.7955 43.5007C18.3807 43.5007 17.9659 43.5526 17.5339 43.6736C16.7734 43.881 15.9438 44.313 15.1143 45.2981C16.7388 44.6932 18.1906 45.2117 19.5732 45.7302C19.9534 45.8685 20.3337 46.024 20.7312 46.145C21.1114 46.266 21.5089 46.3697 21.8891 46.4388C22.6668 46.5598 23.4791 46.5425 24.3605 46.1796M47.9342 21.0331C48.2453 20.843 48.591 20.6529 48.9366 20.4282C49.2823 20.2036 49.6279 19.9616 49.9563 19.6505C50.5266 19.0975 51.0106 18.3025 51.2525 17.0408C50.1291 18.3716 48.6083 18.4753 47.1219 18.7172C46.7072 18.7864 46.3097 18.8382 45.8949 18.9246C45.4974 19.0111 45.0999 19.0975 44.7196 19.2357C43.9765 19.5123 43.2679 19.927 42.6976 20.6875C42.3001 21.206 42.0581 22.2429 42.0408 22.675C42.6457 22.9515 44.5814 23.9021 45.4109 24.5415C45.4628 23.7984 45.9294 22.3293 47.9342 21.0504M27.9381 24.939C28.4911 24.5588 30.2712 23.349 31.2391 22.9515C30.6342 22.5367 29.5799 21.3961 29.4762 19.0111C29.4762 18.6481 29.4762 18.2679 29.459 17.8531C29.459 17.4383 29.4071 17.0235 29.2861 16.5915C29.0787 15.8137 28.6467 15.0015 27.6616 14.1719C28.2492 15.8137 27.748 17.2482 27.2295 18.6308C27.0912 19.0111 26.9357 19.3913 26.8147 19.7888C26.6937 20.169 26.59 20.5665 26.5209 20.9467C26.3999 21.7244 26.4172 22.5367 26.7801 23.4182C27.0394 24.0403 27.5233 24.6625 27.9208 24.939M45.8085 47.2165C45.3245 47.5622 43.6481 48.6856 42.6803 49.0831C43.2852 49.4979 44.3394 50.6385 44.4431 53.0235C44.4431 53.3865 44.4431 53.7667 44.4604 54.1815C44.4604 54.5963 44.5122 55.0111 44.6332 55.4431C44.8406 56.2036 45.2727 57.0331 46.2405 57.8627C45.6356 56.2554 46.0677 54.8728 46.5689 53.5247C46.8454 52.7816 47.1392 52.0384 47.2948 51.2434C47.4676 50.4657 47.5022 49.6361 47.2602 48.7028C47.0701 47.9424 46.3615 47.2165 45.8085 47.2165Z" fill="#FFD30E"/>
</g>
<defs>
<clipPath id="clip0_1106_16765">
<rect width="72" height="72" fill="white" transform="translate(0.959717)"/>
</clipPath>
</defs>
</svg>
