<svg height="28" viewBox="0 0 73 72" fill="none" xmlns="http://www.w3.org/2000/svg">
<g id="Layer_1" clip-path="url(#clip0_1106_16620)">
<path id="Vector" fill-rule="evenodd" clip-rule="evenodd" d="M0.761719 36C0.761719 55.8579 16.9211 72 36.7617 72C56.6023 72 72.7617 55.8579 72.7617 36C72.7617 16.1421 56.6196 0 36.7617 0C16.9038 0 0.761719 16.1594 0.761719 36Z" fill="#0A72A3"/>
<g id="Group">
<g id="g10">
<g id="g12">
<path id="path14" d="M63.8439 26.4425L64.3451 26.2351L64.2241 25.9413L67.0239 23.7983L66.6782 22.9514L63.1871 23.4353L63.0661 23.1588L62.5649 23.3662L62.8588 24.0748L64.1204 23.8674L64.5352 24.8698L63.4982 25.6302L63.8266 26.4253L63.8439 26.4425ZM64.9845 24.5587L64.6562 23.7983L66.419 23.5217L64.9845 24.5587Z" fill="white"/>
</g>
</g>
<g id="g18">
<g id="g24">
<path id="path26" d="M62.3575 22.9515L62.8414 22.675L62.6686 22.3812L63.4981 21.8973C63.8784 21.6726 63.9821 21.3097 63.792 20.9467L63.6018 20.6011L65.0017 20.6875L65.2264 21.085L65.7103 20.8085L65.3128 20.1344L63.2389 20.0999L64.7771 19.2184L64.2931 18.3716L63.8092 18.6481L63.9821 18.9419L61.5106 20.3591L61.3378 20.0653L60.8539 20.3418L61.3378 21.1887L62.8241 20.3418L63.2389 21.0504C63.3253 21.206 63.2735 21.3097 63.0834 21.4133L61.8736 22.1047L62.3575 22.9515Z" fill="white"/>
</g>
<g id="g28">
<path id="path30" d="M61.0094 19.3394L61.7007 18.8382C62.0637 18.5789 62.1155 18.1987 61.8736 17.8703L61.3897 17.2136C61.286 17.0753 61.3378 16.9543 61.5106 16.8334L61.8909 16.5568C62.0637 16.4359 62.1847 16.4186 62.2884 16.5568L62.7723 17.2136L62.3575 17.5074L62.7204 18.0086L63.5846 17.3864L62.6167 16.0729C62.3748 15.7445 61.9946 15.6754 61.6316 15.9519L60.9749 16.4359C60.6119 16.6951 60.5428 17.0753 60.802 17.421L61.286 18.0777C61.3897 18.216 61.3378 18.337 61.165 18.4579L60.7502 18.7517C60.5774 18.8727 60.4391 18.89 60.3527 18.7517L59.8169 18.0259L60.3181 17.6629L59.9379 17.1444L59.0046 17.8358L60.0243 19.2357C60.2663 19.5813 60.6465 19.6159 61.0094 19.3566" fill="white"/>
</g>
<g id="g32">
<path id="path34" d="M61.6662 13.1866L61.2342 12.7373L60.37 12.9965L60.7157 13.3595L61.6662 13.1866ZM61.1305 15.0359L61.528 14.6557L60.8885 13.9989L59.2121 15.6235C59.0911 15.7445 58.9528 15.9 58.8146 16.0729L59.8861 12.962L59.1948 12.2361L58.7973 12.6163L59.0393 12.8583L56.9826 14.8458L56.7406 14.6038L56.3431 14.984L56.9826 15.6408L58.659 14.0162C58.78 13.8952 58.9183 13.7397 59.0565 13.5496L58.0196 16.7123L58.4344 17.1444L60.8885 14.7767L61.1132 15.0186L61.1305 15.0359Z" fill="white"/>
</g>
<g id="g36">
<path id="path38" d="M56.1876 12.5474L55.5481 12.0289L56.9653 10.9574L56.1876 12.5474ZM56.0666 14.7423L56.4122 14.3102L56.1703 14.1201L57.6393 10.9055L56.9307 10.3352L54.0791 12.4091L53.8371 12.219L53.4915 12.6511L54.0964 13.135L55.116 12.3573L55.9629 13.0486L55.4098 14.2065L56.0839 14.7596L56.0666 14.7423Z" fill="white"/>
</g>
<g id="g40">
<path id="path42" d="M55.1506 9.64378L55.4444 9.17715L54.6494 8.69323L53.4396 10.6807C53.3532 10.819 53.2668 11.0091 53.1631 11.2165L53.405 7.93279L52.5582 7.41431L52.2644 7.89822L52.5582 8.07105L51.0719 10.5079L50.7781 10.3351L50.4843 10.8017L51.2793 11.2856L52.4891 9.29813C52.5755 9.15987 52.6792 8.96976 52.7656 8.74508L52.5582 12.0634L53.0767 12.3745L54.8568 9.47096L55.1506 9.64378Z" fill="white"/>
</g>
<g id="g44">
<path id="path46" d="M49.9831 10.508L50.5015 9.38461L49.9485 9.12537L49.6547 9.74755L48.4795 9.21178L51.3657 7.34524L51.5731 6.87861L49.2226 5.78979L48.7041 6.89589L49.2745 7.15513L49.551 6.55024L50.6571 7.06872L47.7709 8.91798L47.5635 9.38461L49.9831 10.4907V10.508Z" fill="white"/>
</g>
<g id="g48">
<path id="path50" d="M47.2351 8.48582L48.0474 6.1008C48.1857 5.68601 48.0301 5.32307 47.6326 5.20209L46.5611 4.83915C46.1636 4.70089 45.8179 4.87372 45.6797 5.30579L44.8674 7.69081C44.7291 8.1056 44.8846 8.45125 45.2822 8.58951L46.3364 8.95245C46.7339 9.09071 47.0796 8.91789 47.2178 8.48582M46.6821 8.12288C46.6129 8.33027 46.5092 8.41669 46.3537 8.34755L45.6451 8.1056C45.4895 8.05375 45.455 7.93277 45.5241 7.72537L46.2327 5.63416C46.3018 5.42677 46.4055 5.35764 46.5611 5.40948L47.2697 5.65144C47.4252 5.70329 47.4598 5.82427 47.3906 6.03166L46.6821 8.12288Z" fill="white"/>
</g>
<g id="g52">
<path id="path54" d="M44.6427 5.7033L44.7809 5.02927C44.8674 4.5972 44.66 4.26883 44.2625 4.18242L42.3268 3.78491L42.2231 4.33796L42.5515 4.40709L41.9811 7.2069L41.6528 7.13777L41.5491 7.67353L42.8626 7.93278L42.9663 7.39701L42.6033 7.32788L42.8453 6.16993L43.7267 6.34276C44.1933 6.42918 44.5563 6.2045 44.66 5.7033M44.0205 5.54775C43.9859 5.75515 43.8822 5.84156 43.7267 5.807L42.9317 5.65145L43.1564 4.54535L43.9514 4.7009C44.1242 4.73546 44.1761 4.85644 44.1242 5.06384L44.0205 5.54775Z" fill="white"/>
</g>
<g id="g56">
<path id="path58" d="M38.8875 7.34515V6.7921H38.5764L37.7296 3.37012H36.8136L35.863 6.75754H35.5692V7.31059H36.3469L36.658 6.08351H37.7468L38.0406 7.34515H38.9048H38.8875ZM37.6259 5.54775H36.7963L37.2456 3.81947L37.6259 5.54775Z" fill="white"/>
</g>
<g id="g60">
<path id="path62" d="M35.1717 7.31064L35.1198 6.75759L34.7915 6.79216L34.6878 5.8416C34.6359 5.39225 34.3421 5.15029 33.9273 5.20214L33.5298 5.23671L34.1693 3.99235L34.6359 3.9405L34.5668 3.38745L33.7891 3.47386L32.9249 5.35769L32.7348 3.59484L31.767 3.69854L31.8361 4.25159L32.1645 4.21702L32.4756 7.0514L32.1472 7.08596L32.199 7.63901L33.1669 7.53532L32.9768 5.82432L33.7891 5.73791C33.9619 5.72062 34.0483 5.82432 34.0656 6.03171L34.2211 7.41434L35.189 7.31064H35.1717Z" fill="white"/>
</g>
<g id="g64">
<path id="path66" d="M31.6978 7.75996L31.5941 7.22419L31.2657 7.29332L30.7127 4.49352L31.0411 4.42439L30.9374 3.87134L29.6584 4.13058L29.7621 4.68363L30.0905 4.6145L30.6436 7.4143L30.3152 7.48344L30.4189 8.0192L31.6978 7.75996Z" fill="white"/>
</g>
<g id="g68">
<path id="path70" d="M28.9326 4.83923L28.7771 4.30347L27.8957 4.57999L28.587 6.80947C28.6388 6.96501 28.708 7.15512 28.8117 7.36252L26.5131 4.99478L25.5625 5.28858L25.718 5.82435L26.0464 5.72065L26.8933 8.45133L26.5649 8.55503L26.7204 9.09079L27.6019 8.81427L26.9106 6.58479C26.8587 6.42925 26.7896 6.22185 26.6859 6.01446L29.0363 8.36492L29.6067 8.19209L28.6043 4.94293L28.9326 4.83923Z" fill="white"/>
</g>
<g id="g72">
<path id="path74" d="M26.1847 9.29818L25.9427 8.79698L25.6317 8.93525L24.4219 6.34283L24.7329 6.20457L24.491 5.70337L23.6096 6.11816L24.3354 7.69089L23.2639 8.19209L22.538 6.61936L21.6566 7.03414L21.8986 7.53534L22.2097 7.39708L23.4195 9.9895L23.1084 10.1278L23.3503 10.629L24.2317 10.2142L23.5059 8.64144L24.5774 8.14024L25.3033 9.71297L26.1847 9.29818Z" fill="white"/>
</g>
<g id="g76">
<path id="path78" d="M22.8146 10.9228L22.1578 9.85129L21.6739 10.1451L22.0368 10.75L21.2073 11.2512C21.069 11.3376 20.948 11.2858 20.8271 11.0956L19.6864 9.21183C19.5654 9.02172 19.5827 8.90074 19.721 8.81432L20.5505 8.31312L20.9135 8.90074L21.3974 8.60693L20.7579 7.5354L19.2889 8.41682C18.926 8.62421 18.8395 9.00443 19.0815 9.38466L20.3777 11.545C20.6024 11.9252 20.9826 12.0116 21.3283 11.8042L22.7973 10.9228H22.8146Z" fill="white"/>
</g>
<g id="g80">
<path id="path82" d="M20.2394 12.5299L19.4617 11.5448L19.0124 11.8904L19.4444 12.4435L18.4766 13.1866L17.7162 12.2188L18.7186 11.4411L18.3902 11.0263L17.3878 11.804L16.7138 10.9399L17.647 10.214L18.0618 10.7498L18.4939 10.4041L17.7334 9.43628L15.6077 11.0954L15.9533 11.5275L16.2126 11.3201L17.9754 13.5669L17.7162 13.7743L18.0618 14.2063L20.2222 12.5126L20.2394 12.5299Z" fill="white"/>
</g>
<g id="g84">
<path id="path86" d="M15.7286 12.4781L14.9509 11.6831L12.756 13.8262L13.5337 14.6212L13.9485 14.2064L13.551 13.8089L14.0003 13.3768L16.0051 15.4162L15.7459 15.6754L16.1261 16.0729L17.1112 15.1051L16.731 14.7076L16.4718 14.9668L14.467 12.9275L14.9163 12.4954L15.3138 12.8929L15.7286 12.4781Z" fill="white"/>
</g>
<g id="g88">
<path id="path90" d="M15.262 16.9716L14.8472 16.6087L14.6225 16.8679L12.4449 15.0187L12.6695 14.7594L12.2375 14.3965L11.3906 15.3989L11.8227 15.7618L12.0474 15.5026L14.225 17.3518L14.0003 17.6111L14.4151 17.974L15.262 16.9716Z" fill="white"/>
</g>
<g id="g92">
<path id="path94" d="M14.0176 18.4753L12.9115 17.6976L12.5832 18.1642L13.2399 18.6136L12.635 19.4777L10.3018 17.8359L10.5092 17.542L10.0599 17.231L9.29944 18.3198L9.74879 18.6309L9.9389 18.3543L12.2721 19.9962L12.082 20.2727L12.5313 20.5838L14.0176 18.458V18.4753Z" fill="white"/>
</g>
<g id="g96">
<path id="path98" d="M11.5635 20.7565L9.33402 19.5813C8.93652 19.3739 8.57358 19.4776 8.36618 19.8405L7.83042 20.8256C7.64031 21.1886 7.744 21.5688 8.14151 21.7762L10.371 22.9514C10.7685 23.1588 11.1314 23.0551 11.3215 22.6749L11.8573 21.6898C12.0474 21.3268 11.9437 20.9466 11.5462 20.7392M11.1141 21.2404C11.3043 21.3441 11.3734 21.4478 11.287 21.6034L10.9413 22.2601C10.8549 22.4157 10.7339 22.4157 10.5438 22.312L8.59086 21.275C8.40075 21.1713 8.3489 21.0676 8.41803 20.9121L8.76369 20.2553C8.8501 20.0998 8.97108 20.0998 9.16119 20.2035L11.1141 21.2404Z" fill="white"/>
</g>
<g id="g100">
<path id="path102" d="M8.31434 22.9343L7.67487 22.6923C7.26009 22.5368 6.89715 22.6923 6.75889 23.0725L6.05029 24.9045L6.56878 25.1119L6.68976 24.8008L9.3513 25.8378L9.23032 26.1489L9.7488 26.3563L10.2327 25.1119L9.71424 24.9045L9.57598 25.2502L8.46988 24.8181L8.79825 23.9712C8.97108 23.5219 8.79825 23.1244 8.31434 22.9516M8.05509 23.5046C8.26249 23.591 8.33162 23.6774 8.26249 23.8503L7.96868 24.6107L6.91443 24.1959L7.20824 23.4355C7.27737 23.2799 7.38107 23.2454 7.58846 23.3318L8.05509 23.5046Z" fill="white"/>
</g>
<g id="g104">
<path id="path106" d="M65.8486 32.6643L65.2955 32.6989L65.3301 33.4247L66.9892 34.0988L65.4165 34.9629L65.4684 35.7579L66.0214 35.7234V35.395L67.5941 34.4099L68.8039 34.3407V34.7037L69.3743 34.6691L69.3051 33.3211L68.7521 33.3556V33.7013L67.5423 33.7704L65.8831 32.9927V32.6643H65.8486Z" fill="white"/>
</g>
<g id="g108">
<path id="path110" d="M69.4262 36.4493L67.1621 36.3456L67.1103 37.6072H67.6633L67.6979 36.9851L68.8559 37.0369L68.8213 38.0047C68.8213 38.1776 68.7003 38.2467 68.4929 38.2294L66.2807 38.143C66.056 38.143 65.9696 38.0566 65.9696 37.8838L66.0042 36.8986L66.6609 36.9332V36.3629L65.4857 36.311L65.4166 38.0393C65.3993 38.4541 65.6585 38.7306 66.1079 38.7479L68.6312 38.8516C69.0805 38.8516 69.3571 38.6096 69.3743 38.1949L69.4435 36.432L69.4262 36.4493Z" fill="white"/>
</g>
<g id="g112">
<path id="path114" d="M68.5101 39.8195L66.0214 39.422C65.5721 39.3529 65.261 39.5776 65.1919 39.9924L65.019 41.0985C64.9499 41.5133 65.1746 41.8243 65.6239 41.8935L68.1126 42.291C68.5447 42.3601 68.8558 42.1354 68.9249 41.7206L69.0978 40.6146C69.1669 40.1998 68.9422 39.8887 68.4929 39.8195M68.2336 40.4244C68.441 40.459 68.5447 40.5454 68.5101 40.7182L68.3892 41.4614C68.3546 41.6342 68.2336 41.6861 68.0262 41.6515L65.8486 41.3059C65.6239 41.2713 65.5375 41.1849 65.5721 41.0121L65.6931 40.2689C65.7276 40.0961 65.8313 40.0442 66.0387 40.0788L68.2163 40.4244H68.2336Z" fill="white"/>
</g>
<g id="g116">
<path id="path118" d="M68.6311 43.2241L67.3349 42.8784L67.1966 43.4315L67.9571 43.6389L67.6805 44.6585L64.9326 43.9327L65.019 43.587L64.4832 43.4487L64.1376 44.745L64.6733 44.8832L64.7598 44.5548L67.525 45.2807L67.4386 45.6091L67.9743 45.7474L68.6311 43.2414V43.2241Z" fill="white"/>
</g>
<g id="g120">
<path id="path122" d="M66.9201 46.5251L64.5696 45.6264C64.1548 45.4709 63.7919 45.6264 63.6536 46.0066L63.2561 47.0609C63.1006 47.4584 63.2561 47.804 63.6882 47.9596L66.0387 48.8583C66.4535 49.0138 66.7991 48.8583 66.9547 48.4781L67.3522 47.4238C67.4904 47.0263 67.3522 46.6807 66.9201 46.5251ZM66.5572 47.0782C66.7645 47.1473 66.8337 47.251 66.7818 47.4065L66.5226 48.1151C66.4707 48.2707 66.3325 48.3052 66.1251 48.2188L64.0684 47.4411C63.861 47.372 63.7919 47.2683 63.861 47.0954L64.1203 46.3868C64.1721 46.2313 64.2931 46.1967 64.5005 46.2832L66.5572 47.0609V47.0782Z" fill="white"/>
</g>
<g id="g124">
<path id="path126" d="M63.2562 48.4782L62.7722 48.2017L62.3229 49.014L64.3622 50.1373C64.5178 50.2237 64.6906 50.3102 64.9153 50.3793L61.6143 50.2756L61.1304 51.157L61.6143 51.4163L61.7698 51.1224L64.2758 52.4878L64.1203 52.7816L64.6042 53.0408L65.0536 52.2285L63.0142 51.1052C62.8586 51.0188 62.6685 50.9323 62.4439 50.8632L65.7794 50.9151L66.0732 50.3966L63.0833 48.7547L63.2389 48.4609L63.2562 48.4782Z" fill="white"/>
</g>
<g id="g128">
<path id="path130" d="M64.0167 54.0433L63.5673 53.7149L63.3599 53.9914L61.0613 52.2804L61.2687 52.0039L60.8193 51.6755L60.249 52.4533L61.6489 53.4902L60.9403 54.4408L59.5404 53.4038L58.9701 54.1815L59.4194 54.5099L59.6268 54.2334L61.9254 55.9444L61.7181 56.2209L62.1674 56.5493L62.7377 55.7716L61.3551 54.7346L62.0637 53.784L63.4463 54.821L64.0167 54.0433Z" fill="white"/>
</g>
<g id="g132">
<path id="path134" d="M61.4415 57.3962L60.5082 56.5493L60.128 56.9641L60.6465 57.4307L59.9897 58.1566C59.8687 58.2776 59.7478 58.2603 59.5922 58.122L57.9676 56.6357C57.8121 56.4802 57.7775 56.3592 57.8985 56.2382L58.5552 55.5123L59.0564 55.979L59.4367 55.5642L58.5207 54.7346L57.3627 56.0135C57.0862 56.3246 57.1035 56.7049 57.4319 56.9987L59.2984 58.6924C59.6268 58.9862 60.007 58.9689 60.2835 58.6751L61.4415 57.3962Z" fill="white"/>
</g>
<g id="g136">
<path id="path138" d="M59.0219 59.9194L58.2096 58.9689L57.7775 59.3318L58.2269 59.8676L57.2936 60.6626L56.4986 59.7293L57.4664 58.8997L57.1208 58.5022L56.1529 59.3318L55.4444 58.5022L56.3431 57.7418L56.7751 58.243L57.1899 57.88L56.3949 56.9468L54.3383 58.7096L54.7012 59.1244L54.9604 58.8997L56.8097 61.0601L56.5504 61.2847L56.9134 61.6995L59.0046 59.9194H59.0219Z" fill="white"/>
</g>
<g id="g140">
<path id="path142" d="M54.5802 59.9367L53.958 59.0034L51.4175 60.7144L52.0397 61.6477L52.5236 61.3193L52.2125 60.8527L52.731 60.507L54.321 62.8748L54.0099 63.0822L54.321 63.5488L55.4616 62.7883L55.1506 62.3217L54.8395 62.5291L53.2495 60.1614L53.7679 59.8157L54.079 60.2823L54.5629 59.954L54.5802 59.9367Z" fill="white"/>
</g>
<g id="g144">
<path id="path146" d="M49.9658 62.8746L49.4646 61.7512L47.0796 62.8055L47.3043 63.3067L47.6154 63.1684L48.7733 65.7781L48.4622 65.9164L48.6869 66.4176L49.914 65.8645L49.6893 65.3633L49.3436 65.5189L48.8597 64.4128L50.0522 63.877L49.8275 63.3758L48.635 63.9116L48.1857 62.9092L49.1535 62.4944L49.43 63.1166L49.9831 62.8746H49.9658Z" fill="white"/>
</g>
<g id="g148">
<path id="path150" d="M41.9638 64.8104L41.8947 64.2573L41.1688 64.3437L40.6157 66.0547L39.6306 64.5338L38.8529 64.6375L38.922 65.1906L39.2504 65.156L40.3392 66.6769L40.4948 67.8694L40.1318 67.9213L40.201 68.4743L41.5317 68.3015L41.4626 67.7484L41.1169 67.8003L40.9614 66.5732L41.6181 64.8622L41.9465 64.8277L41.9638 64.8104Z" fill="white"/>
</g>
<g id="g152">
<path id="path154" d="M38.49 65.7782V64.6721L35.4137 64.6894V65.7955H36.0186V65.2425H36.6408V68.0941H36.2951V68.6472H37.6777V68.0941H37.2975V65.2425H37.9024V65.7955H38.49V65.7782Z" fill="white"/>
</g>
<g id="g156">
<path id="path158" d="M34.6187 68.578L34.6706 68.025L34.3249 67.9904L34.5669 65.1561L34.9125 65.1906L34.9644 64.6376L33.6682 64.5166L33.6163 65.0696L33.9447 65.1042L33.7027 67.9386L33.3744 67.904L33.3225 68.4571L34.636 68.578H34.6187Z" fill="white"/>
</g>
<g id="g160">
<path id="path162" d="M32.3719 67.6619L32.5275 66.8151C32.6139 66.383 32.3892 66.0546 31.9917 65.9855L31.1794 65.8299C31.0066 65.7954 30.9547 65.6744 31.0066 65.467L31.093 65.0177C31.1276 64.793 31.214 64.7238 31.3868 64.7411L32.1991 64.8967L32.1127 65.3979L32.7176 65.5189L32.9077 64.4819L31.3177 64.1881C30.9029 64.1189 30.5918 64.3263 30.5054 64.7757L30.3498 65.5707C30.2634 66.0028 30.4881 66.3311 30.8856 66.4003L31.6806 66.5558C31.8534 66.5904 31.9053 66.7114 31.8534 66.9188L31.767 67.42C31.7325 67.6273 31.646 67.731 31.4732 67.6965L30.5918 67.5237L30.6955 66.9188L30.056 66.7978L29.8486 67.9384L31.5423 68.2495C31.9571 68.3187 32.2682 68.1113 32.3374 67.6619" fill="white"/>
</g>
<g id="g164">
<path id="path166" d="M28.9844 65.0523C28.9153 65.2597 28.8289 65.3461 28.6561 65.2942L27.8783 65.0696L28.2067 63.9807L28.9844 64.2054C29.14 64.2573 29.1918 64.3783 29.1227 64.5856L28.9844 65.0523ZM29.1918 67.8175L29.3474 67.2818L29.019 67.1781L29.2264 66.4522C29.3474 66.0374 29.2782 65.7954 28.9153 65.588C29.2782 65.6399 29.4856 65.5362 29.5721 65.2078L29.7449 64.6029C29.8659 64.1709 29.693 63.8425 29.2955 63.7215L27.4117 63.1685L27.2562 63.7042L27.5845 63.7906L26.7722 66.5213L26.4439 66.4176L26.2883 66.9534L27.2216 67.2299L27.7228 65.5535L28.5178 65.7954C28.6906 65.8473 28.7079 65.9683 28.6561 66.1757L28.2586 67.5237L29.1918 67.8002V67.8175Z" fill="white"/>
</g>
<g id="g168">
<path id="path170" d="M25.3724 66.6423L25.8736 65.4844L25.3551 65.2597L25.0785 65.9164L23.9552 65.4325L24.4391 64.3091L25.597 64.8103L25.8044 64.3264L24.6465 63.8252L25.0785 62.8228L26.1674 63.2895L25.9081 63.9116L26.4093 64.1363L26.8932 63.0129L24.4045 61.9414L24.1798 62.4599L24.4909 62.5982L23.3676 65.2251L23.0565 65.0869L22.8318 65.5881L25.3551 66.6769L25.3724 66.6423Z" fill="white"/>
</g>
<g id="g172">
<path id="path174" d="M23.6959 62.2179L23.9724 61.734L23.2293 61.3192L20.9825 63.687L21.8812 60.5415L21.1553 60.1267L20.8788 60.6106L21.1726 60.7834L20.2739 64.1882L20.948 64.5684L23.4367 62.0624L23.7305 62.2352L23.6959 62.2179Z" fill="white"/>
</g>
<g id="g176">
<path id="path178" d="M18.442 63.0303L18.7704 62.5809L18.4939 62.3908L20.153 60.0749L20.4295 60.2823L20.7579 59.8329L19.6864 59.0725L19.358 59.5219L19.6345 59.712L17.9754 62.0279L17.6989 61.8377L17.3705 62.2871L18.442 63.0475V63.0303Z" fill="white"/>
</g>
<g id="g180">
<path id="path182" d="M18.8913 59.1763L19.2543 58.7615L18.563 58.1566L17.0248 59.9195C16.9211 60.0404 16.8001 60.2133 16.6619 60.4034L17.4569 57.2061L16.6964 56.5493L16.3335 56.9641L16.5927 57.1888L14.7262 59.3491L14.4669 59.1244L14.104 59.5392L14.7953 60.1441L16.3162 58.3813C16.4199 58.2603 16.5582 58.0875 16.6791 57.8801L15.9187 61.1292L16.368 61.5267L18.5975 58.9516L18.8568 59.1763H18.8913Z" fill="white"/>
</g>
<g id="g184">
<path id="path186" d="M15.9359 56.5837L16.3507 56.2208L15.7458 55.5295L13.4299 57.5688C13.2744 57.7071 13.1361 57.7244 13.0324 57.6034L12.514 57.0158C12.393 56.8948 12.4448 56.7738 12.6004 56.6183L14.9163 54.5789L14.2768 53.853L13.862 54.216L14.0867 54.4752L12.1683 56.1689C11.7881 56.5146 11.7535 56.9639 12.0646 57.3269L12.6522 57.9836C12.9806 58.3465 13.4299 58.3811 13.8102 58.0355L15.7285 56.3417L15.9532 56.601L15.9359 56.5837Z" fill="white"/>
</g>
<g id="g188">
<path id="path190" d="M12.3757 52.1939L12.8596 51.9174L12.393 51.1224L10.3709 52.2976C10.2154 52.3841 10.0598 52.505 9.8697 52.6433L11.6498 49.8781L11.1486 49.0139L10.6647 49.2904L10.8375 49.5842L8.3661 51.0187L8.19327 50.7249L7.70935 51.0014L8.17599 51.7964L10.1981 50.6212C10.3536 50.5348 10.5092 50.4138 10.6993 50.2756L8.93643 53.1099L9.24752 53.6284L12.1856 51.9174L12.3584 52.2112L12.3757 52.1939Z" fill="white"/>
</g>
<g id="g192">
<path id="path194" d="M7.381 50.3619L7.8822 50.1372L7.76122 49.8434L10.5437 47.683L10.1808 46.8362L6.68968 47.3374L6.56871 47.0609L6.0675 47.2683L6.37859 47.9768L7.64024 47.7522L8.07231 48.7546L7.03534 49.5323L7.381 50.3273V50.3619ZM8.50437 48.4608L8.176 47.7003L9.93884 47.4065L8.50437 48.4608Z" fill="white"/>
</g>
<g id="g196">
<path id="path198" d="M9.17842 45.7993L9.71419 45.6437L9.45495 44.7623L7.20819 45.4191C7.05264 45.4709 6.86253 45.54 6.63785 45.6265L9.04016 43.3624L8.76363 42.4119L8.22787 42.5674L8.31428 42.8958L5.58361 43.6908L5.49719 43.3624L4.96143 43.518L5.22067 44.3994L7.45014 43.7426C7.60569 43.6908 7.81308 43.6217 8.02047 43.518L5.63545 45.8339L5.80828 46.4042L9.07472 45.4536L9.17842 45.782V45.7993Z" fill="white"/>
</g>
<g id="g200">
<path id="path202" d="M4.73681 42.4638L5.96388 42.2736L5.86019 41.6688L5.18616 41.7724L4.97877 40.4935L8.12423 41.8589L8.62543 41.7724L8.22793 39.2146L7.01813 39.4047L7.12183 40.0269L7.77857 39.9232L7.96869 41.133L4.82322 39.7676L4.32202 39.8541L4.73681 42.481V42.4638Z" fill="white"/>
</g>
<g id="g204">
<path id="path206" d="M4.92687 38.8517L7.45016 38.7307C7.89951 38.7134 8.15875 38.4196 8.14147 38.0048L8.08962 36.8814C8.07234 36.4667 7.77853 36.2074 7.32918 36.2247L4.80589 36.3457C4.35654 36.363 4.0973 36.6568 4.11458 37.0715L4.16643 38.1949C4.18371 38.6097 4.47752 38.869 4.90959 38.8517M5.04785 38.1949C4.84046 38.1949 4.71948 38.1431 4.71948 37.9703L4.68491 37.2271C4.68491 37.0543 4.78861 36.9851 4.996 36.9679L7.19091 36.8642C7.41559 36.8642 7.51929 36.916 7.51929 37.0888L7.55385 37.832C7.55385 38.0048 7.46744 38.0739 7.24276 38.0912L5.04785 38.1949Z" fill="white"/>
</g>
<g id="g208">
<path id="path210" d="M6.62059 35.4987L7.29461 35.5505C7.74397 35.5851 8.03777 35.3431 8.07234 34.9283L8.22788 32.9581L7.67483 32.9235V33.2519L4.8059 33.0272V32.6989L4.28741 32.6643L4.18372 33.9951L4.73676 34.0296L4.77133 33.6667L5.96384 33.7531L5.89471 34.6518C5.86014 35.1357 6.13667 35.4641 6.65515 35.4987M6.707 34.8765C6.49961 34.8765 6.39591 34.7901 6.41319 34.6173L6.48232 33.805L7.62299 33.8914L7.55386 34.7037C7.55386 34.8765 7.43288 34.9284 7.2082 34.9111L6.707 34.8765Z" fill="white"/>
</g>
<g id="g212">
<path id="path214" d="M47.6153 66.0548L46.8203 63.6525C46.682 63.2204 46.3364 63.0476 45.9389 63.1858L44.8673 63.5315C44.4698 63.6697 44.297 64.0154 44.4353 64.4302L45.2303 66.8152C45.3685 67.23 45.7142 67.4201 46.1117 67.2818L47.1832 66.9362C47.5807 66.7979 47.7536 66.4523 47.6153 66.0375M46.9585 66.1066C47.0277 66.314 46.9931 66.435 46.8376 66.4868L46.129 66.7288C45.9734 66.7806 45.8697 66.6942 45.8006 66.4868L45.1093 64.3956C45.0402 64.1882 45.0747 64.0673 45.2303 64.0154L45.9389 63.7734C46.0944 63.7216 46.1981 63.7907 46.2672 63.9981L46.9585 66.0893V66.1066Z" fill="white"/>
</g>
<g id="g216">
<path id="path218" fill-rule="evenodd" clip-rule="evenodd" d="M58.8318 47.8732L55.116 46.6634L54.8394 46.577L54.6839 46.819C53.8025 48.288 52.7309 49.6533 51.5039 50.8631L51.2792 51.0878L51.4693 51.347L53.7333 54.4579C51.9705 56.0825 49.983 57.4479 47.8399 58.5021L45.5413 55.3394L45.3685 55.0974L45.1092 55.2184C43.6229 55.8578 42.0502 56.3418 40.4256 56.6183L40.1318 56.6701V60.8353C39.0257 60.9735 37.9023 61.06 36.779 61.06C35.5173 61.06 34.2384 60.9563 32.9767 60.7661V56.5837L32.6829 56.5319C31.1102 56.2208 29.5893 55.7196 28.1203 55.0628L27.8438 54.9419L27.6709 55.1838L25.3896 58.3293C23.2638 57.2405 21.2936 55.8578 19.548 54.1987L21.8121 51.0878L21.9849 50.8458L21.7775 50.6212C20.6196 49.4459 19.6172 48.1324 18.7876 46.7153L18.632 46.4733L18.3555 46.5597L14.6397 47.7695C13.5163 45.6437 12.7041 43.397 12.2201 41.0292L15.8668 39.8367L16.1606 39.733L16.1088 39.4219C15.9187 38.2813 15.8322 37.1233 15.8322 35.9999C15.8322 35.4469 15.8668 34.8766 15.9187 34.2198V33.926L15.6594 33.8396L11.9436 32.6298C12.2547 30.2448 12.9287 27.9462 13.8966 25.7513L17.5432 26.9438L17.837 27.0475L17.9753 26.7709C18.7876 25.1118 19.8246 23.5564 21.0689 22.1737L21.259 21.9491L21.0862 21.7071L18.7876 18.5444C20.464 16.8161 22.3651 15.347 24.4563 14.1718L26.7204 17.2827L26.9105 17.542L27.187 17.4037C28.9326 16.505 30.7645 15.8655 32.6657 15.4853L32.9595 15.4335V11.251C34.2211 11.0609 35.5 10.9572 36.7617 10.9572C37.885 10.9572 39.0084 11.0436 40.1145 11.1819V15.347L40.4083 15.3989C42.3613 15.7445 44.2451 16.3667 46.0079 17.2309L46.2845 17.3691L46.4573 17.1272L48.7213 14.0163C50.8298 15.1569 52.7482 16.6087 54.4419 18.3024L52.1606 21.4479L51.9878 21.6898L52.1952 21.9145C53.4914 23.3317 54.5975 24.939 55.4616 26.6673L55.5999 26.9438L55.8937 26.8401L59.5404 25.6476C60.5428 27.8425 61.2168 30.1411 61.5452 32.5088L57.8294 33.7186L57.5528 33.805L57.5874 34.0988C57.6565 34.7729 57.6738 35.3951 57.6738 36.0172C57.6738 37.1925 57.5701 38.385 57.3627 39.5775L57.3109 39.8886L57.6047 39.9923L61.2514 41.1848C60.7674 43.5352 59.9379 45.7993 58.7972 47.9078M58.1577 39.3701C58.3306 38.2467 58.4343 37.106 58.4343 35.9999C58.4343 35.4469 58.417 34.8939 58.3651 34.3062L62.0982 33.0964L62.392 33.01L62.3574 32.7162C62.0118 30.0547 61.2686 27.4795 60.128 25.0427L59.9897 24.7489L59.6786 24.8526L56.0147 26.0451C55.1851 24.4378 54.1654 22.9687 52.9729 21.6207L55.2715 18.4579L55.4443 18.216L55.2369 17.9913C53.3531 16.0729 51.2101 14.4656 48.8423 13.204L48.5658 13.0484L48.3757 13.3077L46.0944 16.4359C44.4352 15.6408 42.6897 15.0705 40.875 14.7249V10.5251L40.5639 10.4733C39.3195 10.2832 38.0579 10.1968 36.7962 10.1968C35.3963 10.1968 33.9619 10.3178 32.562 10.5424L32.2509 10.5943V14.794C30.488 15.1742 28.777 15.7618 27.1525 16.5741L24.8884 13.4459L24.6983 13.1867L24.4218 13.3422C22.0713 14.6384 19.9455 16.2803 18.0963 18.216L17.8889 18.4407L18.0617 18.6826L20.3776 21.8626C19.2542 23.1589 18.2864 24.5933 17.5087 26.1142L13.8447 24.9217L13.5336 24.818L13.3954 25.1118C12.272 27.5487 11.5288 30.1411 11.2005 32.8026L11.1659 33.0964L11.4424 33.1829L15.1928 34.3926C15.1582 34.9457 15.1236 35.4642 15.1236 35.9481C15.1236 37.0196 15.2101 38.0912 15.3656 39.18L11.7017 40.3725L11.3906 40.4762L11.4424 40.7873C11.9436 43.4315 12.8596 45.9548 14.1385 48.3053L14.2768 48.5645L14.5706 48.4781L18.3037 47.2683C19.0814 48.5472 19.9974 49.7397 21.0344 50.8286L18.753 53.9567L18.5629 54.216L18.7876 54.4407C20.7233 56.3072 22.9182 57.8626 25.3032 59.0552L25.5797 59.1934L25.7525 58.9515L28.0512 55.7887C29.3992 56.3763 30.7818 56.8257 32.2163 57.1368V61.3365L32.5274 61.3883C33.9273 61.613 35.3445 61.734 36.7617 61.734C38.0233 61.734 39.285 61.6476 40.5293 61.4575L40.8404 61.4056V57.2059C42.3094 56.9294 43.7439 56.4973 45.1092 55.927L47.4079 59.107L47.5807 59.349L47.8572 59.2107C50.2768 58.0527 52.489 56.5319 54.4419 54.6826L54.6666 54.4579L54.4765 54.1987L52.2125 51.0705C53.3186 49.9471 54.3037 48.6855 55.1332 47.3547L58.8663 48.5645L59.1601 48.6509L59.2984 48.3917C60.5946 46.0412 61.5279 43.5179 62.0464 40.8737L62.1155 40.5626L61.8044 40.4589L58.1405 39.2664L58.1577 39.3701Z" fill="white"/>
</g>
<g id="g220">
<path id="path222" fill-rule="evenodd" clip-rule="evenodd" d="M41.8083 22.2948C41.2206 22.4331 40.7367 22.2084 40.5639 21.9665C40.3738 21.7245 40.6157 20.9986 40.8231 21.0332C41.0305 21.0678 40.8404 21.206 40.7886 21.5344C40.7367 21.8628 40.9441 21.9492 40.9441 21.9492C42.8452 20.5147 41.3762 20.0654 41.3762 20.0654C41.8947 19.4605 41.6009 18.5618 41.6009 18.5618C40.4256 18.942 40.4084 19.8925 40.4084 19.8925C40.1318 19.4432 39.3714 19.7197 39.1986 20.1518C39.0084 20.5666 39.0603 21.7591 39.0603 21.7591C39.8207 21.9319 39.6479 20.9295 39.9244 20.8949C40.201 20.8604 40.3738 21.8109 39.0776 22.0529C37.7814 22.2948 37.453 21.5517 37.3147 21.1542C37.1592 20.7567 37.6431 20.3937 37.7641 20.9468C37.8678 21.4998 38.3171 21.7072 38.3171 21.7072C38.1443 21.3097 38.8183 20.6703 38.7665 19.9789C38.7146 19.2876 37.5221 19.6506 37.5221 19.6506C37.6777 19.3049 37.6085 18.942 37.4876 18.6309C37.4184 18.4408 37.3147 18.2852 37.211 18.1297V17.4557H37.7468V16.7471H37.211V16.3323H36.5024V16.7471H35.9667V17.4557H36.5024V18.147C36.416 18.2852 36.3123 18.4408 36.2432 18.6136C36.1049 18.9247 36.0531 19.2876 36.2086 19.6333C36.2086 19.6333 35.0161 19.2703 34.9643 19.9617C34.9124 20.653 35.5692 21.2924 35.4136 21.6899C35.4136 21.6899 35.863 21.4825 35.9667 20.9295C36.0704 20.3764 36.5543 20.7221 36.416 21.1369C36.2605 21.5344 35.9321 22.2775 34.6532 22.0356C33.3743 21.7936 33.5298 20.8431 33.8063 20.8776C34.0829 20.9122 33.91 21.9146 34.6705 21.7418C34.6705 21.7418 34.705 20.5666 34.5149 20.1345C34.3248 19.7197 33.5817 19.4432 33.3051 19.8752C33.3051 19.8752 33.3051 18.942 32.1126 18.5445C32.1126 18.5445 31.8188 19.4432 32.3373 20.0481C32.3373 20.0481 30.8683 20.4974 32.7694 21.9319C32.7694 21.9319 32.9768 21.8455 32.9076 21.5171C32.8558 21.1887 32.6657 21.0505 32.8731 21.0159C33.0805 20.9813 33.3051 21.7072 33.1323 21.9492C32.9422 22.1911 32.4756 22.4158 31.8879 22.2775C30.5745 21.9837 31.5596 19.9098 29.8313 19.7024C29.8313 19.7024 30.7473 21.9319 31.8534 23.2454H41.9811C43.0872 21.9146 44.0032 19.7024 44.0032 19.7024C42.2749 19.9098 43.26 21.9837 41.9465 22.2775" fill="white"/>
</g>
<g id="g224">
<path id="path226" fill-rule="evenodd" clip-rule="evenodd" d="M37.5567 27.4104L37.6604 27.4795L37.8505 27.1339L37.6085 26.9956L37.7468 26.7709L37.4184 26.5808L37.2801 26.8055L37.0555 26.6672L36.8654 26.9956L36.9172 27.0302C37.1419 27.0647 37.4011 27.203 37.5567 27.4104ZM40.4947 29.1214C40.2874 29.1041 39.959 29.0004 39.8726 28.8621C39.9417 28.7066 40.0454 28.3955 40.0454 28.0498C40.0454 27.8597 40.0108 27.6523 39.9244 27.4449C39.8553 27.2376 39.6997 27.082 39.4923 26.9956C39.3368 26.9092 39.1813 26.8746 39.0084 26.8746C38.4554 26.8746 37.9887 27.3413 37.9887 27.8943C37.9887 28.2745 38.1961 28.6029 38.5245 28.7757L38.1616 28.8103V28.8621C38.1616 28.8621 38.127 28.914 38.127 28.9658C38.127 29.0177 38.127 29.0695 38.1789 29.1387C38.1961 29.1732 38.2307 29.2078 38.2825 29.2251C38.2653 29.2424 38.2653 29.2596 38.248 29.2769C38.1789 29.2769 37.8332 29.2942 37.8332 29.2942V29.3633V29.3979C37.8332 29.4843 37.8505 29.588 37.9369 29.6744C37.9369 29.6744 37.9196 29.6917 37.9023 29.709H37.6085C37.6085 29.709 37.4703 29.6744 37.4011 29.6744C37.3666 29.6226 37.1073 29.3288 37.09 29.2942C37.0209 29.035 37.0036 28.8276 37.0036 28.6893C37.0036 28.3782 37.1073 28.3091 37.1073 28.3091C37.3666 28.2054 37.4357 28.119 37.4357 28.0498C37.4703 27.9634 37.5048 27.8943 37.5048 27.8079C37.5048 27.7388 37.5048 27.6869 37.453 27.6178C37.4357 27.5659 37.4011 27.5141 37.3493 27.4795C37.1937 27.324 36.9691 27.2203 36.8135 27.2203C36.7444 27.2203 36.658 27.2203 36.6407 27.3067C36.6407 27.3413 36.5888 27.3758 36.5543 27.3585C36.5197 27.3585 36.4851 27.324 36.4679 27.2894C36.4679 27.2894 36.4506 27.1511 36.3296 26.9956C36.3123 26.9956 36.295 26.961 36.2777 26.961C36.0704 26.8573 35.7938 26.8746 35.6037 27.0129C35.379 27.1684 35.2753 27.4277 35.3099 27.7215V27.8943L35.4655 27.7733C35.6383 27.6005 36.0358 27.9116 36.1913 28.0498C36.1913 28.119 36.1395 28.914 36.1395 28.9658C35.8802 29.2251 35.6037 29.5707 35.5346 29.6744C35.4827 29.6744 35.3099 29.709 35.3099 29.709C35.3099 29.709 35.0852 29.709 35.0334 29.709C35.0334 29.709 35.0334 29.709 34.9988 29.6744C35.0852 29.6053 35.1025 29.4843 35.1025 29.3979C35.1025 29.3979 35.1025 29.3806 35.1025 29.3633V29.2942C35.1025 29.2942 34.7569 29.2769 34.6877 29.2769C34.6877 29.2596 34.6877 29.2596 34.6532 29.2251C34.705 29.1905 34.7396 29.1732 34.7569 29.1387C34.7914 29.0868 34.8087 29.0177 34.8087 28.9658C34.8087 28.914 34.8087 28.8794 34.8087 28.8621V28.8103C34.8087 28.8103 34.5149 28.793 34.4285 28.7757C34.7569 28.6029 34.9643 28.2572 34.9643 27.8943C34.9643 27.3413 34.5149 26.8746 33.9446 26.8746C33.7718 26.8746 33.5989 26.9265 33.4434 27.0129C33.236 27.0993 33.0977 27.2376 33.0113 27.4622C32.9249 27.6523 32.8903 27.8597 32.8903 28.0498C32.8903 28.3955 32.994 28.7066 33.0632 28.8794C32.9767 29.0177 32.6311 29.1214 32.441 29.1387H32.3373L32.3546 29.2596C32.441 29.6399 32.7693 29.7781 33.2533 29.6571C33.3397 29.6399 33.4088 29.588 33.4779 29.5362C33.5125 29.588 33.5471 29.6399 33.5644 29.6571C33.5644 29.709 33.4779 30.504 33.4779 30.504C33.4434 30.6941 33.0286 30.7978 32.8212 30.8324H32.7175L32.7348 30.9361C32.8385 31.3163 33.1496 31.4545 33.6335 31.3509C33.91 31.2817 34.1174 31.0052 34.2557 30.5213C34.2557 30.5213 34.2729 30.5386 34.2902 30.5558C34.2902 30.7287 34.2038 31.6965 34.152 31.973C34.1347 32.1631 33.7026 32.2668 33.4952 32.3014H33.3915L33.4088 32.4051C33.5125 32.7853 33.8063 32.9236 34.3075 32.8026C34.8606 32.6643 35.0161 31.6965 35.0507 31.3163V32.4742C35.0507 32.4742 35.1544 32.4742 35.1717 32.4742C35.1717 32.4742 35.1717 32.4742 35.1717 32.5088C35.1717 32.5261 35.1717 32.5434 35.1717 32.5779C35.0161 32.9063 34.8433 33.3038 34.7569 33.4766C34.2211 33.3902 33.7545 33.6667 33.7372 33.684L33.9446 34.0124C33.9446 34.0124 34.1001 33.9087 34.3248 33.8741C34.2038 33.9951 34.0828 34.1507 34.0483 34.2889L34.4285 34.3926C34.4803 34.2371 34.7914 33.9778 34.9988 33.8569C34.9988 33.8569 35.0334 33.8396 35.0507 33.805C35.1544 33.7704 35.4655 33.7704 35.7593 33.7704V33.3729C35.5519 33.3729 35.379 33.3729 35.2408 33.3729L35.5692 32.6643C35.5692 32.6643 35.5692 32.6643 35.5864 32.6643C35.621 32.6816 35.7247 32.7508 35.7247 32.7508C35.7247 32.7508 35.9494 32.6643 36.0185 32.6471C36.0358 32.6989 36.0876 32.8199 36.0876 33.1137C36.0876 33.252 36.0876 33.4075 36.0531 33.6149C36.0185 33.8569 35.9321 34.0297 35.7766 34.1507C35.4655 34.3753 34.9815 34.2716 34.9815 34.2716L34.8087 34.2371L34.8778 34.3926C35.0161 34.721 35.2235 34.9111 35.4655 34.963C35.6901 35.0148 35.8975 34.9111 36.0531 34.8247C36.0531 34.8765 36.0531 34.9111 36.0531 34.963C36.0531 35.4296 36.3642 35.7752 36.3814 35.7925L36.4506 35.8617L36.5197 35.7925C36.5197 35.7925 36.8481 35.4123 36.8481 34.9457C36.8481 34.9111 36.8481 34.8593 36.8481 34.8074C37.0036 34.8938 37.211 34.9975 37.4357 34.9457C37.6777 34.8938 37.8678 34.7037 38.0233 34.3753L38.0924 34.2198L37.9196 34.2544C37.9196 34.2544 37.4357 34.3581 37.1246 34.1334C36.9691 34.0124 36.8654 33.8396 36.8481 33.5976C36.8308 33.3902 36.8135 33.2174 36.8135 33.0964C36.8135 32.8199 36.8481 32.6989 36.8826 32.6298C36.9691 32.6643 37.1765 32.7335 37.1765 32.7335C37.1765 32.7335 37.2283 32.6989 37.2629 32.6816L37.6085 33.3902C37.4703 33.3902 37.3147 33.3902 37.09 33.3902V33.7877C37.4184 33.7877 37.7468 33.7877 37.8332 33.8223C37.8332 33.8223 37.8505 33.8569 37.8678 33.8569C38.0752 33.9778 38.3862 34.2198 38.4381 34.3926L38.8183 34.2889C38.7838 34.1334 38.6628 33.9951 38.5245 33.8741C38.7492 33.926 38.9047 34.0124 38.9047 34.0124L39.1121 33.684C39.1121 33.684 38.6109 33.3902 38.0752 33.4766C38.006 33.3211 37.8332 32.9754 37.6777 32.6643C37.6949 32.6125 37.6949 32.5606 37.6949 32.5088V32.4742H37.7986V31.3163C37.8332 31.6965 37.9887 32.6643 38.5591 32.8026C39.043 32.9236 39.3541 32.7853 39.4578 32.4051V32.3014H39.3886C39.1813 32.2668 38.7492 32.1631 38.7319 31.973C38.6973 31.6965 38.6282 30.7287 38.6109 30.5558C38.6109 30.5558 38.6109 30.5558 38.6282 30.5213C38.7665 30.9879 38.9739 31.2817 39.2504 31.3509C39.7516 31.4718 40.0627 31.3336 40.1491 30.9361V30.8324H40.08C39.8726 30.7978 39.4405 30.6941 39.4232 30.504C39.4232 30.504 39.3541 29.8127 39.3368 29.6571C39.3541 29.6226 39.3886 29.588 39.4232 29.5362C39.4923 29.588 39.5615 29.6399 39.6479 29.6571C40.1491 29.7781 40.4602 29.6399 40.5466 29.2596V29.1559H40.4775L40.4947 29.1214Z" fill="white"/>
</g>
<g id="g228">
<path id="path230" fill-rule="evenodd" clip-rule="evenodd" d="M29.4683 30.936C29.5893 30.7286 29.7103 30.4521 29.7103 30.3657C29.7103 30.0719 29.4511 29.8472 29.1227 29.8472C28.7943 29.8472 28.5351 30.0892 28.5351 30.3657H27.8265C27.8265 29.6917 28.3968 29.1386 29.1227 29.1386C29.8486 29.1386 30.4189 29.6917 30.4189 30.3657C30.4189 30.6941 30.1597 31.178 30.0732 31.299L29.4683 30.936ZM29.9177 33.7358L30.2115 33.3383L31.6114 34.4444L31.0238 32.9581L29.935 32.6989C30.7127 32.3532 31.2485 31.5755 31.2485 30.6768C31.2485 29.4497 30.2634 28.4646 29.0363 28.4646C27.8092 28.4646 26.8241 29.4497 26.8241 30.6768C26.8241 31.5755 27.3599 32.3532 28.1376 32.6989L27.7401 32.647L27.6018 32.8199L28.6733 33.6667L29.019 33.2692L29.3128 33.5112L29.1227 33.7186L29.8486 33.9087V34.479C30.056 34.5136 30.2288 34.7037 30.2288 34.9284C30.2288 35.1703 30.0214 35.3777 29.7794 35.3777C29.6066 35.3777 29.4511 35.274 29.3819 35.1185C29.1573 35.2394 28.7252 35.4814 28.7252 35.4814C28.7252 35.4814 27.5154 36.3455 27.3253 36.4665L27.2734 37.1405L26.9969 40.6317H31.1621L31.2485 37.5035L31.283 36.4147L30.4016 35.395L29.9177 33.7877V33.7358ZM28.5178 35.1357C28.5178 35.1357 29.1918 34.7555 29.2782 34.7037C29.3128 34.6345 29.4165 34.4617 29.4511 34.3926C29.4511 34.3407 29.4511 34.2716 29.4511 34.1852C29.2955 34.1506 29.1227 34.0988 28.9844 34.0642C28.8807 34.237 28.4832 34.8938 28.4832 34.8938L27.4463 35.1185L27.3599 34.7382C27.3599 34.7382 27.5845 34.6864 27.8092 34.6518L28.1721 34.2198L27.1525 33.3902L26.392 34.3926L27.2562 36.0172C27.6364 35.7406 28.4832 35.153 28.5005 35.153M27.6018 32.7853L26.0464 31.5236L25.3378 31.42L25.6316 32.094L27.1525 33.3729L27.6018 32.7853ZM29.8486 34.8938C29.8486 34.8938 29.814 34.8247 29.7794 34.8247C29.7449 34.8247 29.7103 34.8592 29.7103 34.8938C29.7103 34.9284 29.7449 34.9629 29.7794 34.9629C29.814 34.9629 29.8486 34.9284 29.8486 34.8938ZM30.4016 33.9778C30.5572 34.4963 30.7473 35.1012 30.7473 35.153C30.7818 35.1876 31.2485 35.7406 31.5077 36.0345L31.7151 35.9826L31.7842 35.0666C31.6633 34.9802 30.8855 34.358 30.3843 33.9778" fill="white"/>
</g>
<g id="g232">
<path id="path234" fill-rule="evenodd" clip-rule="evenodd" d="M42.1021 32.6127L42.0676 32.4053C41.9293 32.1806 41.5837 31.5411 41.3417 31.0918V33.0966L40.8578 34.3409L40.9096 35.4816L41.6874 35.568C41.8083 34.7557 42.033 33.2694 42.033 33.2694C42.033 33.2694 42.0849 32.8373 42.1021 32.6127ZM43.9514 29.1215C44.66 29.1215 45.2476 29.6746 45.2476 30.3486C45.2476 30.677 44.9884 31.1609 44.902 31.2819L44.2971 30.9189C44.418 30.7116 44.539 30.435 44.539 30.3486C44.539 30.0548 44.2798 29.8301 43.9514 29.8301C43.623 29.8301 43.3638 30.0721 43.3638 30.3486H42.6552C42.6552 29.6746 43.2428 29.1215 43.9514 29.1215ZM42.4824 32.3707C42.4824 32.3707 42.4824 32.4053 42.4824 32.4225C42.4824 32.4225 42.4996 32.4225 42.5169 32.4571L43.2774 32.2497L44.5563 32.1979H44.5909L45.1439 32.4225C45.6797 32.025 46.0253 31.3856 46.0253 30.6597C46.0253 29.4326 45.0402 28.4475 43.8131 28.4475C42.5861 28.4475 41.6009 29.4326 41.6009 30.6597C41.6009 30.7116 41.6009 30.7807 41.6009 30.8325L42.4651 32.3707H42.4824ZM46.1809 33.304L46.5611 33.6669L47.3734 32.8373L46.9932 32.4744H46.5784L46.8031 32.2152L46.5093 31.9213L45.4896 33.0274L45.3859 32.9237C45.2303 32.8719 44.6081 32.6127 44.539 32.5954C44.4699 32.5954 43.3984 32.6299 43.3465 32.6299C43.3119 32.6299 42.6379 32.8201 42.4478 32.8719C42.4132 33.0793 42.396 33.3213 42.396 33.3213L41.9812 36.0865V36.7605L42.033 40.6491H46.2327L45.8871 36.6741L45.8179 35.6717L44.7118 35.568L43.9341 35.2742V36.2939H42.5342V34.8767H43.5539L43.3292 34.4101L43.9687 34.0126L44.0724 33.9607C44.0724 33.9607 44.2279 34.0471 44.418 34.1335L45.5241 33.0102L45.8007 33.2867L44.7983 34.3237C44.9192 34.3755 45.0229 34.4273 45.0575 34.4619C45.1612 34.4101 45.3167 34.3237 45.3167 34.3237L45.5068 34.6693L45.0575 34.9113C45.0575 34.9113 44.2625 34.4965 44.1069 34.4273C44.0378 34.4792 43.9687 34.5138 43.865 34.5829C43.9341 34.7039 43.986 34.8249 44.0205 34.894C44.1415 34.9458 44.7983 35.1878 44.8501 35.1878C44.8847 35.1878 45.455 35.2569 45.9216 35.2915L46.5093 35.2396L46.0772 33.5459L45.8179 33.2867L46.1982 32.9065L46.2327 33.304H46.1809ZM42.8972 35.2742C42.8972 35.4643 42.8972 35.7236 42.8972 35.9137C43.0873 35.9137 43.3465 35.9137 43.5366 35.9137C43.5366 35.7236 43.5366 35.4816 43.5366 35.2742C43.3292 35.2742 43.0873 35.2742 42.8972 35.2742Z" fill="white"/>
</g>
<g id="g236">
<path id="path238" fill-rule="evenodd" clip-rule="evenodd" d="M37.6086 50.6557C37.8333 50.673 38.2654 50.7248 38.5073 50.7421C38.49 50.9668 38.4382 51.3988 38.4209 51.6408C38.1962 51.6235 37.7469 51.5717 37.5222 51.5544C37.5395 51.3297 37.5913 50.8804 37.6086 50.6557ZM35.3619 50.6557C35.3791 50.8804 35.431 51.3297 35.4483 51.5544C35.2236 51.5717 34.7742 51.6235 34.5496 51.6408C34.5323 51.4161 34.4804 50.9668 34.4632 50.7421C34.6878 50.7248 35.1372 50.673 35.3619 50.6557ZM38.4036 47.5966H38.1444L38.3518 47.3547L38.058 47.1127L36.5025 48.9965L34.9471 47.1127L34.6533 47.3547L34.8607 47.5966H34.5669H34.5496L34.1693 47.9077L34.9125 48.8064L35.3273 48.4781L35.3791 48.1842L36.2951 49.2731L35.5001 50.2409L34.1002 50.3792L34.2558 52.0556L35.9322 51.9L35.7939 50.5001L36.5544 49.6014L37.3148 50.5001L37.1765 51.9L38.853 52.0556L39.0085 50.3792L37.6086 50.2409L36.8136 49.2903L37.7296 48.1842L37.7814 48.4781L38.1962 48.8064L38.9394 47.9077L38.5246 47.5794H38.49L38.4036 47.5966ZM36.2951 46.9226V47.1991H36.0186V47.5794H36.2951V47.8559H36.6926V47.5794H36.9692V47.1991H36.6926V46.9226H36.2951Z" fill="white"/>
</g>
<g id="g240">
<path id="path242" fill-rule="evenodd" clip-rule="evenodd" d="M28.4487 43.7427H29.019V42.7921H31.0238V41.2194H26.8241V42.7921H28.4314V43.7427H28.4487ZM43.934 43.7427H44.5044V42.7921H46.1117V41.2194H41.912V42.7921H43.9168V43.7427H43.934ZM34.6532 43.7427H35.2235V42.7921H37.7468V43.7427H38.3171V42.7921H39.1467V39.059L39.9072 38.0912V36.5012H38.8011V37.4517H37.9888V36.5012H36.8827V37.4517H36.0704V36.5012H34.9643V37.4517H34.152V36.5012H33.0459V38.0912L33.8063 39.059V42.7921H34.6186V43.7427H34.6532ZM31.2831 51.4854C31.2831 51.4854 31.2831 51.4335 31.2831 51.4162C31.2831 50.483 31.5077 49.6015 31.9052 48.8411C32.7867 47.1128 34.5149 45.9376 36.5024 45.9376C38.49 45.9376 40.3911 47.2338 41.2206 49.1003C41.5317 49.8089 41.7218 50.5866 41.7218 51.4162C41.7218 51.5026 41.7218 51.6063 41.7218 51.6927C40.1491 52.3322 38.4727 52.6779 36.7963 52.6779C34.8433 52.6779 32.9768 52.2458 31.3003 51.4854M45.2302 43.5007V44.4513H43.2427V43.5007H42.1366V44.4513H40.1491V43.5007H39.043V44.4513H37.0555V43.5007H35.9494V44.4513H33.9619V43.5007H32.8558V44.4513H30.8683V43.5007H29.7622V44.4513H27.7747V43.5007H26.3229V44.6759H26.8759V48.1671C25.2168 46.2141 24.2144 43.7945 24.2144 41.2194V24.6798H49.3781V41.2194C49.3781 43.9846 48.2374 46.6289 46.1635 48.7374V44.6759H46.7166V43.5007H45.2475H45.2302ZM49.7065 23.9712H23.4885V41.2194C23.4885 47.8214 29.5721 53.4037 36.779 53.4037C40.1318 53.4037 43.502 52.1075 46.0253 49.8435C48.635 47.5103 50.0694 44.434 50.0694 41.2194V23.9712H49.7065Z" fill="white"/>
</g>
<g id="g244">
<path id="path246" fill-rule="evenodd" clip-rule="evenodd" d="M0.761719 36C0.761719 55.8579 16.9211 72 36.7617 72C56.6023 72 72.7617 55.8579 72.7617 36C72.7617 16.1421 56.6196 0 36.7617 0C16.9038 0 0.761719 16.1594 0.761719 36ZM1.47031 36C1.47031 16.5396 17.3013 0.708593 36.7617 0.708593C56.2221 0.708593 72.0531 16.5396 72.0531 36.0173C72.0531 55.495 56.2221 71.3087 36.7617 71.3087C17.3013 71.3087 1.47031 55.4604 1.47031 36Z" fill="white"/>
</g>
</g>
</g>
</g>
<defs>
<clipPath id="clip0_1106_16620">
<rect width="72" height="72" fill="white" transform="translate(0.761719)"/>
</clipPath>
</defs>
</svg>
