<svg height="20" viewBox="0 0 237 36" fill="none" xmlns="http://www.w3.org/2000/svg">
<g id="Layer_1" clip-path="url(#clip0_1106_16739)">
<path id="Vector" d="M96.8453 10.2731V0.761963H98.2295V10.2731C98.2295 12.9905 100.274 15.0604 103.042 15.0604C105.81 15.0604 107.829 12.9905 107.829 10.2731V0.761963H109.214V10.2731C109.214 13.7651 106.534 16.3937 103.042 16.3937C99.5501 16.3937 96.8453 13.7651 96.8453 10.2731Z" fill="#468E99"/>
<path id="Vector_2" d="M123.03 9.24456V16.1271H121.734V9.62552C121.734 7.28901 120.198 5.7525 117.874 5.7525C115.55 5.7525 113.836 7.3144 113.836 9.67631V16.1398H112.541V4.77472H113.836V6.90806C114.687 5.37155 116.236 4.50806 118.242 4.50806C121.099 4.50806 123.017 6.37472 123.017 9.25726" fill="#468E99"/>
<path id="Vector_3" d="M126.42 4.77454H127.715V16.1396H126.42V4.77454ZM126.128 1.1555C126.128 0.64756 126.547 0.241211 127.068 0.241211C127.588 0.241211 128.02 0.64756 128.02 1.1555C128.02 1.66343 127.601 2.09518 127.068 2.09518C126.534 2.09518 126.128 1.68883 126.128 1.1555Z" fill="#468E99"/>
<path id="Vector_4" d="M141.683 4.77466L136.515 16.1397H135.106L129.937 4.77466H131.436L135.855 14.6413L140.236 4.77466H141.683Z" fill="#468E99"/>
<path id="Vector_5" d="M143.868 9.85409H152.985C152.718 7.42869 150.839 5.71441 148.414 5.71441C145.988 5.71441 144.134 7.42869 143.868 9.85409ZM154.306 11.0096H143.88C144.147 13.4604 146.103 15.2001 148.718 15.2001C150.56 15.2001 152.147 14.3112 152.972 13.0414L153.887 13.8033C152.795 15.4033 150.903 16.4065 148.668 16.4065C145.15 16.4065 142.522 13.816 142.522 10.4382C142.522 7.06044 145.061 4.50806 148.452 4.50806C151.842 4.50806 154.357 7.04774 154.357 10.4636L154.318 11.0223" fill="#468E99"/>
<path id="Vector_6" d="M162.966 4.59692V5.93026H162.636C160.033 5.93026 158.357 7.61915 158.357 10.2731V16.1398H157.061V4.7747H158.357V7.162C159.182 5.562 160.693 4.59692 162.636 4.59692H162.966Z" fill="#468E99"/>
<path id="Vector_7" d="M164.172 14.5904L164.909 13.6507C165.76 14.6158 167.068 15.2126 168.629 15.2126C170.407 15.2126 171.753 14.4126 171.753 13.1554C171.753 11.7713 170.255 11.3777 168.617 10.9713C166.699 10.4761 164.566 9.91734 164.566 7.66972C164.566 5.59988 166.509 4.48242 168.731 4.48242C170.445 4.48242 171.83 5.15544 172.744 6.06972L172.007 7.0221C171.245 6.19671 170.09 5.66337 168.756 5.66337C167.169 5.66337 165.899 6.39988 165.899 7.58083C165.899 8.99036 167.41 9.38401 169.112 9.79036C171.004 10.2602 173.099 10.7935 173.099 13.0285C173.099 15.2634 171.156 16.3935 168.668 16.3935C166.75 16.3935 165.188 15.6316 164.185 14.5904" fill="#468E99"/>
<path id="Vector_8" d="M175.791 4.77454H177.087V16.1396H175.791V4.77454ZM175.499 1.1555C175.499 0.64756 175.918 0.241211 176.439 0.241211C176.96 0.241211 177.391 0.64756 177.391 1.1555C177.391 1.66343 176.972 2.09518 176.439 2.09518C175.906 2.09518 175.499 1.68883 175.499 1.1555Z" fill="#468E99"/>
<path id="Vector_9" d="M190.585 10.4508C190.585 7.77141 188.579 5.75236 185.912 5.75236C183.245 5.75236 181.252 7.7841 181.252 10.4508C181.252 13.1174 183.258 15.1492 185.912 15.1492C188.566 15.1492 190.585 13.1174 190.585 10.4508ZM191.868 0.0888672V16.127H190.572V13.4984C189.633 15.2635 187.855 16.3936 185.671 16.3936C182.369 16.3936 179.893 13.8285 179.893 10.4508C179.893 7.07299 182.369 4.49522 185.671 4.49522C187.855 4.49522 189.633 5.62537 190.572 7.39045V0.0888672H191.868Z" fill="#468E99"/>
<path id="Vector_10" d="M205.353 10.4509C205.353 7.78425 203.347 5.7525 200.68 5.7525C198.014 5.7525 196.02 7.78425 196.02 10.4509C196.02 13.1176 198.026 15.1493 200.68 15.1493C203.334 15.1493 205.353 13.1176 205.353 10.4509ZM206.649 4.77472V16.1398H205.353V13.5112C204.414 15.2763 202.636 16.4065 200.452 16.4065C197.15 16.4065 194.674 13.8414 194.674 10.4636C194.674 7.08583 197.15 4.50806 200.452 4.50806C202.636 4.50806 204.414 5.63822 205.353 7.40329V4.77472H206.649Z" fill="#468E99"/>
<path id="Vector_11" d="M220.134 10.4508C220.134 7.77141 218.128 5.75236 215.461 5.75236C212.795 5.75236 210.801 7.7841 210.801 10.4508C210.801 13.1174 212.807 15.1492 215.461 15.1492C218.115 15.1492 220.134 13.1174 220.134 10.4508ZM221.429 0.0888672V16.127H220.134V13.4984C219.195 15.2635 217.417 16.3936 215.233 16.3936C211.931 16.3936 209.468 13.8285 209.468 10.4508C209.468 7.07299 211.944 4.49522 215.233 4.49522C217.417 4.49522 219.195 5.62537 220.134 7.39045V0.0888672H221.429Z" fill="#468E99"/>
<path id="Vector_12" d="M106.991 29.9557C106.991 27.289 104.985 25.2572 102.306 25.2572C99.6263 25.2572 97.6453 27.289 97.6453 29.9557C97.6453 32.6223 99.6517 34.6541 102.306 34.6541C104.96 34.6541 106.991 32.6223 106.991 29.9557ZM108.274 19.5938V35.6445H106.979V33.016C106.039 34.7811 104.261 35.9112 102.077 35.9112C98.7755 35.9112 96.2993 33.3461 96.2993 29.9557C96.2993 26.5652 98.7755 24.0128 102.077 24.0128C104.261 24.0128 106.039 25.143 106.979 26.908V19.5938H108.274Z" fill="#468E99"/>
<path id="Vector_13" d="M112.426 29.3587H121.544C121.277 26.9333 119.398 25.219 116.972 25.219C114.547 25.219 112.693 26.9333 112.426 29.3587ZM122.852 30.5143H112.426C112.693 32.9651 114.649 34.7048 117.264 34.7048C119.106 34.7048 120.693 33.8159 121.518 32.546L122.433 33.3079C121.341 34.9079 119.449 35.9111 117.214 35.9111C113.696 35.9111 111.068 33.3206 111.068 29.9429C111.068 26.5651 113.607 24.0127 116.998 24.0127C120.388 24.0127 122.903 26.5524 122.903 29.9683L122.864 30.527" fill="#468E99"/>
<path id="Vector_14" d="M130.522 27.9492C130.522 23.4286 134.001 20 138.585 20C141.455 20 143.906 21.3333 145.341 23.454L143.068 24.8508C142.115 23.454 140.477 22.5524 138.585 22.5524C135.55 22.5524 133.239 24.8635 133.239 27.9492C133.239 31.0349 135.55 33.346 138.585 33.346C140.477 33.346 142.103 32.4571 143.068 31.0476L145.341 32.4571C143.918 34.5778 141.468 35.9111 138.585 35.9111C133.988 35.9111 130.522 32.4825 130.522 27.9619" fill="#468E99"/>
<path id="Vector_15" d="M156.172 29.9556C156.172 27.9492 154.674 26.4127 152.68 26.4127C150.687 26.4127 149.163 27.9492 149.163 29.9556C149.163 31.9619 150.661 33.4984 152.68 33.4984C154.699 33.4984 156.172 31.9619 156.172 29.9556ZM158.674 24.2667V35.6317H156.172V34.0063C155.233 35.1873 153.861 35.8984 152.185 35.8984C148.972 35.8984 146.585 33.3333 146.585 29.9556C146.585 26.5778 148.972 24.0127 152.185 24.0127C153.861 24.0127 155.233 24.7238 156.172 25.9048V24.2794H158.674V24.2667Z" fill="#468E99"/>
<path id="Vector_16" d="M172.464 28.4825V35.6317H169.963V29.3079C169.963 27.5683 168.845 26.4127 167.131 26.4127C165.328 26.4127 164.122 27.5936 164.122 29.3587V35.6444H161.62V24.2794H164.122V25.7524C165.036 24.6222 166.344 24.0127 167.956 24.0127C170.649 24.0127 172.464 25.7905 172.464 28.4952" fill="#468E99"/>
<path id="Vector_17" d="M178.331 26.5396V31.911C178.331 32.9777 178.928 33.4983 179.982 33.4983C180.604 33.4983 181.099 33.3206 181.544 33.092V35.4285C180.922 35.746 180.299 35.8983 179.474 35.8983C177.023 35.8983 175.842 34.5142 175.842 32.3174V26.5396H173.925V24.2666H175.842V21.3333H178.344V24.2666H181.556V26.5396H178.344H178.331Z" fill="#468E99"/>
<path id="Vector_18" d="M192.337 29.9556C192.337 27.9492 190.839 26.4127 188.845 26.4127C186.852 26.4127 185.328 27.9492 185.328 29.9556C185.328 31.9619 186.826 33.4984 188.845 33.4984C190.864 33.4984 192.337 31.9619 192.337 29.9556ZM194.839 24.2667V35.6317H192.337V34.0063C191.398 35.1873 190.026 35.8984 188.35 35.8984C185.137 35.8984 182.75 33.3333 182.75 29.9556C182.75 26.5778 185.137 24.0127 188.35 24.0127C190.026 24.0127 191.398 24.7238 192.337 25.9048V24.2794H194.839V24.2667Z" fill="#468E99"/>
<path id="Vector_19" d="M207.322 29.9557C207.322 27.9493 205.823 26.4128 203.829 26.4128C201.836 26.4128 200.312 27.9493 200.312 29.9557C200.312 31.962 201.823 33.4985 203.829 33.4985C205.836 33.4985 207.322 31.962 207.322 29.9557ZM209.899 29.9557C209.899 33.3461 207.499 35.8985 204.312 35.8985C202.636 35.8985 201.239 35.1874 200.299 33.9811V35.6318H197.798V19.5938H200.299V25.9176C201.239 24.7112 202.636 24.0001 204.312 24.0001C207.499 24.0001 209.899 26.5652 209.899 29.943" fill="#468E99"/>
<path id="Vector_20" d="M218.217 24.0889V26.6539H217.798C215.563 26.6539 214.255 28.0127 214.255 30.1079V35.6317H211.753V24.2666H214.255V25.9428C215.106 24.7873 216.299 24.0889 217.798 24.0889H218.217Z" fill="#468E99"/>
<path id="Vector_21" d="M220.071 24.2793H222.572V35.6444H220.071V24.2793ZM219.728 20.7746C219.728 19.8603 220.414 19.1873 221.315 19.1873C222.217 19.1873 222.915 19.8603 222.915 20.7746C222.915 21.6888 222.229 22.3492 221.315 22.3492C220.401 22.3492 219.728 21.6634 219.728 20.7746Z" fill="#468E99"/>
<path id="Vector_22" d="M234.458 29.9556C234.458 27.9492 232.96 26.4127 230.966 26.4127C228.972 26.4127 227.449 27.9492 227.449 29.9556C227.449 31.9619 228.947 33.4984 230.966 33.4984C232.985 33.4984 234.458 31.9619 234.458 29.9556ZM236.96 24.2667V35.6317H234.458V34.0063C233.518 35.1873 232.147 35.8984 230.471 35.8984C227.258 35.8984 224.871 33.3333 224.871 29.9556C224.871 26.5778 227.258 24.0127 230.471 24.0127C232.147 24.0127 233.518 24.7238 234.458 25.9048V24.2794H236.96V24.2667Z" fill="#468E99"/>
<path id="Vector_23" d="M0.680298 21.7779V0.609619H10.3057V21.6255C10.3057 24.5461 12.4771 26.7176 15.3978 26.7176C18.3184 26.7176 20.4898 24.5461 20.4898 21.6255V0.609619H30.1152V21.7779C30.1152 29.8922 23.766 35.9874 15.3978 35.9874C7.0295 35.9874 0.680298 29.8922 0.680298 21.7779Z" fill="#468E99"/>
<path id="Vector_24" d="M33.7469 17.9937C33.7469 7.75873 41.7089 0 52.2485 0C58.8517 0 64.4517 3.02222 67.7279 7.80952L59.4104 12.9524C57.8485 10.6794 55.2835 9.26984 52.2485 9.26984C47.3596 9.26984 43.6263 13.0032 43.6263 17.9937C43.6263 22.9841 47.3596 26.7175 52.2485 26.7175C55.2708 26.7175 57.8485 25.3079 59.4104 23.0349L67.7279 28.1778C64.4517 32.9651 58.8517 35.9873 52.2485 35.9873C41.7089 35.9873 33.7469 28.2286 33.7469 17.9937Z" fill="#468E99"/>
<path id="Vector_25" d="M82.7247 0H81.3279V35.9873H82.7247V0Z" fill="#005B67"/>
</g>
<defs>
<clipPath id="clip0_1106_16739">
<rect width="236.279" height="36" fill="white" transform="translate(0.680298)"/>
</clipPath>
</defs>
</svg>
