<svg height="20" viewBox="0 0 111 40" fill="none" xmlns="http://www.w3.org/2000/svg">
<g id="Layer_1" clip-path="url(#clip0_1106_16477)">
<g id="Group">
<path id="Vector" d="M18.2596 14.7895C18.2596 20.444 15.0241 23.4243 9.44105 23.4243C3.85799 23.4243 0.234619 20.7502 0.234619 14.7895V0.469482H3.21497V14.7895C3.21497 18.7497 5.47065 20.9135 9.43084 20.9135C13.391 20.9135 15.2691 18.7497 15.2691 14.7895V0.469482H18.2494V14.7895H18.2596Z" fill="#9D9D9C"/>
<path id="Vector_2" d="M22.771 0.469482H25.9147L33.6717 20.1276L41.388 0.469482H44.5316V22.8834H42.3984V3.52128H42.3372L34.672 22.8834H32.6613L24.9756 3.52128H24.9144V22.8834H22.771V0.469482Z" fill="#C2063B"/>
<path id="Vector_3" d="M58.3413 0C65.3737 0 68.8848 5.55244 68.8848 11.6764C68.8848 17.8005 65.3737 23.3529 58.3413 23.3529C51.3089 23.3529 47.757 17.8005 47.757 11.6764C47.757 5.55244 51.2783 0 58.3413 0ZM58.3413 21.5361C64.2408 21.5361 66.7516 16.5757 66.7516 11.6764C66.7516 6.77724 64.2408 1.81679 58.3413 1.81679C52.4418 1.81679 49.9004 6.77724 49.9004 11.6764C49.9004 16.5757 52.4112 21.5361 58.3413 21.5361Z" fill="#C2063B"/>
<path id="Vector_4" d="M72.1611 0.469482H74.5495L87.6038 19.4335H87.6651V0.469482H89.7983V22.8834H87.4201L74.3556 3.91934H74.2943V22.8834H72.1611V0.469482Z" fill="#C2063B"/>
<path id="Vector_5" d="M95.2691 15.5142C95.1772 20.1276 98.5046 21.5463 102.587 21.5463C104.945 21.5463 108.517 20.2603 108.517 16.9941C108.517 14.4527 105.976 13.4422 103.904 12.9421L98.9128 11.7173C96.2795 11.0538 93.8605 9.79842 93.8605 6.31794C93.8503 4.11329 95.2691 0 101.577 0C106.006 0 109.895 2.38836 109.865 6.97117H107.731C107.609 3.55193 104.782 1.827 101.607 1.827C98.6883 1.827 95.9835 2.95994 95.9835 6.28732C95.9835 8.3899 97.5554 9.26767 99.3721 9.70656L104.833 11.0538C108.007 11.901 110.64 13.2789 110.64 16.9533C110.64 18.4945 110.018 23.3631 102.067 23.3631C96.7592 23.3631 92.8705 20.9747 93.1155 15.5142H95.2486H95.2691Z" fill="#C2063B"/>
<path id="Vector_6" d="M18.2189 26.7212H0.193848V28.6196H18.2189V26.7212Z" fill="#C2063B"/>
</g>
<g id="Group_2">
<path id="Vector_7" d="M24.0469 29.9976V34.7641C24.0469 35.3255 24.149 35.7848 24.3633 36.1624C24.6797 36.7238 25.2003 36.9993 25.9454 36.9993C26.8333 36.9993 27.4457 36.6931 27.7622 36.091C27.9357 35.7643 28.0173 35.3152 28.0173 34.7641V29.9976H29.0686V34.3252C29.0686 35.2744 28.9359 35.9991 28.6808 36.5094C28.2112 37.4382 27.3233 37.9077 26.0168 37.9077C24.7104 37.9077 23.8224 37.4382 23.3631 36.5094C23.1079 35.9991 22.9752 35.2744 22.9752 34.3252V29.9976H24.0265H24.0469Z" fill="#9D9D9C"/>
<path id="Vector_8" d="M30.5486 32.0798H31.4468V32.8759C31.7121 32.5493 31.9979 32.3145 32.2939 32.1716C32.5899 32.0287 32.9165 31.9573 33.284 31.9573C34.0801 31.9573 34.6211 32.2329 34.8966 32.7942C35.0497 33.1004 35.1314 33.5291 35.1314 34.1007V37.7036H34.172V34.1619C34.172 33.8149 34.1209 33.5393 34.0189 33.3352C33.8556 32.9882 33.5494 32.8146 33.1105 32.8146C32.8859 32.8146 32.7022 32.8351 32.5593 32.8861C32.3041 32.9677 32.0694 33.1208 31.8755 33.3454C31.7224 33.5291 31.6203 33.723 31.5693 33.917C31.5182 34.1109 31.4978 34.3967 31.4978 34.7641V37.7036H30.5486V32.09V32.0798Z" fill="#9D9D9C"/>
<path id="Vector_9" d="M36.5195 29.9976H37.479V31.0693H36.5195V29.9976ZM36.5195 32.1103H37.479V37.7036H36.5195V32.1103Z" fill="#9D9D9C"/>
<path id="Vector_10" d="M39.3672 32.0796L40.8676 36.6522L42.4292 32.0796H43.4601L41.3473 37.6933H40.3369L38.2649 32.0796H39.357H39.3672Z" fill="#9D9D9C"/>
<path id="Vector_11" d="M47.7468 32.2429C48.1143 32.4266 48.4 32.6716 48.594 32.9676C48.7777 33.2534 48.9104 33.58 48.9716 33.9576C49.0226 34.2128 49.0533 34.6313 49.0533 35.1926H44.9706C44.991 35.7642 45.1237 36.2235 45.3687 36.5705C45.6136 36.9176 46.0015 37.0911 46.5322 37.0911C47.0221 37.0911 47.41 36.9278 47.706 36.6012C47.8693 36.4072 47.9816 36.1929 48.053 35.9479H48.9818C48.9614 36.1521 48.8798 36.3868 48.7369 36.642C48.6042 36.8972 48.4409 37.1013 48.2776 37.2646C47.9918 37.5402 47.6447 37.7341 47.2263 37.8362C47.0017 37.8974 46.7466 37.9178 46.4608 37.9178C45.7667 37.9178 45.1747 37.6627 44.695 37.1523C44.2153 36.642 43.9703 35.9275 43.9703 35.0191C43.9703 34.1107 44.2153 33.3861 44.7052 32.8247C45.1951 32.2633 45.828 31.9775 46.6139 31.9775C47.0119 31.9775 47.3896 32.0694 47.7672 32.2531L47.7468 32.2429ZM48.0836 34.4476C48.0428 34.0393 47.9612 33.7127 47.8183 33.4677C47.5631 33.0186 47.1344 32.7839 46.5322 32.7839C46.1035 32.7839 45.7463 32.937 45.4503 33.2534C45.1543 33.5698 45.0012 33.9678 44.991 34.4476H48.0836Z" fill="#9D9D9C"/>
<path id="Vector_12" d="M50.2781 32.0797H51.1763V33.0493C51.2477 32.8554 51.4314 32.6309 51.7172 32.3553C52.003 32.0899 52.3296 31.947 52.7073 31.947C52.7277 31.947 52.7583 31.947 52.7991 31.947C52.84 31.947 52.9114 31.9572 53.0135 31.9674V32.9677C52.9522 32.9575 52.9012 32.9473 52.8604 32.9473C52.8093 32.9473 52.7583 32.9473 52.7073 32.9473C52.2276 32.9473 51.8703 33.1004 51.6152 33.4066C51.36 33.7128 51.2273 34.0598 51.2273 34.4681V37.7036H50.2781V32.0899V32.0797Z" fill="#9D9D9C"/>
<path id="Vector_13" d="M54.3913 35.9378C54.422 36.2542 54.5036 36.489 54.6363 36.6625C54.8813 36.9687 55.2997 37.1218 55.9019 37.1218C56.2592 37.1218 56.5756 37.0504 56.841 36.8973C57.1063 36.7442 57.2492 36.5094 57.2492 36.193C57.2492 35.948 57.137 35.7643 56.9226 35.6418C56.7797 35.5704 56.5143 35.4785 56.1061 35.3765L55.3406 35.1825C54.8507 35.0601 54.4934 34.9274 54.2689 34.7845C53.8606 34.5293 53.6463 34.1721 53.6463 33.723C53.6463 33.1922 53.8402 32.7636 54.228 32.4369C54.6159 32.1103 55.1364 31.947 55.7897 31.947C56.647 31.947 57.2696 32.192 57.6473 32.6921C57.882 33.0085 58.0045 33.3453 57.9943 33.7128H57.1063C57.0859 33.4984 57.0145 33.3045 56.8716 33.131C56.647 32.886 56.2694 32.7636 55.7182 32.7636C55.3508 32.7636 55.0752 32.835 54.8915 32.9677C54.7078 33.1004 54.6057 33.2841 54.6057 33.5086C54.6057 33.7536 54.7282 33.9475 54.9731 34.0904C55.116 34.1721 55.3304 34.2537 55.6059 34.315L56.2388 34.4681C56.9328 34.6314 57.3921 34.7947 57.6269 34.9478C57.9943 35.1928 58.178 35.5704 58.178 36.0909C58.178 36.6115 57.9841 37.0197 57.6065 37.3872C57.2186 37.7546 56.6368 37.9281 55.8509 37.9281C55.0038 37.9281 54.4016 37.7342 54.0545 37.3566C53.6973 36.9789 53.5136 36.5094 53.4932 35.948H54.4016L54.3913 35.9378Z" fill="#9D9D9C"/>
<path id="Vector_14" d="M59.1987 29.9976H60.1582V31.0693H59.1987V29.9976ZM59.1987 32.1103H60.1582V37.7036H59.1987V32.1103Z" fill="#9D9D9C"/>
<path id="Vector_15" d="M61.7708 30.5181H62.7302V32.0899H63.6284V32.8656H62.7302V36.5298C62.7302 36.7237 62.7915 36.8564 62.9344 36.9279C63.0058 36.9687 63.1283 36.9891 63.3018 36.9891C63.3426 36.9891 63.3937 36.9891 63.4447 36.9891C63.4957 36.9891 63.557 36.9891 63.6284 36.9687V37.7138C63.5161 37.7444 63.4039 37.7648 63.2916 37.7852C63.1793 37.7954 63.0466 37.8056 62.9139 37.8056C62.4751 37.8056 62.1791 37.6934 62.0158 37.4688C61.8525 37.2443 61.781 36.9483 61.781 36.591V32.8758H61.0155V32.1001H61.781V30.5283L61.7708 30.5181Z" fill="#9D9D9C"/>
<path id="Vector_16" d="M68.0786 32.0796H69.1196C68.9869 32.4368 68.691 33.2636 68.2317 34.5496C67.8846 35.5192 67.5988 36.3052 67.3743 36.9074C66.8333 38.3363 66.4455 39.2141 66.2209 39.5305C65.9964 39.8469 65.6085 40 65.0676 40C64.9349 40 64.8328 40 64.7614 39.9796C64.6899 39.9694 64.5981 39.9489 64.496 39.9183V39.061C64.6593 39.1018 64.7818 39.1324 64.8532 39.1426C64.9247 39.1528 64.9859 39.163 65.0472 39.163C65.2207 39.163 65.3534 39.1324 65.435 39.0814C65.5167 39.0303 65.5881 38.9487 65.6392 38.867C65.6596 38.8364 65.7208 38.6935 65.8229 38.4384C65.9249 38.1832 66.0066 37.9893 66.0576 37.8668L63.9755 32.0796H65.0472L66.5475 36.6522L68.0581 32.0796H68.0786Z" fill="#9D9D9C"/>
<path id="Vector_17" d="M76.9992 32.6412C77.4994 33.1209 77.7443 33.8354 77.7443 34.7642C77.7443 35.693 77.53 36.4177 77.0911 37.0096C76.6522 37.6016 75.9786 37.8976 75.06 37.8976C74.2945 37.8976 73.6821 37.6322 73.233 37.1117C72.7839 36.5912 72.5593 35.8869 72.5593 35.0091C72.5593 34.0701 72.7941 33.3148 73.2738 32.7535C73.7535 32.1921 74.3863 31.9165 75.1927 31.9165C75.9071 31.9165 76.5195 32.1615 77.0196 32.6412H76.9992ZM76.4072 36.3768C76.642 35.9073 76.7543 35.3766 76.7543 34.7948C76.7543 34.2742 76.6726 33.8456 76.5093 33.519C76.2439 32.9984 75.7948 32.7432 75.1518 32.7432C74.5803 32.7432 74.172 32.9678 73.9066 33.4067C73.6514 33.8456 73.5187 34.3763 73.5187 34.9989C73.5187 35.6215 73.6514 36.091 73.9066 36.4891C74.1618 36.8872 74.5802 37.0811 75.1416 37.0811C75.7642 37.0811 76.1827 36.8463 76.4175 36.3666L76.4072 36.3768Z" fill="#9D9D9C"/>
<path id="Vector_18" d="M79.3365 30.365C79.5611 30.0486 79.9796 29.8853 80.6124 29.8853C80.6736 29.8853 80.7348 29.8853 80.7961 29.8853C80.8573 29.8853 80.9288 29.8853 81.0104 29.9057V30.763C80.9084 30.763 80.8369 30.7528 80.7961 30.7528C80.7553 30.7528 80.7144 30.7528 80.6736 30.7528C80.3878 30.7528 80.2143 30.8243 80.1531 30.9774C80.0918 31.1305 80.0714 31.5081 80.0714 32.1103H81.0206V32.8554H80.0714V37.7036H79.1426V32.8554H78.3567V32.1103H79.1426V31.2325C79.1528 30.8447 79.2243 30.5589 79.3467 30.3752L79.3365 30.365Z" fill="#9D9D9C"/>
<path id="Vector_19" d="M84.9706 29.9976H86.4608L88.6756 36.5094L90.8803 29.9976H92.3704V37.7036H91.3702V33.1514C91.3702 32.9983 91.3702 32.7329 91.3804 32.3655C91.3804 31.9981 91.3906 31.6102 91.3906 31.1917L89.1859 37.6934H88.1551L85.93 31.1917V31.4265C85.93 31.6204 85.93 31.9062 85.9504 32.2941C85.9606 32.6819 85.9708 32.9677 85.9708 33.1514V37.7036H84.9706V29.9976Z" fill="#9D9D9C"/>
<path id="Vector_20" d="M97.8923 32.6412C98.3924 33.1209 98.6374 33.8354 98.6374 34.7642C98.6374 35.693 98.423 36.4177 97.9842 37.0096C97.5453 37.6016 96.8716 37.8976 95.953 37.8976C95.1875 37.8976 94.5751 37.6322 94.126 37.1117C93.6769 36.5912 93.4524 35.8869 93.4524 35.0091C93.4524 34.0701 93.6871 33.3148 94.1669 32.7535C94.6466 32.1921 95.2794 31.9165 96.0857 31.9165C96.8002 31.9165 97.4126 32.1615 97.9127 32.6412H97.8923ZM97.3003 36.3768C97.5351 35.9073 97.6473 35.3766 97.6473 34.7948C97.6473 34.2742 97.5657 33.8456 97.4024 33.519C97.137 32.9984 96.6879 32.7432 96.0449 32.7432C95.4733 32.7432 95.065 32.9678 94.7997 33.4067C94.5445 33.8456 94.4118 34.3763 94.4118 34.9989C94.4118 35.6215 94.5445 36.091 94.7997 36.4891C95.0548 36.8872 95.4733 37.0811 96.0347 37.0811C96.6573 37.0811 97.0758 36.8463 97.3105 36.3666L97.3003 36.3768Z" fill="#9D9D9C"/>
<path id="Vector_21" d="M99.7908 32.0798H100.689V32.8759C100.954 32.5493 101.24 32.3145 101.536 32.1716C101.832 32.0287 102.159 31.9573 102.526 31.9573C103.322 31.9573 103.863 32.2329 104.139 32.7942C104.292 33.1004 104.374 33.5291 104.374 34.1007V37.7036H103.414V34.1619C103.414 33.8149 103.363 33.5393 103.261 33.3352C103.098 32.9882 102.792 32.8146 102.353 32.8146C102.128 32.8146 101.944 32.8351 101.801 32.8861C101.546 32.9677 101.312 33.1208 101.118 33.3454C100.965 33.5291 100.862 33.723 100.811 33.917C100.76 34.1109 100.74 34.3967 100.74 34.7641V37.7036H99.7908V32.09V32.0798Z" fill="#9D9D9C"/>
<path id="Vector_22" d="M106.323 35.9378C106.354 36.2542 106.435 36.489 106.568 36.6625C106.813 36.9687 107.231 37.1218 107.834 37.1218C108.191 37.1218 108.507 37.0504 108.773 36.8973C109.038 36.7442 109.181 36.5094 109.181 36.193C109.181 35.948 109.069 35.7643 108.854 35.6418C108.711 35.5704 108.446 35.4785 108.038 35.3765L107.272 35.1825C106.782 35.0601 106.425 34.9274 106.201 34.7845C105.792 34.5293 105.578 34.1721 105.578 33.723C105.578 33.1922 105.772 32.7636 106.16 32.4369C106.548 32.1103 107.068 31.947 107.721 31.947C108.579 31.947 109.201 32.192 109.579 32.6921C109.814 33.0085 109.936 33.3453 109.926 33.7128H109.038C109.018 33.4984 108.946 33.3045 108.803 33.131C108.579 32.886 108.201 32.7636 107.65 32.7636C107.282 32.7636 107.007 32.835 106.823 32.9677C106.639 33.1004 106.537 33.2841 106.537 33.5086C106.537 33.7536 106.66 33.9475 106.905 34.0904C107.048 34.1721 107.262 34.2537 107.538 34.315L108.17 34.4681C108.864 34.6314 109.324 34.7947 109.559 34.9478C109.926 35.1928 110.11 35.5704 110.11 36.0909C110.11 36.6115 109.916 37.0197 109.538 37.3872C109.15 37.7546 108.568 37.9281 107.783 37.9281C106.935 37.9281 106.333 37.7342 105.986 37.3566C105.629 36.9789 105.445 36.5094 105.425 35.948H106.333L106.323 35.9378Z" fill="#9D9D9C"/>
</g>
</g>
<defs>
<clipPath id="clip0_1106_16477">
<rect width="110.457" height="40" fill="white" transform="translate(0.193848)"/>
</clipPath>
</defs>
</svg>
