<svg height="25" viewBox="0 0 185 52" fill="none" xmlns="http://www.w3.org/2000/svg">
<g id="Layer_1" clip-path="url(#clip0_1106_16287)">
<path id="Vector" d="M23.8153 0.181233C22.8712 0.264924 21.8327 0.781019 20.9156 1.00419C20.0525 1.21342 18.96 1.4087 18.0429 1.71557C17.1393 2.02243 16.4515 2.7896 15.5074 3.05462C14.1722 3.43123 13.9565 3.11042 13.0259 4.30999C12.2706 5.28638 11.6772 5.64904 10.7331 6.43016C9.72161 7.26707 9.23609 8.32716 8.13017 9.06643C6.45781 10.1684 4.56966 12.0514 3.70651 14.0879C3.30191 15.0503 3.42329 16.0686 2.68152 16.9892C1.7779 18.119 1.04962 18.1887 0.83383 19.8626C0.550608 22.0106 0.968698 24.354 0.968698 26.5578C0.968698 27.7016 0.91475 28.9291 0.860803 30.0031C0.779883 31.7048 0.402253 33.7832 1.13054 35.4012C1.56212 36.3636 2.12856 37.1866 2.65454 38.0654C3.27494 39.1254 4.25947 39.8647 4.93381 40.7574C5.48676 41.4967 5.71604 42.6126 6.36341 43.2542C6.94334 43.84 7.9009 43.9935 8.56175 44.5793C8.45385 44.7188 8.45385 44.8443 8.38642 44.9838C10.1802 45.8486 12.0009 46.8111 13.8081 47.6061C14.5364 47.9269 15.4265 48.0664 16.1009 48.5267C16.7482 48.9591 17.2337 49.7403 17.9755 50.2006C20.4841 51.7488 22.8577 51.4141 25.6765 51.5536C27.1735 51.6233 28.7514 51.7628 30.3024 51.693C31.6106 51.6372 32.3929 51.163 33.5932 50.7027C35.2925 50.0471 36.8165 49.545 38.2461 48.6244C39.4464 47.8433 41.2132 47.3132 42.2247 46.4345C43.1958 45.5836 43.7622 44.2306 44.6389 43.2542C45.502 42.2918 45.9471 41.4827 46.6619 40.325C47.7543 38.5257 49.6155 37.0611 50.1549 34.9269C51.2069 30.84 51.5845 25.8325 50.4247 21.4387C49.3727 17.4774 49.2918 11.884 45.9336 9.16407C44.3422 7.8808 42.5619 6.63939 40.8491 5.41192C39.0823 4.14261 37.6797 2.69196 35.6432 1.9248C33.7415 1.21342 32.0018 0.781018 29.9248 0.446254C28.1445 0.167285 25.2449 0.892606 23.7209 0.041748" fill="white"/>
<path id="Vector_2" d="M25.8924 0.446384C25.0966 0.711406 24.4358 0.557972 23.7884 0.627715C22.9927 0.0279294 22.2644 1.42278 21.5361 0.809045C22.224 0.585869 22.8444 0.20926 23.5322 -0.013916C24.4358 -0.013916 25.1371 0.20926 25.8924 0.432436" fill="#A01B17"/>
<path id="Vector_3" d="M29.1966 0.641536C29.0887 0.864712 28.7245 0.683381 28.6841 0.460205L29.1966 0.641536Z" fill="#A01B17"/>
<path id="Vector_4" d="M20.983 1.08789C20.8751 1.31107 20.511 1.42265 20.2278 1.35291C20.3357 1.08789 20.6998 1.08789 20.983 1.08789Z" fill="#A01B17"/>
<path id="Vector_5" d="M33.5528 1.26935C33.1886 1.19961 32.6087 1.42279 32.4333 1.08802C32.7975 1.12987 33.2695 0.976434 33.5528 1.26935Z" fill="#A01B17"/>
<path id="Vector_6" d="M19.6074 1.72968H18.6633C18.7712 1.57624 19.7558 0.795128 19.6074 1.72968Z" fill="#A01B17"/>
<path id="Vector_7" d="M34.6723 1.64593L34.416 1.4646H34.6723V1.64593Z" fill="#A01B17"/>
<path id="Vector_8" d="M38.0842 3.26401C37.2076 3.08268 35.9398 2.62238 35.2925 1.91101C36.4119 1.86916 37.3694 2.66423 38.0842 3.26401Z" fill="#A01B17"/>
<path id="Vector_9" d="M17.7867 2.17587C17.6383 2.73381 16.7752 2.51063 16.6268 3.08252C16.991 3.41729 17.6788 3.45913 17.6788 4.05892C18.2183 5.03531 18.8386 5.96986 18.2992 7.05784H17.935C17.6113 6.5278 18.2587 5.96986 17.6113 5.59325C17.1393 6.12329 17.3956 6.83467 17.6113 7.5042C18.4475 8.06214 17.1798 8.66192 17.2472 9.30355C16.5189 9.15012 17.0719 10.0568 16.6268 10.2799C16.1952 10.3218 15.5748 9.79175 15.3186 10.3497C15.5344 10.9913 15.0354 11.4795 14.5633 11.2563L14.4554 11.3679C14.6308 11.633 14.887 11.6748 15.1837 11.633L15.5074 12.9162C16.7482 12.693 17.6923 11.8282 18.987 11.898L19.3511 12.4559C19.5669 11.8143 20.4705 11.7864 20.1199 10.81C18.7038 10.6566 17.4765 11.4516 16.0469 11.5632C15.7232 11.0053 16.6943 11.0332 16.5594 10.4752C17.935 10.8518 18.6633 9.49883 19.9715 9.56857C22.8442 8.17372 25.7034 6.83467 28.7514 5.85827L28.9268 6.0396C26.4991 7.61578 23.8827 9.08038 21.2663 10.3636C21.1584 10.6287 21.0505 10.8937 21.0909 11.1866L28.4952 16.1383C29.0077 16.2917 29.7629 15.2038 29.9787 16.2081C30.1945 16.5428 30.5991 16.4731 30.9228 16.5847C31.7994 16.2917 30.9633 15.6501 30.8554 15.2317C30.68 13.9484 31.0711 12.7209 31.3679 11.5493C31.9882 8.95484 34.2001 5.99776 36.9649 5.69089C37.0728 5.76063 37.329 5.73274 37.2885 5.95591C37.0323 6.51385 36.2366 6.86256 35.7241 7.30892C34.0922 8.95484 33.5797 11.1029 33.1077 13.237L33.283 13.4184C33.8629 12.6233 34.2945 11.9538 35.1037 11.354C34.9284 10.796 35.5757 10.3357 35.9803 10.266C36.2366 10.266 36.5603 10.3357 36.6007 10.001C36.8165 9.7778 36.6007 9.51278 36.4254 9.35935L39.905 8.64797C40.4445 8.80141 40.3096 9.2896 40.0803 9.62437C38.6642 10.4892 37.5448 11.9119 36.6682 13.2231L36.7761 13.3347C38.408 11.2703 40.5119 9.27566 43.3171 9.54068L43.4925 9.35935C43.1688 8.8293 42.5484 8.94089 42.1842 8.53638C41.1323 7.40656 39.8241 6.40226 38.4079 6.13724C38.2326 5.64905 37.5718 5.80248 37.6392 5.31428C38.2191 5.13295 39.3116 6.13724 39.8915 5.13295C39.7162 4.60291 38.907 4.11471 39.0149 3.59862C40.1747 3.97523 40.903 5.02136 41.8875 5.59325V5.85827C41.0918 6.12329 40.2961 4.54711 39.9994 5.85827C41.8201 7.05784 43.3036 9.76385 45.5559 9.91729L45.9201 9.58252L43.1958 7.21128L43.0474 6.76493C43.8836 6.80677 44.1398 7.74132 44.8681 8.04819C45.6369 8.46664 46.001 9.69411 47.053 9.58252C47.5924 9.76385 47.3497 10.4473 47.4171 10.7402C47.1204 10.2939 46.7293 10.6287 46.3651 10.6705L46.1089 10.9355C46.3247 11.9538 48.8332 11.7306 47.4845 12.9302C47.1204 13.2649 46.8642 12.3304 46.5405 12.9302C46.9046 13.9066 46.4326 15.6362 47.4845 15.9012C47.9161 16.0546 47.3767 16.4312 47.4171 16.6963C46.2572 17.1845 46.3651 18.7606 46.1763 19.7789C46.1763 20.4902 46.3247 21.3969 45.3806 21.6619C44.0724 22.2199 43.8566 19.8626 42.6158 21.0621C43.0879 23.1265 41.456 24.7027 41.3076 26.7252C41.7392 28.7896 42.4675 30.7005 43.1283 32.6533C43.1688 34.6061 42.4 36.2242 42.4405 38.1769C42.98 39.0418 44.7332 38.707 44.1803 40.06C44.4365 40.2832 44.7602 40.3529 45.1244 40.325C46.028 39.8787 45.6638 38.707 46.6888 38.442C48.3207 38.3304 47.6734 36.3776 49.049 35.8196C49.3053 36.0428 49.6694 35.8615 49.7368 35.5546C49.9122 34.4666 49.6964 33.6437 50.2763 32.5836C50.2089 31.7885 49.5885 30.6727 50.4516 30.0729C50.3437 29.2499 50.9911 28.6501 50.4516 27.8132C51.0316 26.9902 50.3437 26.2789 50.7079 25.3722C50.6404 25.0793 50.8832 24.4377 50.4516 24.2145C50.8158 23.2799 49.9122 22.3314 50.5191 21.5085C50.0066 21.2853 50.4112 20.6437 50.1549 20.3089C50.0875 19.3744 49.5076 18.4677 49.4671 17.4495C49.1704 16.8078 48.9546 16.0546 48.3477 15.6501C48.9276 15.2735 48.3477 14.6319 48.523 14.1855C47.9026 14.0321 48.2668 13.1673 48.1589 12.8325C48.2263 12.6512 48.3747 12.4978 48.5905 12.5675C49.5345 14.1018 49.2378 15.9151 49.8987 17.4495C50.4112 17.8261 50.3033 18.4677 50.6944 18.8722C51.099 22.6244 51.7464 26.3765 51.4497 30.3239C50.8023 31.4538 51.7464 32.8347 50.6944 33.9227C50.3303 34.9688 50.3707 35.8336 49.5615 36.6984C49.3457 37.7445 48.55 38.3164 48.2533 39.3207C46.473 41.4548 44.8411 44.0214 42.7372 45.9742C41.4694 47.7038 39.4734 48.5267 37.6932 49.4334C33.1886 51.7628 28.212 51.5675 23.4241 52.0278C20.6998 51.8046 18.2722 50.8701 15.912 49.6984C13.4439 48.9452 11.4884 46.7274 9.3035 45.4581C7.81995 43.7284 5.41931 43.4355 4.83938 40.9527C3.57162 39.5299 2.04762 38.4699 1.71045 36.5171C0.550586 35.0943 0.725914 33.0997 0.226903 31.4119C0.15947 30.5471 0.334798 29.8357 0.766374 29.236C0.806835 27.9945 0.982163 26.7252 0.914729 25.5536C-0.245134 24.5772 1.27887 23.8937 1.09006 22.736C0.766374 21.648 1.30585 20.5879 1.34631 19.2488C2.43873 18.942 1.64301 17.7842 2.50617 17.3379V17.0031C3.19399 16.2499 3.77392 15.1619 3.88182 14.1855L4.24596 13.9205C4.50221 14.8969 3.45024 15.692 3.36932 16.6963C2.96472 17.031 3.00518 17.4913 3.00518 17.9795C2.53314 18.133 2.38479 18.8443 2.0611 19.1372C2.34433 21.7596 0.644993 23.7542 1.7644 26.1533C1.48117 27.3948 2.08808 28.6641 1.2519 29.6823C1.83183 29.9055 1.42723 31.2166 2.49268 30.7703C2.85682 30.0171 3.8009 29.487 3.43675 28.399C2.45222 27.3529 1.95321 25.8046 2.12854 24.4516C2.96472 23.4334 3.00518 21.5224 4.55616 21.104C4.98773 19.8207 4.87984 17.6169 4.66405 16.0686C4.87984 15.4688 5.24398 16.0267 5.54069 16.0686L7.53673 15.957C8.00877 17.84 5.10911 17.5332 5.54069 19.486C5.36536 20.6158 5.86437 22.0385 5.4328 23.0847C4.52918 23.1963 4.19201 24.4377 3.50419 24.9677C3.50419 25.6791 4.12458 26.3626 4.48872 27.0321C5.62161 27.3669 6.91634 27.2553 7.96831 27.7853L8.03574 27.6737C6.66009 27.0321 4.87984 26.6276 3.85484 25.2327C3.78741 24.9398 3.96274 24.7445 4.21899 24.7027C5.01471 24.7724 5.48674 25.6372 6.21503 25.986C6.94332 26.2789 7.45581 27.1437 8.29199 27.1437C8.61567 26.9902 8.57521 26.4742 9.02028 26.5857L9.45185 27.1437L9.96435 26.5021C9.23607 26.3905 8.80449 25.5954 7.96831 25.7907C7.81996 24.3958 4.77194 25.6791 5.78345 23.6147C6.08016 22.457 7.24002 23.7263 7.52325 22.5267L7.09167 22.192C7.71206 21.6619 7.71206 20.7274 7.60417 20.016C7.24002 19.8626 7.17259 19.3046 7.34792 18.928C7.49627 18.7467 7.77949 18.9699 7.86042 18.663C7.81996 18.4817 7.49627 18.2445 7.71206 18.0214C8.6966 17.6029 7.60417 16.7799 8.29199 16.1383C8.6966 15.3154 9.34396 14.8551 9.51929 13.9623C9.77554 13.7392 9.99133 13.516 9.95086 13.1673C9.18212 12.6093 8.21107 13.4323 7.33443 13.1673C6.57917 13.7252 5.44628 14.3669 5.2305 15.4269H4.97425C4.6101 14.0739 6.7545 13.4044 5.85089 12.163C5.27096 12.0514 5.27096 13.0696 4.65056 12.986C4.50221 11.9398 5.81043 11.5214 5.95878 10.4752C6.242 9.91729 7.48279 9.8057 7.1591 8.94089C7.52325 8.49454 8.10318 9.20591 8.27851 8.56428C8.42686 8.25741 8.06272 8.18767 8.02226 7.9645C8.42686 7.51814 9.29001 7.4763 9.26304 6.68123C9.55975 6.41621 10.4229 6.90441 10.315 6.15119C10.2745 5.50956 11.0838 5.77458 11.3265 5.32823L12.1222 4.61686C12.1897 4.77029 12.338 4.6587 12.4864 4.6866C12.918 4.53317 12.338 4.26814 12.6347 4.04497C13.7272 3.51493 14.4824 2.73381 15.7906 2.80355C16.3301 2.3851 17.0314 1.75741 17.7192 2.16192" fill="#A01B17"/>
<path id="Vector_10" d="M21.5361 3.15227C21.6035 3.86364 21.7924 4.92373 21.3608 5.41193C20.5651 5.07716 21.145 4.10077 20.8483 3.34755C20.6999 3.01278 20.3763 3.23596 20.12 3.16622C19.6884 4.14261 19.9716 5.38403 19.5401 6.31858H19.1759C19.1759 5.11901 19.1355 3.65442 19.5401 2.45484C20.1874 2.71987 21.6845 1.85506 21.5361 3.16622" fill="#A01B17"/>
<path id="Vector_11" d="M23.9638 2.99889L23.5322 3.52894C23.7075 3.90555 24.6516 3.48709 24.3279 4.17057L23.7075 4.43559C23.7075 4.8122 24.3549 5.07722 23.8829 5.41198C23.0871 5.48173 22.7635 4.47744 22.1431 4.17057C22.3184 3.52894 23.5187 1.84117 23.9638 3.01284" fill="#A01B17"/>
<path id="Vector_12" d="M31.7995 4.17062C31.5432 4.81225 30.788 5.30045 30.235 5.70495C29.6551 5.14701 28.9268 4.68671 28.7515 3.9056C29.3719 3.45925 30.0597 2.37126 30.8554 2.70603L31.7995 4.17062Z" fill="#A01B17"/>
<path id="Vector_13" d="M27.6996 5.14696C27.5243 5.18881 27.3759 5.48172 27.1871 5.25855C26.9713 4.8122 26.9713 4.28215 26.4993 3.98923C25.8789 4.47743 25.6226 5.677 24.8269 5.78859V5.14696L26.5667 2.63623C27.2141 3.27786 27.4433 4.25426 27.6861 5.14696" fill="#A01B17"/>
<path id="Vector_14" d="M35.1039 3.79389C35.2118 3.90548 35.3601 3.90548 35.468 4.05891C34.996 5.03531 33.7957 5.48166 33.9036 6.68123C33.7148 6.72308 33.5394 6.68123 33.472 6.4999C34.1194 5.37007 32.6763 4.77029 32.6763 3.90548C32.9325 3.6823 33.2967 3.86364 33.3641 4.1705L33.6203 4.24024C33.9845 3.90548 33.6608 3.222 34.2407 3.08252C34.7802 3.26385 34.2003 4.72844 35.1174 3.79389" fill="#A01B17"/>
<path id="Vector_15" d="M16.1278 3.52904C16.2761 4.08698 16.0873 4.88205 15.5074 5.06338L15.6827 5.24471C14.9544 5.50973 14.2262 6.37454 13.4304 5.77475H13.1472C13.1877 5.28655 13.4035 4.64492 13.6867 4.15672C14.3341 3.51509 15.2107 3.44535 16.1143 3.51509" fill="white"/>
<path id="Vector_16" d="M30.7475 3.97542C30.8959 4.31018 30.5318 4.39387 30.4239 4.61705C30.1676 4.5752 29.9518 4.46361 29.8035 4.24044C29.8035 3.79409 30.4913 3.45932 30.7475 3.97542Z" fill="white"/>
<path id="Vector_17" d="M42.7643 6.61147C42.5889 6.68122 42.3597 6.43014 42.4406 6.23486C42.5485 6.34645 42.8722 6.30461 42.7643 6.61147Z" fill="#A01B17"/>
<path id="Vector_18" d="M14.6309 7.12765C14.1184 7.46242 13.6194 8.17379 14.0105 8.85727C14.1588 9.23388 14.6309 9.56864 14.3746 10.015C14.2667 9.26177 13.1743 9.97315 13.2552 9.10834C13.0799 8.88516 12.8237 9.10834 12.6348 9.17808C12.3516 8.53645 11.475 8.39697 10.895 8.73173C10.0184 9.10834 9.37104 10.1963 8.64276 10.7264C8.53487 10.9914 8.75065 11.103 8.89901 11.2564C9.66775 11.4377 10.7467 10.9216 11.4075 11.368C9.88354 11.9259 8.68322 12.191 6.98389 11.8143C7.77961 10.4613 9.19572 9.30362 10.396 8.21564C11.5964 7.39267 13.0394 7.23924 14.4556 6.93237L14.6309 7.1137V7.12765Z" fill="white"/>
<path id="Vector_19" d="M45.6774 10.9217C45.4616 12.4281 46.4057 14.0322 46.109 15.6921V15.9571C46.4057 14.9807 45.2728 14.5622 44.6255 14.2693C43.6814 14.9807 43.9781 13.3627 43.3173 13.1813C42.9127 12.6234 42.1169 12.0934 41.6449 12.8047C41.2403 13.1116 40.7683 13.2929 40.4446 13.7114L40.5929 14.088C40.1883 14.0462 39.6893 14.4228 39.5814 14.8831C39.4331 15.3294 39.9456 15.4131 40.1614 15.5247C40.7008 15.5665 41.4696 15.3713 41.4021 16.1663C41.5775 16.8359 41.5505 17.5891 41.9146 18.161C42.2383 18.1191 42.562 18.0494 42.7104 17.7844L43.1419 18.9421C42.6294 18.6073 41.9416 18.3004 41.4696 18.9421C39.986 19.3187 37.6933 17.6588 37.1133 19.6953C37.3291 20.0719 37.5449 19.8069 37.8416 19.765L39.0419 20.2114C37.9495 19.765 36.2502 20.8112 35.4814 19.6813C34.6048 20.0998 34.4295 21.411 33.1887 21.0344C32.1367 21.1878 32.0288 22.5408 31.0038 22.6524C31.0443 22.9871 31.0443 23.6985 30.4913 23.7404C29.844 23.5869 29.291 23.029 29.1831 22.3874C28.6706 21.8992 28.1986 22.2339 27.6996 21.7457C26.8229 21.4528 26.4318 23.0569 25.6361 22.0805C24.6246 21.2157 23.4512 20.4625 22.2239 20.2811C21.7114 19.7511 21.4282 21.0344 20.9157 20.2114C19.9312 19.6813 19.3917 20.7693 18.4881 20.6577C18.3398 20.8112 18.124 20.9507 18.2319 21.1878C18.6634 21.411 19.0276 21.8992 19.6075 21.8294C19.5401 22.2479 18.9601 22.4989 18.5555 22.6524C18.3802 22.4292 18.596 22.0526 18.3802 21.8294C17.2204 21.7178 16.3167 23.029 15.3322 23.4474C14.8602 22.7779 15.6289 22.1642 15.6289 21.4947C15.4131 21.1599 15.049 21.0065 14.7523 21.1878L14.4556 21.4947C15.6154 20.3369 16.4111 18.4539 18.2319 18.147C20.3763 17.7007 23.1006 17.5891 25.0157 18.8584C26.0002 18.8165 26.4723 19.2768 27.4433 19.235C28.6841 19.765 30.0598 19.3047 31.2871 19.5698C32.7032 18.6352 34.6992 18.9281 35.8995 17.5751C38.1114 14.5344 40.9436 9.23392 45.664 10.9356" fill="white"/>
<path id="Vector_20" d="M20.8483 12.9164C20.8483 13.2233 20.4167 13.0977 20.3088 12.9861L19.9851 12.6095C20.1604 12.4561 20.6729 12.5398 20.8617 12.9164" fill="white"/>
<path id="Vector_21" d="M23.0196 14.3392C22.3317 14.4507 21.7113 13.8928 21.1719 13.4325L21.3472 13.1675C21.8867 13.5859 22.6959 13.7673 23.0196 14.3252" fill="white"/>
<path id="Vector_22" d="M19.8638 13.823C21.0237 14.4925 22.224 15.1063 23.3434 15.8874C22.1026 15.441 20.6191 14.6878 19.3513 13.823H19.8638Z" fill="white"/>
<path id="Vector_23" d="M13.9432 14.1577C14.1589 15.4689 12.7428 16.0408 12.9991 17.3101C12.055 17.9099 12.7024 19.2629 11.7583 19.7511C12.0415 18.3283 12.8777 16.9335 13.0665 15.3154C13.3497 14.9388 13.4981 14.339 13.9432 14.1577Z" fill="white"/>
<path id="Vector_24" d="M22.0351 16.5987L22.6555 17.045C20.2549 16.8916 18.0835 16.7521 16.1144 18.2027H15.8582C14.8737 19.3605 13.6464 20.2671 12.446 21.0203C13.3901 18.7328 13.2148 15.692 15.6019 14.339C16.2898 14.7156 17.126 13.7392 17.9217 14.339C19.122 15.2736 20.5786 15.4688 21.698 16.5987H22.0217H22.0351Z" fill="white"/>
<path id="Vector_25" d="M26.7554 15.9571C27.8748 16.4871 28.711 17.3519 29.3719 18.3283C28.7515 17.9936 27.9557 18.0633 27.4432 17.4217C27.5511 17.2682 27.6995 17.3101 27.8074 17.1148C27.0117 16.1803 25.8518 16.0966 25.0156 15.3155C25.4472 14.2693 26.1755 15.7618 26.7554 15.9571Z" fill="white"/>
<path id="Vector_26" d="M10.8276 17.2404C10.8951 16.5988 10.8951 15.734 11.7717 15.176C11.9201 15.8456 11.2322 16.5988 10.8276 17.2404Z" fill="white"/>
<path id="Vector_27" d="M42.9531 15.6224V15.176L43.1285 15.4271L42.9531 15.6224Z" fill="white"/>
<path id="Vector_28" d="M11.5828 17.9517C11.4075 17.4216 11.8795 16.4871 12.2032 15.957C12.2437 16.7381 11.7986 17.31 11.5828 17.9517Z" fill="white"/>
<path id="Vector_29" d="M40.0131 16.8638C40.7009 16.9056 40.0535 17.5054 40.3367 17.882C40.04 18.2586 39.5815 18.2586 39.2173 18.0354C39.042 17.8541 39.0016 17.5054 38.7048 17.4356H38.1654C38.0979 16.4174 39.9456 15.4829 40.0131 16.8777" fill="#A01B17"/>
<path id="Vector_30" d="M45.6775 17.31C45.637 17.7563 45.7449 18.2864 45.5696 18.8443C45.2459 18.8025 45.0975 18.0911 44.6929 18.4677C44.0725 17.9795 44.2209 17.045 43.3847 16.6684C43.2363 16.6684 42.9531 16.7799 42.9531 16.5149C44.2613 15.957 44.6929 18.7327 45.6775 17.31Z" fill="white"/>
<path id="Vector_31" d="M24.8405 16.6684L24.4763 16.5986H24.7595L24.8405 16.6684Z" fill="white"/>
<path id="Vector_32" d="M32.9324 17.6867C32.8245 17.9517 32.8245 18.0214 32.6087 18.2167L31.9883 18.3283V17.3101C32.3524 17.3101 32.7166 17.3101 32.9324 17.6867Z" fill="white"/>
<path id="Vector_33" d="M41.645 21.1041C41.7124 21.4807 41.6045 21.7457 41.3887 22.0108C41.0246 21.5923 40.4446 21.1041 39.8243 20.9228C39.3927 21.0762 39.4196 20.588 39.2039 20.3927C40.0805 20.7693 41.564 19.5279 41.6315 21.1041" fill="white"/>
<path id="Vector_34" d="M9.51948 20.4624C9.22277 21.2575 9.47902 21.927 9.77573 22.6384C9.62738 22.1502 9.15534 22.2618 8.89909 21.927C8.85863 21.3272 9.07442 20.7693 9.51948 20.4624Z" fill="white"/>
<path id="Vector_35" d="M37.6529 21.9271L37.0325 21.4807L37.464 21.7457L37.6529 21.9271Z" fill="white"/>
<path id="Vector_36" d="M41.0245 22.9731C40.957 24.0611 40.2287 24.884 39.9051 25.7907C39.7972 24.884 40.7412 23.7681 39.9051 22.9033C40.1613 22.3733 39.5005 22.192 39.5814 21.7456C40.0939 21.9269 40.8087 22.3454 41.038 22.987" fill="white"/>
<path id="Vector_37" d="M12.999 22.6385L13.3227 22.1921H13.579L12.999 22.6385Z" fill="white"/>
<path id="Vector_38" d="M33.472 22.2617C33.3236 22.6802 33.7552 23.4194 33.1079 23.545H32.5954C32.5549 23.0568 32.42 22.5267 32.919 22.2617H33.4585H33.472Z" fill="white"/>
<path id="Vector_39" d="M12.5673 22.8337C12.419 23.3219 11.4479 23.8799 11.9469 24.5215C12.2706 24.8144 12.891 24.4099 13.3226 24.6331C13.2821 25.3863 12.1223 25.0516 11.5019 25.2329L10.9624 24.0752C11.5019 23.6985 12.1223 23.2801 12.5538 22.8337" fill="white"/>
<path id="Vector_40" d="M6.90291 23.8799H6.6062L6.7141 23.4336C6.86245 23.5452 6.88942 23.6986 6.88942 23.8799" fill="white"/>
<path id="Vector_41" d="M36.7762 23.7263C36.8437 23.9913 36.2637 24.3261 36.6009 24.7027C35.9131 24.7725 35.4006 24.633 35.3601 23.8798C35.3601 23.545 36.3042 23.81 36.7762 23.7263Z" fill="white"/>
<path id="Vector_42" d="M8.89899 25.3445L8.10327 25.2329L9.51938 24.0752C9.55984 24.7168 9.47892 24.9818 8.89899 25.3585" fill="white"/>
<path id="Vector_43" d="M13.0664 27.4785L12.8911 26.1255C13.1878 26.5021 13.0664 27.1437 13.0664 27.4785Z" fill="white"/>
<path id="Vector_44" d="M22.3992 26.5021V26.7672H22.2239V26.3208L22.3992 26.5021Z" fill="white"/>
<path id="Vector_45" d="M21.6035 26.8787L21.5361 27.0322H21.2799C21.2394 26.8508 21.4552 26.8787 21.6035 26.8787Z" fill="white"/>
<path id="Vector_46" d="M40.5928 28.0504C40.9975 28.8454 41.2402 29.6684 41.3886 30.5611C40.984 30.2263 40.7412 29.4731 40.4445 28.9431C40.404 28.2317 39.6757 27.7016 39.8241 27.0321C40.6603 26.8089 40.2961 27.6737 40.5794 28.0504" fill="white"/>
<path id="Vector_47" d="M10.9626 28.5804C10.7872 28.7617 10.7872 28.9152 10.4501 28.8454C10.5984 28.4688 10.1938 27.9806 10.2747 27.604C10.7872 27.6458 11.3267 27.9806 10.9626 28.5804Z" fill="white"/>
<path id="Vector_48" d="M10.0185 28.5806C9.54642 28.8038 8.66978 28.2458 8.53491 27.939L10.0185 28.5806Z" fill="white"/>
<path id="Vector_49" d="M38.9609 29.4733C39.4329 30.2963 39.905 31.1611 40.0803 32.0956C40.377 32.2491 40.3366 32.7372 40.7681 32.542C41.5639 32.3885 41.4964 31.454 41.456 30.9239C41.5234 31.7469 42.98 32.6117 42.0764 33.5184C41.7527 33.2533 42.0764 32.542 41.456 32.807C41.3481 32.9186 41.3481 33.072 41.1997 33.1836C40.7951 33.4486 40.404 32.6257 39.8915 33.0023C39.3116 32.3327 39.2711 31.2727 38.7586 30.4915C38.7991 29.8499 38.4754 29.2083 37.882 29.0269H37.7066C37.5583 28.469 37.8145 28.204 38.2461 27.939C38.6103 28.3156 38.5428 29.0269 38.9339 29.4733" fill="white"/>
<path id="Vector_50" d="M17.4225 28.3851C16.6942 29.5428 15.359 29.8497 14.5498 30.8261L14.3745 30.2961C15.3186 29.5847 16.1952 28.8733 17.2472 28.2317L17.4225 28.3851Z" fill="white"/>
<path id="Vector_51" d="M35.468 28.3852C35.5758 29.0547 34.8476 28.72 34.5913 28.9431V28.3015L35.468 28.3713V28.3852Z" fill="white"/>
<path id="Vector_52" d="M36.7761 28.3155C36.3041 29.8916 36.9244 31.2865 36.6008 32.8906C35.9534 32.0258 36.4254 30.5612 36.0883 29.6545L35.7241 29.2779C36.0478 29.2082 36.6008 28.7479 36.6008 28.3015H36.7761V28.3155Z" fill="white"/>
<path id="Vector_53" d="M33.1885 30.1844L33.0402 38.7488C32.7165 39.1952 32.6086 39.7949 32.2445 40.1018L31.4487 40.5482C29.6011 40.59 27.6725 39.6834 25.8922 40.6598L25.2044 40.2831C23.6129 38.3722 22.3317 36.4892 20.8481 34.5364C20.8481 32.9183 22.561 32.5138 23.1004 31.0074C24.1524 30.4774 24.4761 29.3196 25.4606 28.5664C27.9287 29.3615 30.5047 29.9613 33.1885 30.1844Z" fill="white"/>
<path id="Vector_54" d="M7.48292 29.2082C7.22667 29.6266 6.97042 29.25 6.60628 29.4732C5.59477 29.8498 4.6507 30.6728 3.85498 31.4678C4.11123 29.9614 5.91846 30.0032 6.90299 29.1384L7.48292 29.2082Z" fill="white"/>
<path id="Vector_55" d="M8.53496 29.2082V29.3895L8.02246 29.2082C8.19329 29.1803 8.36413 29.1803 8.53496 29.2082Z" fill="white"/>
<path id="Vector_56" d="M11.1512 29.9194C11.2996 30.7843 12.4594 31.119 12.6348 32.0954L12.8101 32.8068C12.5538 32.9881 12.3785 32.472 12.1897 32.2767C11.893 31.2585 11.1782 30.2124 10.0858 30.0171C9.86998 29.7939 9.39794 30.0868 9.20913 29.7102L8.95288 29.2639C9.85649 29.0825 10.3016 29.9752 11.1377 29.9055" fill="white"/>
<path id="Vector_57" d="M20.4841 29.6684C19.8637 30.2263 20.3088 31.4399 19.4322 31.7328C18.6365 31.5514 18.3397 32.1094 17.6115 31.9978L17.2473 32.3047C17.4226 30.9935 18.7713 29.7939 20.0391 29.4871C20.2144 29.4871 20.3628 29.5289 20.4707 29.6684" fill="white"/>
<path id="Vector_58" d="M34.7801 30.9377L34.6722 31.2028L34.6047 30.9377H34.7801Z" fill="white"/>
<path id="Vector_59" d="M7.22657 33.0859L7.15913 33.7972H4.36737C4.32691 32.6395 5.35191 31.691 6.29598 31.2028C6.72756 31.2028 7.19959 30.7844 7.6042 31.2028L7.24005 33.0859H7.22657Z" fill="white"/>
<path id="Vector_60" d="M2.87031 31.4679L2.43874 32.2909C2.0746 32.0677 1.64302 31.984 1.31934 31.6492L1.49466 31.2029C1.81835 31.5795 2.39828 31.4261 2.87031 31.4679Z" fill="white"/>
<path id="Vector_61" d="M10.9624 32.7372C11.1782 33.2952 11.1782 33.6718 11.394 34.2437C10.342 34.5505 9.33048 34.1739 8.34595 33.9089C8.34595 33.0022 8.71009 32.0258 9.07423 31.2029C9.97785 31.2726 10.4499 31.9979 10.9624 32.7372Z" fill="white"/>
<path id="Vector_62" d="M3.23462 33.337C3.23462 32.7372 3.51784 32.2909 3.6662 31.719C3.73363 32.1653 3.38297 32.807 3.23462 33.337Z" fill="white"/>
<path id="Vector_63" d="M15.7637 32.6254C16.0604 33.7831 14.0914 34.3969 15.1838 35.5128C15.6963 35.6662 16.0874 35.8894 15.8716 36.4892L15.7637 36.6007C15.6154 35.6941 13.8756 35.8475 14.5634 34.6061C14.8601 33.8529 15.8042 33.2531 15.4401 32.3465C15.0759 31.9698 14.6443 32.3046 14.3207 32.1651C14.1723 31.8304 14.7253 31.7188 14.9006 31.9001C15.3052 31.9419 15.4805 32.3883 15.7772 32.6115" fill="white"/>
<path id="Vector_64" d="M38.0843 34.1738L38.7047 34.104L38.5968 34.8154L38.1653 34.1738C37.8685 34.4388 37.5449 34.662 37.1133 34.6201C37.6258 34.0622 37.437 33.3787 37.5449 32.7371C37.8685 33.1555 37.6528 33.7832 38.0843 34.1598" fill="white"/>
<path id="Vector_65" d="M2.24995 33.3369C2.24995 33.4903 2.31739 33.7135 2.18252 33.7832H1.92627V33.1835C2.07462 33.1137 2.18252 33.2532 2.24995 33.3369Z" fill="white"/>
<path id="Vector_66" d="M12.3785 34.2436C12.2707 34.2436 12.0818 34.3133 12.0144 34.1739L12.2707 33.5322C12.3785 33.7554 12.4864 34.0623 12.3785 34.2436Z" fill="white"/>
<path id="Vector_67" d="M17.8677 34.6898C18.8792 36.5729 20.2279 38.4838 21.4282 40.0181C21.1046 40.5063 20.7404 39.9065 20.4167 39.8368C20.1605 39.1254 19.2569 39.4183 18.7444 39.502C18.2319 39.9902 17.8677 38.9022 17.2608 39.3904L17.0855 39.0557C17.598 38.7209 17.9891 39.3904 18.5016 39.0557C19.5536 38.5675 18.7579 37.8561 18.5016 37.2563C17.4092 36.81 17.3417 35.5267 16.573 34.8851L16.9371 33.9087C17.5845 33.7971 17.3417 34.7037 17.8812 34.7037" fill="white"/>
<path id="Vector_68" d="M24.4761 40.1019C23.7478 40.3251 23.1274 39.7253 22.2912 39.9485C22.1833 39.5719 22.8712 39.5719 23.087 39.1953C22.9791 38.5955 22.3317 37.8423 21.7787 37.5772L19.6748 34.2296L19.7827 34.0762C21.3741 35.9871 22.8307 38.1352 24.4626 40.088" fill="white"/>
<path id="Vector_69" d="M2.9784 36.0429C3.85504 37.5773 5.19023 39.3069 6.97049 39.5719C5.81062 39.6138 4.39451 39.6835 3.55833 38.5955C2.78959 37.5075 2.9784 35.8895 1.56229 35.2479C1.41394 34.8015 1.96689 34.8015 2.18268 34.6899C2.95143 34.7318 2.50637 35.7082 2.9784 36.0429Z" fill="white"/>
<path id="Vector_70" d="M7.15925 35.2618C7.05136 35.9035 7.05136 36.6148 6.79511 37.2565C6.02636 36.9914 4.90696 36.9914 4.61025 35.9871L4.354 35.0107C5.25762 34.8573 6.45794 34.4807 7.14577 35.2758" fill="white"/>
<path id="Vector_71" d="M11.1512 35.2618L11.4075 35.5268C10.7197 36.545 9.62724 37.3262 8.46737 37.5214C8.29205 37.5214 8.14369 37.4796 8.0358 37.3401C7.73909 36.5869 8.50783 36.0708 8.35948 35.2757C9.30355 34.7178 10.2476 35.5408 11.1512 35.2757" fill="white"/>
<path id="Vector_72" d="M35.982 35.0664H35.9131V36.3497H35.982V35.0664Z" fill="white"/>
<path id="Vector_73" d="M12.2032 36.0429L12.0144 36.1545L12.2707 35.3315L12.2032 36.0429Z" fill="white"/>
<path id="Vector_74" d="M34.6722 37.0612H34.4969C34.4564 36.4195 34.5643 35.8616 34.7936 35.3315C35.0094 35.7082 34.7261 36.4893 34.6857 37.0612" fill="white"/>
<path id="Vector_75" d="M38.5158 35.7778C38.5833 36.1544 38.7721 36.7961 38.3405 37.0611L38.0843 37.1308C37.6527 36.8658 38.1247 36.4892 38.0843 36.1544C38.2326 36.0429 38.3405 35.8197 38.5158 35.7778Z" fill="white"/>
<path id="Vector_76" d="M11.4074 36.9495C10.6387 38.1072 9.34393 38.7488 7.92782 38.7488C7.86039 37.6608 9.30347 38.3025 9.85643 37.7724C10.3959 37.5074 10.9084 37.2424 11.4209 36.9495" fill="white"/>
<path id="Vector_77" d="M36.2367 37.9679V38.2329H36.0884L35.9805 37.5913C36.2367 37.4797 36.2772 37.7726 36.2367 37.9679Z" fill="white"/>
<path id="Vector_78" d="M6.90293 38.2188C6.36346 38.2188 5.7026 38.3304 5.48682 37.7725L6.90293 37.9538V38.2188Z" fill="white"/>
<path id="Vector_79" d="M17.18 40.4784C16.0606 40.1437 15.1839 39.237 13.9431 39.1952C13.8352 38.9301 13.9836 38.414 14.3747 38.414C15.8313 38.0793 16.3033 39.767 17.1665 40.4784" fill="white"/>
<path id="Vector_80" d="M43.3847 39.572L43.1284 39.3906H43.3847V39.572Z" fill="white"/>
<path id="Vector_81" d="M38.7047 40.1019C38.853 40.2832 38.7451 40.5901 38.7721 40.8551C38.3405 40.6319 37.6123 41.2736 37.2886 40.6738L37.4639 39.5858C37.9764 39.5161 38.3405 40.0322 38.7047 40.1159" fill="white"/>
<path id="Vector_82" d="M12.4594 40.0321C11.0433 40.339 9.37093 39.8508 7.84692 39.7671L8.02225 39.6555C9.5058 39.502 11.0703 39.9205 12.4459 40.0321" fill="white"/>
<path id="Vector_83" d="M35.1038 40.2832C35.2792 39.7252 35.94 39.8368 36.1558 40.2134L36.412 41.1898C35.9805 41.0364 35.2926 40.7714 34.7801 41.1898C34.4834 41.2317 34.2407 41.1898 34.0519 40.9248C33.8361 40.3669 34.416 39.9903 34.5913 39.7671C34.6588 39.9903 34.7397 40.4366 35.1038 40.2971" fill="white"/>
<path id="Vector_84" d="M41.7528 39.9485C41.6044 40.2833 41.7528 41.1063 41.0245 40.8552C40.7008 40.7854 40.5929 40.1857 40.3367 39.8369C40.8087 39.8788 41.2807 39.5719 41.7528 39.9485Z" fill="white"/>
<path id="Vector_85" d="M12.2032 41.0085L11.5828 41.1898C9.51933 40.5482 7.80651 40.8829 5.66211 40.9248V40.8551C7.95486 40.7016 9.91044 40.325 12.0144 40.8551L12.1897 41.0085H12.2032Z" fill="white"/>
<path id="Vector_86" d="M18.2993 40.7436L17.8677 40.6599H18.2318L18.2993 40.7436Z" fill="white"/>
<path id="Vector_87" d="M14.8871 41.3015L14.4556 41.1899L14.6309 41.3015H14.8871Z" fill="white"/>
<path id="Vector_88" d="M34.9284 42.9894C36.7087 43.2962 38.7047 43.1707 40.5119 43.101V43.631C34.9284 44.4121 29.4393 42.2361 24.2064 42.3477C21.563 41.9711 18.7578 41.6364 16.0334 41.6364V41.3713C22.3183 41.6364 28.5627 42.5709 34.9149 42.9894" fill="white"/>
<path id="Vector_89" d="M33.0402 41.8316C32.0287 42.2779 31.2195 41.3852 30.3159 41.5666C30.9633 41.2318 32.2445 41.7479 33.0402 41.8316Z" fill="white"/>
<path id="Vector_90" d="M10.6387 41.9013C11.5828 42.0826 12.5943 42.3476 13.5114 42.3476L13.0798 42.529C10.6117 42.3476 8.83147 42.9474 6.36339 42.7103C6.32293 42.2221 6.72754 41.7757 7.15911 41.7339C8.25154 41.9152 9.5193 42.515 10.6387 41.8873" fill="white"/>
<path id="Vector_91" d="M44.2614 42.278H44.4367C43.7085 42.6546 42.616 42.3478 41.8203 42.2083C41.9956 41.2737 42.8723 42.5151 43.3848 41.8317C43.7759 41.6782 44.0052 42.013 44.2614 42.278Z" fill="white"/>
<path id="Vector_92" d="M23.0195 42.9196C23.0195 43.2265 22.8442 43.631 22.48 43.631L21.8597 43.4497C21.6439 42.7383 22.5475 42.7383 23.0195 42.9196Z" fill="white"/>
<path id="Vector_93" d="M17.6114 43.3659C19.5669 43.9657 21.7518 44.0075 23.7883 44.4539C25.137 44.8305 26.5126 45.0955 27.8208 45.6116C30.3564 46.0579 32.6086 47.1878 35.1172 47.7457C35.333 47.5225 35.5083 47.8155 35.7376 47.8573C33.782 48.1642 31.5971 47.0762 29.5606 46.574C28.9807 46.1556 28.212 46.309 27.7129 45.7929C24.3413 45.235 21.509 43.7704 17.8811 44.0633C16.1413 44.1331 14.0374 43.8401 12.0413 44.3283C10.8005 44.3702 9.85646 43.5054 8.73706 43.2403V43.0869C11.5693 43.1567 14.8735 43.2682 17.6383 43.3519" fill="white"/>
<path id="Vector_94" d="M26.1486 43.2544C26.2565 43.7007 25.744 43.7426 25.5282 44.0076H25.272C25.4878 43.8263 25.7845 43.3381 26.1486 43.2544Z" fill="white"/>
<path id="Vector_95" d="M43.7488 43.4497C43.3846 43.5613 42.7642 44.0076 42.3327 43.631C42.0494 43.896 41.6853 43.5613 41.5774 43.2544C42.3327 43.4357 43.0609 43.2544 43.7623 43.4357" fill="white"/>
<path id="Vector_96" d="M24.7593 43.4496C24.6514 43.6728 24.4357 43.8959 24.2199 44.0075H23.7074C23.559 43.4775 24.1389 43.6728 24.3278 43.3659C24.4761 43.4077 24.6514 43.2962 24.7593 43.4356" fill="white"/>
<path id="Vector_97" d="M31.9883 43.6308C31.3409 44.5374 30.1676 44.8304 29.1965 45.2488V45.0675C30.0732 44.5374 30.8689 43.6447 31.813 43.4495L31.9883 43.6308Z" fill="white"/>
<path id="Vector_98" d="M27.6996 43.6309C27.5513 44.0494 26.9039 44.5376 26.324 44.5376C26.4319 44.0494 27.0792 43.5612 27.6996 43.6309Z" fill="white"/>
<path id="Vector_99" d="M29.6281 43.7006C29.3044 44.1888 28.5761 44.5654 28.0636 44.9839C27.8883 45.0536 27.8074 44.9142 27.6995 44.8026C28.131 44.3144 28.7514 43.5612 29.6281 43.7146" fill="white"/>
<path id="Vector_100" d="M34.0519 43.896C33.9035 44.5376 33.1483 44.8305 32.5953 45.0537C31.9749 45.1235 31.4354 45.6535 30.9229 45.6954C30.8555 45.0956 31.6108 45.4303 31.867 45.0537C32.5548 44.5655 33.2831 44.0076 34.0519 43.896Z" fill="white"/>
<path id="Vector_101" d="M36.2367 44.2725C35.1173 44.8723 34.2811 46.0718 32.9325 46.3369C32.865 46.2253 32.5683 46.2253 32.6762 45.9602L35.5489 44.1609C35.8051 44.2027 36.0614 44.0911 36.2367 44.2725Z" fill="white"/>
<path id="Vector_102" d="M37.4639 44.3423C37.356 45.2768 36.2636 45.9185 35.4679 46.5182C35.1037 46.6996 34.6722 47.0483 34.2271 46.7833L34.1597 46.7135C35.36 46.1835 36.2231 44.8305 37.4639 44.3423Z" fill="white"/>
<path id="Vector_103" d="M42.5216 44.7886C41.2134 45.5837 40.3368 48.2479 38.3407 47.4946C38.0845 47.9131 37.6934 47.4946 37.3966 47.4946C37.1809 46.9367 36.7358 47.4528 36.4121 47.4249C36.7763 46.6717 37.2078 46.1556 37.8957 45.6255C38.516 45.6674 38.2598 44.691 38.9476 44.9142C39.2039 46.1556 37.3157 45.8487 37.3832 47.0483C38.2193 46.9785 38.9746 46.7135 39.8108 46.3369C39.4466 45.2908 40.647 44.8723 41.2943 44.3423C41.6585 44.5236 42.1305 44.5655 42.4946 44.7886" fill="white"/>
<path id="Vector_104" d="M22.035 46.3368C23.1274 47.3551 23.4511 48.6662 24.1389 49.8658C23.5185 50.4656 22.9116 48.9591 22.2103 49.9355C21.6978 50.089 21.8866 49.4892 21.5899 49.2939C20.4705 48.6941 19.0544 48.736 18.0294 47.8712C17.6248 47.8293 17.5979 48.2059 17.49 48.5128C18.2857 50.884 20.538 50.5772 22.3857 51.2188C20.5649 51.1072 18.434 50.5772 17.2337 48.8476C17.3011 48.178 17.0584 47.0064 18.1104 46.9645C18.4071 45.4999 16.3975 45.8068 16.0469 44.5933C18.0834 45.0815 19.8636 46.5042 22.035 46.3229" fill="white"/>
<path id="Vector_105" d="M25.2719 47.16C25.8113 48.4711 26.2564 49.866 26.9442 51.1074C26.8768 51.2887 26.688 51.1771 26.5801 51.219C24.5166 49.9078 26.2564 46.602 23.3432 46.337L22.3992 45.249C23.1679 46.1557 24.8268 45.6256 25.2719 47.16Z" fill="white"/>
<path id="Vector_106" d="M25.9599 46.4067C26.0003 46.5881 25.9194 46.8949 25.7036 46.7833V46.4067H25.9599Z" fill="white"/>
<path id="Vector_107" d="M29.628 48.6664C29.8438 49.4894 30.1405 50.2844 30.7474 50.9261C29.4392 50.2565 29.0751 48.6664 28.3198 47.5087C28.9672 46.7555 29.0886 48.3316 29.628 48.6664Z" fill="white"/>
<path id="Vector_108" d="M26.9443 48.3315C27.3084 49.1544 27.5242 50.0611 28.0637 50.8422L27.9558 50.9119C27.3758 49.7821 26.3643 48.5407 26.0676 47.3132C26.5801 47.3132 26.7959 47.913 26.9443 48.3315Z" fill="white"/>
<path id="Vector_109" d="M31.0038 49.4196C31.3679 49.6427 31.4354 50.1728 31.6242 50.5773C30.6127 50.2425 30.5048 48.8477 29.8035 48.0666V47.6899C30.6801 47.8015 30.3429 48.9732 31.0038 49.4196Z" fill="white"/>
<path id="Vector_110" d="M29.4394 51.1074C28.7516 51.1771 28.4953 50.2844 28.1312 49.6846C27.9154 49.043 27.5917 48.4432 27.4434 47.7737C28.6032 48.4432 28.792 50.0333 29.4394 51.1213" fill="white"/>
<path id="Vector_111" d="M32.6088 50.3959C31.8131 50.1727 31.2601 49.1963 31.0173 48.3315C31.9209 48.5129 32.1098 49.6845 32.6088 50.3959Z" fill="white"/>
<path id="Vector_112" d="M36.3445 48.9593V49.029C36.1287 49.0988 35.6971 48.9174 35.7241 48.5827C36.0478 48.4292 36.1287 48.8058 36.3445 48.9593Z" fill="white"/>
<path id="Vector_113" d="M33.728 49.4893C33.5797 49.7543 33.9843 49.9078 33.728 50.1309C33.2155 50.0612 32.784 49.4893 32.6086 49.043C32.8244 48.3734 33.5123 49.1127 33.728 49.4893Z" fill="white"/>
<path id="Vector_114" d="M34.8611 49.559V49.7403C34.389 49.7821 34.0249 49.4055 33.8091 49.0289C34.1328 48.4989 34.6453 49.2521 34.8611 49.559Z" fill="white"/>
<path id="Vector_115" d="M24.9078 51.3723C24.22 51.5955 23.3838 51.5536 22.6555 51.3026C22.8713 51.3444 24.1795 51.6373 24.4762 50.8562L24.9078 51.3862V51.3723Z" fill="white"/>
<path id="Vector_116" d="M60.9443 13.9764V6.40234H64.0733V13.4742C64.0733 15.7478 65.6512 16.1384 66.3256 16.1384C66.9999 16.1384 68.5913 15.7478 68.5913 13.4742V6.40234H71.7203V13.9764C71.7203 16.236 70.1558 19.2071 66.3256 19.2071C62.4953 19.2071 60.9443 16.236 60.9443 13.9764Z" fill="#A01B17"/>
<path id="Vector_117" d="M74.4447 6.03979L82.1726 12.5816V6.40246H85.315V19.2909H85.1262L77.3848 12.763V18.9282H74.2559V6.03979H74.4447Z" fill="#A01B17"/>
<path id="Vector_118" d="M90.9661 6.40234H87.8372V18.9281H90.9661V6.40234Z" fill="#A01B17"/>
<path id="Vector_119" d="M101.701 6.40234H104.938L98.6129 19.2908H98.4241L92.1663 6.40234H95.5245L98.5994 12.8047L101.701 6.40234Z" fill="#A01B17"/>
<path id="Vector_120" d="M106.125 18.9281V6.40234H114.123V9.33153H109.254V11.1169H113.624V14.0461H109.254V15.9989H114.123V18.9281H106.125Z" fill="#A01B17"/>
<path id="Vector_121" d="M123.294 13.9345L126.22 18.9281H122.822L120.381 14.6459H119.342V18.9281H116.213V6.40234H120.408C123.091 6.40234 125.06 7.81114 125.06 10.5311C125.06 12.1212 124.386 13.2511 123.294 13.9345ZM120.529 9.34548H119.356V11.7307H120.529C121.271 11.7307 121.932 11.5912 121.932 10.545C121.932 9.49891 121.271 9.34548 120.529 9.34548Z" fill="#A01B17"/>
<path id="Vector_122" d="M127.11 18.0913V14.6042C128.108 15.4829 129.417 16.1943 130.725 16.1943C131.264 16.1943 132.316 16.0548 132.316 15.2458C132.316 14.7855 132.047 14.5484 131.628 14.3531L129.255 13.2791C127.798 12.6235 127.097 11.5216 127.097 10.0012C127.097 7.85312 128.81 6.13745 131.386 6.13745C132.721 6.13745 133.908 6.59775 134.501 6.97436V10.2244C133.544 9.54088 132.303 9.08058 131.224 9.08058C130.496 9.08058 130.226 9.45719 130.226 9.77801C130.226 10.0709 130.307 10.3359 130.779 10.5452L132.775 11.4379C134.245 12.0935 135.459 12.8746 135.459 15.0366C135.459 17.7426 133.26 19.1932 130.995 19.1932C129.295 19.1932 128.162 18.6771 127.124 18.0774" fill="#A01B17"/>
<path id="Vector_123" d="M140.26 6.40234H137.131V18.9281H140.26V6.40234Z" fill="#A01B17"/>
<path id="Vector_124" d="M148.19 9.34548V18.9281H145.061V9.34548H141.622V6.40234H151.656V9.34548H148.19Z" fill="#A01B17"/>
<path id="Vector_125" d="M159.425 14.1159V18.9281H156.296V14.1159L151.926 6.40234H155.648L157.901 10.4893L160.086 6.40234H163.673L159.425 14.1159Z" fill="#A01B17"/>
<path id="Vector_126" d="M65.1389 40.911H64.0869V45.1932H60.958V32.6675H65.1524C67.8363 32.6675 69.8053 34.0763 69.8053 36.7962C69.8053 39.5162 67.8363 40.911 65.1524 40.911M65.2603 35.5967H64.0869V37.9819H65.2603C66.0021 37.9819 66.6629 37.8424 66.6629 36.7962C66.6629 35.7501 66.0021 35.5967 65.2603 35.5967Z" fill="#A01B17"/>
<path id="Vector_127" d="M71.3967 45.1932V32.6675H79.3944V35.5967H74.5257V37.3681H78.8954V40.2973H74.5257V42.2501H79.3944V45.1932H71.3967Z" fill="#A01B17"/>
<path id="Vector_128" d="M81.4849 45.1932V32.6675H84.6138V42.2501H89.1453V45.1932H81.4849Z" fill="#A01B17"/>
<path id="Vector_129" d="M96.1719 32.3884C99.7324 32.3884 102.646 35.3176 102.646 38.9163C102.646 42.515 99.7459 45.4442 96.1719 45.4442C92.5979 45.4442 89.6982 42.515 89.6982 38.9163C89.6982 35.3176 92.6114 32.3884 96.1719 32.3884ZM96.1719 42.4035C98.0196 42.4035 99.5166 40.8412 99.5166 38.9303C99.5166 37.0193 98.0331 35.4571 96.1719 35.4571C94.3107 35.4571 92.8272 37.0193 92.8272 38.9303C92.8272 40.8412 94.3107 42.4035 96.1719 42.4035Z" fill="#A01B17"/>
<path id="Vector_130" d="M108.795 40.911H107.743V45.1932H104.615V32.6675H108.809C111.493 32.6675 113.462 34.0763 113.462 36.7962C113.462 39.5162 111.493 40.911 108.809 40.911M108.917 35.5967H107.743V37.9819H108.917C109.659 37.9819 110.319 37.8424 110.319 36.7962C110.319 35.7501 109.659 35.5967 108.917 35.5967Z" fill="#A01B17"/>
<path id="Vector_131" d="M121.042 32.3884C124.602 32.3884 127.515 35.3176 127.515 38.9163C127.515 42.515 124.602 45.4442 121.042 45.4442C117.481 45.4442 114.568 42.515 114.568 38.9163C114.568 35.3176 117.468 32.3884 121.042 32.3884ZM121.042 42.4035C122.889 42.4035 124.386 40.8412 124.386 38.9303C124.386 37.0193 122.903 35.4571 121.042 35.4571C119.18 35.4571 117.697 37.0193 117.697 38.9303C117.697 40.8412 119.18 42.4035 121.042 42.4035Z" fill="#A01B17"/>
<path id="Vector_132" d="M129.66 32.3047L137.387 38.8326V32.6673H140.53V45.5418H140.341L132.6 39.0139V45.1931H129.471V32.3047H129.66Z" fill="#A01B17"/>
<path id="Vector_133" d="M143.241 32.3047L150.982 38.8326V32.6673H154.111V45.5418H153.922L146.181 39.0139V45.1931H143.052V32.3047H143.241Z" fill="#A01B17"/>
<path id="Vector_134" d="M156.633 45.1932V32.6675H164.631V35.5967H159.775V37.3681H164.132V40.2973H159.775V42.2501H164.631V45.1932H156.633Z" fill="#A01B17"/>
<path id="Vector_135" d="M166.222 44.3423V40.8552C167.22 41.7339 168.528 42.4453 169.837 42.4453C170.376 42.4453 171.428 42.3058 171.428 41.4968C171.428 41.0365 171.158 40.7994 170.74 40.6041L168.367 39.5301C166.91 38.8745 166.209 37.7725 166.209 36.2522C166.209 34.1041 167.922 32.3884 170.498 32.3884C171.833 32.3884 173.02 32.8487 173.613 33.2253V36.4753C172.655 35.7919 171.415 35.3316 170.336 35.3316C169.607 35.3316 169.338 35.7082 169.338 36.029C169.338 36.3219 169.419 36.5869 169.891 36.7962L171.887 37.6889C173.357 38.3444 174.571 39.1256 174.571 41.2876C174.571 43.9936 172.372 45.4442 170.106 45.4442C168.407 45.4442 167.274 44.9281 166.236 44.3283" fill="#A01B17"/>
<path id="Vector_136" d="M176.243 45.1932V32.6675H184.24V35.5967H179.372V37.3681H183.728V40.2973H179.372V42.2501H184.24V45.1932H176.243Z" fill="#A01B17"/>
<path id="Vector_137" d="M68.7262 25.6652C68.7262 28.1062 66.8381 30.0171 64.4374 30.0171C62.0368 30.0171 60.1621 28.0922 60.1621 25.6652C60.1621 23.2381 62.0503 21.3132 64.4374 21.3132C66.8246 21.3132 68.7262 23.2381 68.7262 25.6652ZM61.9289 25.6652C61.9289 27.1298 63.0348 28.3293 64.4509 28.3293C65.867 28.3293 66.9864 27.1298 66.9864 25.6652C66.9864 24.2006 65.867 23.001 64.4509 23.001C63.0348 23.001 61.9289 24.2006 61.9289 25.6652Z" fill="#A01B17"/>
<path id="Vector_138" d="M71.8687 23.1684V24.8981H74.7549V26.5579H71.8687V29.8498H70.1289V21.4946H75.092V23.1684H71.8687Z" fill="#A01B17"/>
<path id="Vector_139" d="M82.8199 23.1684V29.8498H81.0801V23.1684H78.666V21.4946H85.2341V23.1684H82.8199Z" fill="#A01B17"/>
<path id="Vector_140" d="M91.4516 29.8498V26.4463H87.972V29.8498H86.2322V21.4946H87.972V24.7725H91.4516V21.4946H93.1914V29.8498H91.4516Z" fill="#A01B17"/>
<path id="Vector_141" d="M94.9851 29.8498V21.4946H100.164V23.1684H96.7249V24.7725H99.8269V26.4463H96.7249V28.162H100.164V29.8498H94.9851Z" fill="#A01B17"/>
</g>
<defs>
<clipPath id="clip0_1106_16287">
<rect width="184" height="52" fill="white" transform="translate(0.240479)"/>
</clipPath>
</defs>
</svg>
