<svg height="25" viewBox="0 0 186 60" fill="none" xmlns="http://www.w3.org/2000/svg">
<g id="Layer_1" clip-path="url(#clip0_1106_16560)">
<g id="Group">
<path id="Vector" d="M44.3649 40.0118C38.7141 40.0118 35.1673 34.8924 34.6128 33.474C34.3546 32.8115 34.5976 32.2427 35.1445 31.8971C35.2812 31.8107 35.4179 31.7531 35.5622 31.7243C36.1015 31.6019 36.6559 31.8179 36.9977 32.2715C38.6382 34.446 40.1572 36.8437 42.9218 37.6861C42.9598 36.1237 42.0484 26.9577 35.5014 22.8031C33.0786 21.2623 30.109 20.3118 25.9165 20.6719C26.8431 21.2551 27.8608 22.1551 28.6051 23.264C31.2406 27.1953 28.9925 31.0547 28.9925 33.5316C28.9925 35.5261 30.4887 37.3909 35.8204 37.3909C36.8913 41.0055 40.3167 42.9424 43.6661 42.9424C49.4459 42.9424 53.2055 37.5997 53.7979 33.2004C52.3169 36.6853 49.7042 40.019 44.3573 40.019L44.3649 40.0118ZM36.6331 27.6705C36.8382 28.2682 36.8002 28.4842 36.6407 28.873C36.6483 28.909 34.8331 28.7506 34.4913 26.9865L36.6255 27.6705H36.6331Z" fill="#010101"/>
<path id="Vector_2" d="M24.0025 21.4063L16.5518 17.0574C16.5518 17.0574 15.5645 17.871 15.1999 19.0014C14.3265 21.6728 15.5113 24.0129 17.9265 25.2009C19.8025 26.1225 23.3874 27.1234 25.757 28.7794C26.5925 29.3627 27.2988 30.0179 27.595 30.2915C28.3621 28.4842 28.3089 26.5618 27.7393 25.2945C27.0102 23.6672 26.2355 22.7096 24.0101 21.3991L24.0025 21.4063Z" fill="#010101"/>
<path id="Vector_3" d="M24.2152 29.8524C21.405 28.2323 17.8506 27.2675 16.3543 26.3314C13.9695 24.8482 12.929 22.6593 13.1492 20.168C10.5593 23.0625 10.2935 27.6203 13.2176 30.7956C16.6505 34.5109 20.5468 34.0069 22.2633 35.267C23.6532 36.2894 23.6911 37.3839 23.6911 37.3839C25.1114 37.2759 26.2507 36.3326 26.7368 35.2598C27.7849 32.9341 26.5013 31.17 24.2152 29.8452V29.8524Z" fill="#010101"/>
</g>
<g id="Group_2">
<g id="Group_3">
<path id="Vector_4" d="M24.0785 58.9704L24.8152 56.2775L23.8202 56.5871L23.4937 55.6799L25.3468 55.0967L26.357 55.3415L25.2861 59.2585L24.0861 58.9632L24.0785 58.9704Z" fill="#010101"/>
<path id="Vector_5" d="M29.8355 59.8848L29.9039 59.1288L27.5494 58.9416L27.6254 58.0704L30.1166 55.8455L31.3166 55.9391L31.0963 58.3872L31.7115 58.4376L31.5292 59.2656L31.0204 59.2224L30.952 59.9784L29.828 59.892L29.8355 59.8848ZM30.0938 56.9615L28.7115 58.2L29.9723 58.3008L30.0938 56.9543V56.9615Z" fill="#010101"/>
<path id="Vector_6" d="M34.1875 58.2791L34.1115 57.4006L34.59 57.3646C35.0077 57.3358 35.2052 57.1918 35.1824 56.947C35.1748 56.8318 35.1065 56.7454 34.9925 56.6878C34.8786 56.6302 34.7191 56.6086 34.514 56.623C34.3242 56.6374 34.1799 56.6878 34.0811 56.767C33.9824 56.8462 33.914 56.9758 33.8761 57.1486H32.7064C32.714 56.8678 32.79 56.6302 32.9343 56.4286C33.0786 56.227 33.276 56.0686 33.5419 55.9462C33.8077 55.8238 34.1191 55.7518 34.4913 55.723C34.8482 55.6942 35.1672 55.7158 35.433 55.7806C35.7065 55.8454 35.9191 55.9606 36.0786 56.119C36.2381 56.2774 36.3293 56.4718 36.3444 56.7022C36.3596 56.9038 36.3141 57.091 36.2077 57.2566C36.1014 57.4222 35.9343 57.5518 35.7141 57.6454C36.0027 57.7102 36.2229 57.8182 36.3748 57.9767C36.5267 58.1351 36.6179 58.3295 36.6407 58.5671C36.671 58.9631 36.5343 59.2871 36.2153 59.5391C35.8963 59.7839 35.4254 59.9351 34.8178 59.9783C34.195 60.0287 33.709 59.9351 33.3596 59.7047C33.0102 59.4743 32.8052 59.1215 32.7596 58.6463L33.9444 58.5527C34.0204 58.9415 34.2862 59.1215 34.7267 59.0855C34.9621 59.0711 35.1368 59.0207 35.2508 58.9343C35.3647 58.8479 35.4179 58.7399 35.4027 58.5959C35.3799 58.3295 35.1216 58.2143 34.6432 58.2503L34.195 58.2791H34.1875Z" fill="#010101"/>
<path id="Vector_7" d="M40.3774 58.9704L40.18 58.2359L37.8939 58.7831L37.666 57.9407L39.2458 55.0606L40.4154 54.7798L41.0534 57.1559L41.6534 57.0119L41.7673 57.8471L41.2737 57.9695L41.4711 58.7039L40.385 58.9704H40.3774ZM39.6103 56.119L38.7293 57.7247L39.9597 57.4295L39.6103 56.119Z" fill="#010101"/>
</g>
<g id="Group_4">
<path id="Vector_8" d="M8.93394 48.141C8.85039 48.2994 8.82761 48.4506 8.86558 48.6018C8.90356 48.7531 9.00229 48.9187 9.16938 49.0987C9.35926 49.3003 9.51876 49.4371 9.66306 49.5019C9.80737 49.5667 9.92129 49.5595 10.0124 49.4875C10.096 49.4155 10.134 49.3363 10.1188 49.2499C10.1036 49.1635 10.0428 49.0195 9.92129 48.8395L9.41242 48.0618C9.10103 47.5938 8.94913 47.205 8.94153 46.8882C8.93394 46.5714 9.07824 46.2906 9.36685 46.0529C9.71623 45.7649 10.1036 45.6713 10.5289 45.7937C10.9542 45.9161 11.4099 46.233 11.896 46.7514C12.3821 47.277 12.6479 47.7522 12.7087 48.1914C12.7694 48.6306 12.6175 49.0267 12.253 49.3939L11.3947 48.4722C11.5238 48.3138 11.577 48.141 11.539 47.961C11.5011 47.781 11.3871 47.5794 11.1745 47.3562C10.977 47.1474 10.8023 47.0034 10.6352 46.9386C10.4757 46.8738 10.339 46.881 10.2403 46.9602C10.1643 47.025 10.134 47.1042 10.1491 47.205C10.1643 47.3058 10.2327 47.4426 10.3542 47.6154L10.7795 48.249C11.1137 48.7387 11.2808 49.1491 11.296 49.4947C11.3112 49.8331 11.1669 50.1283 10.8707 50.3803C10.5517 50.6467 10.1719 50.7115 9.73901 50.5891C9.30609 50.4595 8.85799 50.1571 8.40988 49.6675C7.99215 49.2139 7.74911 48.7963 7.68075 48.4146C7.6124 48.033 7.72633 47.673 7.99975 47.3418L8.91115 48.1482L8.93394 48.141Z" fill="#010101"/>
<path id="Vector_9" d="M9.57198 44.037L5.82762 46.2546L5.13647 45.2106L8.88083 42.9929L9.57198 44.037Z" fill="#010101"/>
<path id="Vector_10" d="M4.68076 38.075C5.21241 37.9238 5.69849 37.9814 6.13901 38.2334C6.57952 38.4854 6.93649 38.9174 7.19472 39.5295C7.39219 39.9831 7.48333 40.4079 7.45295 40.8111C7.43016 41.2071 7.30105 41.5599 7.05041 41.8696C6.80737 42.1792 6.46559 42.4168 6.01749 42.5968C5.59216 42.7624 5.18203 42.82 4.7795 42.7696C4.37696 42.7192 4.01999 42.5608 3.6934 42.3016C3.36682 42.0352 3.10859 41.6751 2.90352 41.2071C2.66048 40.6455 2.58453 40.1559 2.68326 39.7239C2.7744 39.2991 3.04023 38.9318 3.48074 38.6294L4.11113 39.7167C3.92126 39.8679 3.81492 40.0335 3.77695 40.2135C3.73897 40.3863 3.77695 40.5951 3.87568 40.8327C4.01999 41.1639 4.23265 41.3799 4.52126 41.4807C4.80988 41.5815 5.13646 41.5599 5.50862 41.4159C5.88078 41.2719 6.13141 41.0631 6.25293 40.7967C6.38205 40.5303 6.36686 40.2279 6.22255 39.8895C6.10863 39.6231 5.96432 39.4359 5.79723 39.3351C5.63014 39.2343 5.42507 39.1911 5.18203 39.2343L4.68076 38.0894V38.075Z" fill="#010101"/>
<path id="Vector_11" d="M5.90357 36.1238L1.59718 37.0383L1.31616 35.8358L5.62255 34.9214L5.90357 36.1238Z" fill="#010101"/>
<path id="Vector_12" d="M5.28835 33.2654L0.883228 33.5463L0.799683 32.3222L4.1415 32.1134L3.97441 29.7229L5.04531 29.7877L5.28835 33.2726V33.2654Z" fill="#010101"/>
<path id="Vector_13" d="M5.15925 28.2899L0.761719 27.9299L0.868049 26.7058L5.26558 27.0658L5.15925 28.2899Z" fill="#010101"/>
<path id="Vector_14" d="M6.34413 22.1193L5.46311 22.2273L4.94665 24.0922L5.66058 24.589L5.3264 25.7987L1.54407 22.9761L1.93141 21.5793L6.68591 20.8809L6.34413 22.1193ZM2.7213 22.5369L4.08841 23.5018L4.41499 22.3353L2.7213 22.5369Z" fill="#010101"/>
<path id="Vector_15" d="M7.2251 19.7721L3.29846 17.864L5.05292 14.6167L5.94154 15.0487L4.7719 17.216L5.37191 17.504L6.48838 15.4447L7.377 15.8767L6.26053 17.936L6.92889 18.26L8.16688 15.9632L8.99474 16.496L7.23269 19.7577L7.2251 19.7721Z" fill="#010101"/>
<path id="Vector_16" d="M11.5011 9.05792C11.3264 8.98592 11.1669 8.97872 11.0074 9.02192C10.8555 9.06512 10.6808 9.17313 10.5061 9.34593C10.301 9.54034 10.1719 9.69875 10.1188 9.84275C10.058 9.97956 10.0732 10.0948 10.1567 10.174C10.2327 10.246 10.3238 10.2748 10.415 10.2604C10.5061 10.246 10.6504 10.174 10.8327 10.0444L11.615 9.51154C12.0859 9.18753 12.4884 9.01472 12.815 8.98592C13.1492 8.96432 13.453 9.07952 13.7264 9.33873C14.053 9.64835 14.1745 10.0156 14.0758 10.426C13.977 10.8364 13.6732 11.29 13.1568 11.7796C12.6403 12.2693 12.1542 12.5573 11.6909 12.6437C11.2352 12.7301 10.8023 12.6149 10.3998 12.2909L11.3188 11.4196C11.4935 11.5348 11.6757 11.5636 11.8656 11.5204C12.0555 11.4772 12.253 11.3476 12.4808 11.1316C12.6935 10.93 12.8226 10.7572 12.8909 10.5988C12.9517 10.4404 12.9365 10.318 12.8378 10.2244C12.7694 10.1524 12.6783 10.1308 12.572 10.1524C12.4656 10.174 12.3289 10.246 12.1542 10.3684L11.5162 10.8148C11.0226 11.1604 10.5972 11.3476 10.2403 11.3836C9.88331 11.4196 9.56432 11.3044 9.28331 11.038C8.9871 10.7572 8.88836 10.4044 8.9871 9.97956C9.09343 9.56194 9.38964 9.12273 9.86812 8.66191C10.3162 8.23709 10.7416 7.97788 11.1441 7.89148C11.5466 7.80507 11.9264 7.88428 12.2985 8.12909L11.5087 9.04352L11.5011 9.05792Z" fill="#010101"/>
<path id="Vector_17" d="M16.7112 8.79887L14.8581 6.14916L13.4909 7.0132L12.9061 6.17077L16.7264 3.76587L17.3113 4.6083L15.9441 5.47234L17.7973 8.12204L16.7112 8.80607V8.79887Z" fill="#010101"/>
<path id="Vector_18" d="M21.7544 6.16337L18.4885 2.87284L19.8177 2.38322L22.043 4.78811L21.9898 1.59119L23.2962 1.11597L23.205 5.63055L21.7544 6.15617V6.16337Z" fill="#010101"/>
<path id="Vector_19" d="M26.0608 4.7594L25.4304 0.619234L27.4887 0.338422C28.3621 0.216018 29.0457 0.302421 29.5545 0.590433C30.0558 0.878444 30.3596 1.36086 30.4659 2.04489C30.5647 2.70732 30.4052 3.24734 29.9874 3.67216C29.5697 4.09697 28.9241 4.37058 28.0583 4.48579L26.0608 4.7594ZM27.9368 3.51375C28.8558 3.38414 29.2659 2.95933 29.152 2.2249C29.0457 1.49767 28.5444 1.19526 27.6558 1.31766L26.8507 1.42567L27.1849 3.61455L27.9368 3.51375Z" fill="#010101"/>
<path id="Vector_20" d="M32.304 4.18337L32.4179 0L33.7166 0.0288011L33.6027 4.21217L32.304 4.18337Z" fill="#010101"/>
<path id="Vector_21" d="M36.6407 4.5146L35.7141 0.0864258L37.1192 0.345636L37.6584 3.49936L39.3977 0.763253L40.7648 1.01526L38.1597 4.79541L36.6331 4.5146H36.6407Z" fill="#010101"/>
<path id="Vector_22" d="M45.0864 7.20035L46.1648 4.98986L44.0458 6.74673L43.18 6.36511L43.218 3.70821L42.1395 5.9115L41.0762 5.44348L42.9294 1.64893L44.2585 2.23215L44.2205 5.35707L46.7041 3.31219L48.0104 3.88822L46.1573 7.68277L45.0712 7.20755L45.0864 7.20035Z" fill="#010101"/>
<path id="Vector_23" d="M53.5093 11.6429L52.7953 10.9517L53.4865 10.3036L55.0435 11.7941L53.6004 13.1478C53.2511 13.083 52.9093 12.9534 52.5751 12.7661C52.2409 12.5789 51.9295 12.3485 51.6333 12.0677C51.0181 11.4773 50.6839 10.8869 50.6308 10.2964C50.5776 9.70602 50.813 9.166 51.3295 8.68358C51.6637 8.36677 52.0282 8.15796 52.4232 8.06436C52.8181 7.97075 53.2207 7.98515 53.6308 8.12196C54.0409 8.25877 54.4359 8.51078 54.8232 8.87799C55.2561 9.29561 55.522 9.71322 55.6207 10.138C55.7194 10.5701 55.6511 10.9733 55.408 11.3477L54.4055 10.5557C54.489 10.3828 54.5042 10.21 54.4511 10.0516C54.3979 9.88603 54.2764 9.71322 54.0789 9.52602C53.7903 9.2524 53.4941 9.1156 53.1903 9.1228C52.8865 9.1228 52.5827 9.26681 52.2789 9.54762C51.9675 9.84283 51.8156 10.138 51.8232 10.4333C51.8308 10.7357 52.0055 11.0453 52.3472 11.3693C52.6207 11.6285 52.8941 11.8229 53.1751 11.9453L53.5169 11.6285L53.5093 11.6429Z" fill="#010101"/>
<path id="Vector_24" d="M54.1777 14.6886L57.9068 12.4565L59.9575 15.5383L59.1144 16.0423L57.7397 13.983L57.1701 14.3214L58.4765 16.2799L57.6334 16.7839L56.3271 14.8254L55.6891 15.2071L57.1397 17.3887L56.2283 17.792L54.1625 14.6958L54.1777 14.6886Z" fill="#010101"/>
<path id="Vector_25" d="M58.1499 22.2345L59.9195 19.376L57.398 20.2401L56.9802 19.1384L61.1347 17.72L61.5221 18.7424L59.7524 21.6009L62.274 20.7369L62.6917 21.8385L58.5372 23.257L58.1499 22.2345Z" fill="#010101"/>
<path id="Vector_26" d="M58.8942 24.8625L63.2689 24.3369L63.755 27.9515L62.7677 28.0739L62.4411 25.6546L61.7727 25.7338L62.0765 28.0307L61.0892 28.1531L60.7854 25.8562L60.0334 25.9498L60.3752 28.5059H59.3727L58.8866 24.8697L58.8942 24.8625Z" fill="#010101"/>
<path id="Vector_27" d="M59.1752 32.9774L60.7322 32.2574L60.8157 31.2997L59.3271 31.1917L59.4258 30.0325L63.8233 30.3637L63.6487 32.495C63.5423 33.7406 63.0031 34.3238 62.0309 34.2518C61.7423 34.2302 61.4993 34.151 61.317 34.0142C61.1347 33.8774 60.9904 33.683 60.8917 33.4238L59.0688 34.3166L59.1752 32.9846V32.9774ZM61.6815 32.2646C61.6588 32.531 61.6815 32.7254 61.7575 32.855C61.8258 32.9846 61.9626 33.0494 62.1448 33.0638C62.3271 33.0782 62.4638 33.0278 62.5474 32.9198C62.6385 32.8118 62.6917 32.6246 62.7145 32.351L62.7904 31.4365L61.7575 31.3573L61.6815 32.2574V32.2646Z" fill="#010101"/>
<path id="Vector_28" d="M57.7397 38.7231L58.6207 38.6511L59.2208 36.8078L58.5296 36.2822L58.917 35.0869L62.5626 38.0678L62.1145 39.4431L57.3296 39.9471L57.7321 38.7231H57.7397ZM61.3777 38.4566L60.0562 37.4342L59.6765 38.5863L61.3777 38.4566Z" fill="#010101"/>
<path id="Vector_29" d="M56.7372 41.0344L60.5803 43.0865L59.9423 44.1593L57.0182 42.6041L55.7802 44.6922L54.922 44.0873L56.7296 41.0416L56.7372 41.0344Z" fill="#010101"/>
<path id="Vector_30" d="M54.0486 45.2683L57.398 47.99L54.8992 50.7549L54.1397 50.1429L55.8106 48.2924L55.2941 47.8748L53.7068 49.6317L52.9473 49.0197L54.5346 47.2628L53.965 46.7948L52.1954 48.7532L51.5194 48.0548L54.041 45.2683H54.0486Z" fill="#010101"/>
</g>
<path id="Vector_31" d="M16.9848 54.3765C17.4504 54.3765 17.8278 54.0187 17.8278 53.5773C17.8278 53.1359 17.4504 52.7781 16.9848 52.7781C16.5192 52.7781 16.1417 53.1359 16.1417 53.5773C16.1417 54.0187 16.5192 54.3765 16.9848 54.3765Z" fill="#010101"/>
<path id="Vector_32" d="M47.4864 54.3765C47.952 54.3765 48.3294 54.0187 48.3294 53.5773C48.3294 53.1359 47.952 52.7781 47.4864 52.7781C47.0208 52.7781 46.6433 53.1359 46.6433 53.5773C46.6433 54.0187 47.0208 54.3765 47.4864 54.3765Z" fill="#010101"/>
</g>
<g id="Group_5">
<g id="Group_6">
<path id="Vector_33" d="M83.1147 9.79236V20.3552C83.1147 22.1481 83.5629 23.5089 84.4667 24.4305C85.3705 25.3522 86.5933 25.8202 88.1503 25.8202C89.7984 25.8202 91.0668 25.309 91.9478 24.2937C92.8288 23.2785 93.2769 21.8168 93.2769 19.9232V9.79236H94.2339V19.9232C94.2339 22.2633 93.6415 24.0273 92.4491 25.2226C91.2566 26.4178 89.5401 27.0226 87.2844 27.0226C86.1528 27.0226 85.1274 26.8714 84.2236 26.569C83.3122 26.2666 82.5451 25.8274 81.8995 25.2442C81.254 24.661 80.7679 23.9481 80.4261 23.0913C80.0843 22.2417 79.9172 21.2624 79.9172 20.1536V9.78516H83.1147V9.79236Z" fill="#010101"/>
<path id="Vector_34" d="M100.295 26.7201H97.3479V16.3733H100.295V26.7201ZM100.295 18.9726C100.492 17.9141 100.956 17.1221 101.677 16.6037C102.399 16.0853 103.234 15.8333 104.176 15.8333C104.875 15.8333 105.459 15.9413 105.93 16.1573C106.409 16.3733 106.796 16.6685 107.1 17.0357C107.404 17.4101 107.624 17.8421 107.761 18.3246C107.897 18.8142 107.966 19.3254 107.966 19.8726V26.7129H105.019V19.9374C105.019 19.419 104.966 18.9798 104.852 18.6126C104.738 18.2453 104.586 17.9501 104.389 17.7341C104.191 17.5109 103.963 17.3525 103.697 17.2517C103.432 17.1509 103.151 17.1005 102.847 17.1005C102.3 17.1005 101.814 17.2517 101.373 17.5541C100.933 17.8565 100.576 18.3246 100.302 18.9726H100.295Z" fill="#010101"/>
<path id="Vector_35" d="M110.776 11.6212C110.776 11.1603 110.943 10.7715 111.285 10.4475C111.627 10.1235 112.037 9.96509 112.523 9.96509C113.009 9.96509 113.419 10.1235 113.768 10.4475C114.118 10.7715 114.292 11.1603 114.292 11.6212C114.292 12.082 114.118 12.4708 113.768 12.7948C113.419 13.1188 113.001 13.2772 112.523 13.2772C112.044 13.2772 111.627 13.1188 111.285 12.7948C110.943 12.4708 110.776 12.082 110.776 11.6212ZM111.049 16.3733H113.996V26.7202H111.049V16.3733Z" fill="#010101"/>
<path id="Vector_36" d="M126.612 16.3733L122.009 26.7201H120.376L115.766 16.3733H118.986L122.252 24.1352L125.746 16.3733H126.604H126.612Z" fill="#010101"/>
<path id="Vector_37" d="M130.538 20.2254C130.523 20.355 130.515 20.4846 130.515 20.6142V20.9599C130.515 21.6223 130.584 22.2271 130.72 22.7887C130.857 23.3504 131.07 23.8328 131.358 24.2432C131.647 24.6536 132.019 24.9776 132.482 25.2152C132.946 25.4528 133.493 25.568 134.131 25.568C134.495 25.568 134.867 25.5248 135.239 25.4384C135.619 25.352 135.984 25.208 136.341 24.9992C136.698 24.7904 137.024 24.5168 137.328 24.1712C137.632 23.8256 137.89 23.4008 138.103 22.9039L138.445 23.0119C138.034 24.4016 137.374 25.424 136.462 26.0649C135.551 26.7057 134.48 27.0369 133.25 27.0369C132.369 27.0369 131.571 26.9073 130.857 26.6409C130.143 26.3745 129.528 26.0001 129.019 25.5104C128.51 25.0208 128.123 24.4376 127.842 23.7464C127.561 23.0551 127.424 22.2847 127.424 21.4207C127.424 20.5566 127.569 19.851 127.865 19.1742C128.161 18.4902 128.571 17.9069 129.088 17.4101C129.612 16.9133 130.227 16.5317 130.941 16.2581C131.655 15.9845 132.429 15.8477 133.28 15.8477C133.964 15.8477 134.594 15.9485 135.186 16.1573C135.779 16.3661 136.288 16.6613 136.728 17.0501C137.169 17.4389 137.518 17.8997 137.769 18.4398C138.019 18.9798 138.164 19.5774 138.179 20.2398H130.553L130.538 20.2254ZM133.234 16.3085C132.839 16.3085 132.49 16.3949 132.194 16.5749C131.89 16.7549 131.632 16.9997 131.412 17.3165C131.191 17.6333 131.017 17.9933 130.88 18.4038C130.743 18.8142 130.644 19.239 130.584 19.6854H135.346C135.331 18.5982 135.156 17.7629 134.814 17.1797C134.472 16.6037 133.948 16.3085 133.234 16.3085Z" fill="#010101"/>
<path id="Vector_38" d="M143.632 26.7202H140.685V16.3734H143.632V19.2319C143.769 18.7423 143.951 18.2959 144.186 17.8855C144.422 17.4751 144.711 17.1222 145.06 16.8342C145.409 16.539 145.819 16.3086 146.298 16.143C146.776 15.9774 147.331 15.8982 147.969 15.8982V18.2887C147.711 18.2311 147.468 18.1879 147.232 18.1591C146.997 18.1303 146.754 18.1159 146.495 18.1159C146.192 18.1159 145.895 18.1375 145.599 18.1663C145.303 18.2023 145.03 18.2599 144.771 18.3463C144.513 18.4327 144.285 18.5479 144.088 18.6919C143.89 18.8359 143.738 19.0159 143.632 19.2319V26.7202Z" fill="#010101"/>
<path id="Vector_39" d="M149.981 24.0488C150.27 24.0488 150.506 24.1208 150.695 24.2648C150.885 24.4088 151.052 24.5816 151.197 24.7832C151.341 24.9848 151.47 25.1936 151.584 25.4097C151.698 25.6257 151.827 25.8129 151.979 25.9713C152.313 26.3457 152.716 26.5329 153.202 26.5329C153.84 26.5329 154.341 26.3529 154.721 25.9857C155.101 25.6185 155.29 25.1648 155.29 24.6176C155.29 24.1136 155.131 23.6816 154.812 23.3144C154.493 22.9472 153.999 22.6807 153.338 22.5079L152.344 22.2271C151.706 22.0543 151.181 21.8527 150.764 21.6223C150.346 21.3919 150.019 21.1399 149.776 20.8591C149.533 20.5783 149.366 20.283 149.268 19.9806C149.169 19.6782 149.123 19.3542 149.123 19.023C149.123 18.5046 149.237 18.051 149.465 17.6693C149.693 17.2805 149.997 16.9565 150.384 16.6973C150.771 16.4381 151.227 16.2437 151.759 16.1069C152.29 15.9701 152.86 15.9053 153.483 15.9053C153.954 15.9053 154.425 15.9485 154.903 16.0277C155.382 16.1069 155.807 16.2221 156.187 16.3733C156.566 16.5245 156.878 16.7117 157.113 16.9349C157.356 17.1581 157.478 17.4101 157.478 17.6981C157.478 17.9574 157.371 18.1806 157.159 18.3678C156.946 18.555 156.695 18.6486 156.407 18.6486C156.118 18.6486 155.89 18.591 155.723 18.4758C155.556 18.3606 155.42 18.2166 155.306 18.0438C155.192 17.871 155.093 17.6909 155.002 17.5037C154.911 17.3165 154.797 17.1437 154.66 16.9853C154.493 16.7837 154.311 16.6397 154.113 16.5461C153.916 16.4525 153.65 16.4093 153.316 16.4093C152.814 16.4093 152.397 16.5605 152.055 16.8629C151.713 17.1653 151.546 17.5469 151.546 18.0006C151.546 18.4542 151.698 18.843 152.002 19.1814C152.306 19.527 152.807 19.8006 153.498 19.995L154.455 20.2542C155.708 20.5855 156.604 21.0247 157.144 21.5647C157.683 22.1119 157.949 22.8031 157.949 23.6528C157.949 24.2144 157.82 24.704 157.561 25.1288C157.303 25.5537 156.961 25.8993 156.528 26.1801C156.095 26.4609 155.602 26.6697 155.04 26.8137C154.478 26.9577 153.9 27.0297 153.293 27.0297C151.827 27.0297 150.711 26.8353 149.943 26.4465C149.176 26.0577 148.797 25.6113 148.797 25.1144C148.797 24.7976 148.903 24.5456 149.123 24.3512C149.343 24.1496 149.624 24.056 149.974 24.056L149.981 24.0488Z" fill="#010101"/>
<path id="Vector_40" d="M160.098 11.6212C160.098 11.1603 160.265 10.7715 160.607 10.4475C160.949 10.1235 161.359 9.96509 161.845 9.96509C162.331 9.96509 162.741 10.1235 163.09 10.4475C163.44 10.7715 163.615 11.1603 163.615 11.6212C163.615 12.082 163.44 12.4708 163.09 12.7948C162.741 13.1188 162.323 13.2772 161.845 13.2772C161.366 13.2772 160.949 13.1188 160.607 12.7948C160.265 12.4708 160.098 12.082 160.098 11.6212ZM160.371 16.3733H163.318V26.7202H160.371V16.3733Z" fill="#010101"/>
<path id="Vector_41" d="M165.005 16.3734H166.979V14.3933L169.926 12.4348V16.3734H173.898V16.9566H169.926V23.6889C169.926 24.4593 170.078 25.0065 170.389 25.3233C170.701 25.6401 171.119 25.7985 171.65 25.7985C172.091 25.7985 172.463 25.6905 172.774 25.4673C173.086 25.2441 173.412 24.8913 173.762 24.4017L174.081 24.5745C173.686 25.3665 173.192 25.9714 172.584 26.389C171.977 26.8138 171.217 27.0226 170.291 27.0226C169.303 27.0226 168.506 26.7562 167.898 26.2162C167.283 25.6761 166.979 24.8193 166.979 23.6457V16.9566H165.005V16.3806V16.3734Z" fill="#010101"/>
<path id="Vector_42" d="M183.673 24.6321C183.673 25.3522 183.939 25.705 184.471 25.705C184.668 25.705 184.858 25.6618 185.048 25.5826C185.238 25.5034 185.412 25.3594 185.579 25.1433L185.762 25.2297C185.519 25.8922 185.169 26.3458 184.721 26.5978C184.266 26.8498 183.734 26.9722 183.134 26.9722C182.587 26.9722 182.093 26.8426 181.638 26.5762C181.182 26.3098 180.909 25.8778 180.825 25.2729C180.43 25.921 179.959 26.3674 179.405 26.6266C178.85 26.8858 178.273 27.0154 177.665 27.0154C176.67 27.0154 175.919 26.7634 175.417 26.2594C174.916 25.7554 174.665 25.1649 174.665 24.4737C174.665 23.9121 174.81 23.4369 175.106 23.0409C175.402 22.6448 175.82 22.3136 176.352 22.0544C176.891 21.788 177.536 21.5864 178.288 21.4424C179.048 21.2984 179.883 21.2048 180.81 21.1616V18.1519C180.81 17.475 180.681 16.9998 180.415 16.7118C180.149 16.4238 179.762 16.2798 179.245 16.2798C178.85 16.2798 178.516 16.3734 178.235 16.5462C177.954 16.7262 177.817 17.0214 177.817 17.439C177.817 17.5254 177.825 17.619 177.84 17.727C177.855 17.8351 177.863 17.9647 177.863 18.1231C177.863 18.4975 177.764 18.7999 177.559 19.0303C177.354 19.2607 177.058 19.3759 176.663 19.3759C176.329 19.3759 176.055 19.2751 175.835 19.0663C175.615 18.8575 175.508 18.5767 175.508 18.2167C175.508 17.7991 175.638 17.4462 175.896 17.1438C176.154 16.8414 176.481 16.5966 176.868 16.4022C177.263 16.2078 177.688 16.0638 178.152 15.9702C178.615 15.8766 179.048 15.8334 179.458 15.8334C180.893 15.8334 181.964 16.0782 182.671 16.5678C183.377 17.0574 183.719 17.8927 183.703 19.0879L183.681 24.6321H183.673ZM176.215 9.68433H179.253L181.022 14.5661H180.612L176.207 9.68433H176.215ZM177.552 24.2001C177.552 24.6897 177.681 25.0857 177.924 25.4026C178.174 25.7194 178.524 25.8778 178.979 25.8778C179.283 25.8778 179.587 25.8202 179.898 25.705C180.21 25.5898 180.514 25.345 180.817 24.9705V21.4424C179.731 21.572 178.911 21.8888 178.364 22.3856C177.817 22.8897 177.544 23.4873 177.544 24.1929L177.552 24.2001Z" fill="#010101"/>
</g>
<g id="Group_7">
<path id="Vector_43" d="M88.8262 41.1064C88.4768 40.8184 88.1274 40.6168 87.7705 40.4944C87.4135 40.372 87.0337 40.3144 86.6236 40.3144C86.1071 40.3144 85.6362 40.4224 85.2185 40.6384C84.8008 40.8544 84.4286 41.1568 84.1172 41.5457C83.8058 41.9345 83.5628 42.3953 83.3881 42.9353C83.2134 43.4753 83.1299 44.0658 83.1299 44.7066C83.1299 45.3474 83.221 45.945 83.3881 46.4779C83.5552 47.0107 83.8058 47.4787 84.1172 47.8675C84.4286 48.2563 84.8008 48.5515 85.2413 48.7603C85.6818 48.9692 86.1603 49.07 86.692 49.07C87.0565 49.07 87.4135 49.0196 87.7705 48.9188C88.1274 48.818 88.4768 48.6235 88.8262 48.3355C88.5224 48.8972 88.0895 49.358 87.5198 49.7324C86.9502 50.1068 86.2135 50.294 85.3097 50.294C84.535 50.294 83.8286 50.1572 83.1755 49.8836C82.5223 49.61 81.9678 49.2284 81.497 48.7315C81.0261 48.2347 80.6615 47.6443 80.3957 46.9603C80.1298 46.269 80.0007 45.5202 80.0007 44.6994C80.0007 43.8786 80.1298 43.1801 80.3957 42.4961C80.6615 41.8121 81.0261 41.2216 81.497 40.7104C81.9678 40.1992 82.5299 39.8032 83.1755 39.5152C83.821 39.2272 84.535 39.0832 85.3097 39.0832C86.2211 39.0832 86.9502 39.2776 87.5122 39.652C88.0743 40.0336 88.5148 40.516 88.8262 41.1064ZM88.8262 49.9916V33.0637H91.7806V49.9916H88.8262Z" fill="#010101"/>
<path id="Vector_44" d="M94.7275 34.8926C94.7275 34.4318 94.8946 34.043 95.2364 33.719C95.5782 33.395 95.9883 33.2366 96.4744 33.2366C96.9605 33.2366 97.3706 33.395 97.72 33.719C98.0694 34.043 98.244 34.4318 98.244 34.8926C98.244 35.3535 98.0694 35.7423 97.72 36.0663C97.3706 36.3903 96.9529 36.5487 96.4744 36.5487C95.9959 36.5487 95.5782 36.3903 95.2364 36.0663C94.8946 35.7423 94.7275 35.3535 94.7275 34.8926ZM95.001 39.6448H97.9478V49.9916H95.001V39.6448Z" fill="#010101"/>
</g>
<g id="Group_8">
<path id="Vector_45" d="M120.596 48.5082C119.51 49.1563 118.401 49.6099 117.27 49.8835C116.146 50.1571 114.999 50.2939 113.829 50.2939C112.151 50.2939 110.677 50.0635 109.416 49.5955C108.156 49.1275 107.1 48.4938 106.264 47.6946C105.421 46.8954 104.799 45.9593 104.381 44.8865C103.963 43.8208 103.758 42.6904 103.758 41.4952C103.758 40.1631 103.994 38.9463 104.472 37.859C104.95 36.7718 105.626 35.8429 106.5 35.0725C107.381 34.3093 108.437 33.7116 109.675 33.3012C110.913 32.8836 112.295 32.6748 113.829 32.6748C115.052 32.6748 116.206 32.7972 117.277 33.042C118.348 33.2868 119.404 33.654 120.429 34.1365V37.751H120.087C119.556 36.3326 118.735 35.2453 117.619 34.4893C116.503 33.7332 115.204 33.3588 113.738 33.3588C112.887 33.3588 112.075 33.5172 111.3 33.8341C110.518 34.1509 109.834 34.6405 109.249 35.3101C108.657 35.9797 108.186 36.8222 107.829 37.8518C107.472 38.8743 107.297 40.0911 107.297 41.4952C107.297 42.8992 107.472 44.1161 107.821 45.1385C108.171 46.1609 108.634 47.0106 109.226 47.6658C109.819 48.3282 110.502 48.8106 111.277 49.1275C112.052 49.4443 112.88 49.6027 113.738 49.6027C114.475 49.6027 115.181 49.5163 115.849 49.3435C116.518 49.1707 117.125 48.897 117.687 48.5154C118.249 48.1338 118.743 47.6442 119.176 47.0394C119.609 46.4346 119.958 45.7145 120.232 44.8649H120.596V48.501V48.5082Z" fill="#010101"/>
<path id="Vector_46" d="M131.328 47.9035C131.328 48.6235 131.594 48.9763 132.126 48.9763C132.323 48.9763 132.513 48.9331 132.703 48.8539C132.893 48.7747 133.067 48.6307 133.234 48.4147L133.417 48.5011C133.174 49.1635 132.824 49.6172 132.376 49.8692C131.92 50.1212 131.389 50.2436 130.789 50.2436C130.242 50.2436 129.748 50.114 129.293 49.8476C128.837 49.5812 128.563 49.1491 128.48 48.5443C128.085 49.1923 127.614 49.6388 127.06 49.898C126.505 50.1572 125.928 50.2868 125.32 50.2868C124.325 50.2868 123.573 50.0348 123.072 49.5308C122.571 49.0267 122.32 48.4363 122.32 47.7451C122.32 47.1835 122.465 46.7082 122.761 46.3122C123.057 45.9162 123.475 45.585 124.006 45.3258C124.546 45.0594 125.191 44.8578 125.943 44.7138C126.703 44.5698 127.538 44.4761 128.465 44.4329V41.4232C128.465 40.7464 128.328 40.2712 128.07 39.9832C127.804 39.6952 127.417 39.5512 126.9 39.5512C126.505 39.5512 126.171 39.6448 125.89 39.8176C125.609 39.9976 125.472 40.2928 125.472 40.7104C125.472 40.7968 125.48 40.8904 125.495 40.9984C125.51 41.1064 125.518 41.236 125.518 41.3944C125.518 41.7688 125.419 42.0713 125.214 42.3017C125.009 42.5321 124.713 42.6473 124.318 42.6473C123.984 42.6473 123.71 42.5465 123.49 42.3377C123.27 42.1289 123.163 41.848 123.163 41.488C123.163 41.0704 123.292 40.7176 123.551 40.4152C123.809 40.1128 124.136 39.868 124.523 39.6736C124.918 39.4791 125.343 39.3351 125.806 39.2415C126.27 39.1479 126.703 39.1047 127.113 39.1047C128.548 39.1047 129.619 39.3495 130.325 39.8392C131.032 40.3288 131.374 41.164 131.358 42.3593L131.336 47.9035H131.328ZM125.199 47.4787C125.199 47.9683 125.328 48.3643 125.571 48.6811C125.822 48.9979 126.171 49.1563 126.627 49.1563C126.931 49.1563 127.234 49.0987 127.546 48.9835C127.857 48.8683 128.161 48.6235 128.465 48.2491V44.721C127.379 44.8506 126.558 45.1674 126.012 45.6642C125.465 46.1682 125.191 46.7658 125.191 47.4715L125.199 47.4787Z" fill="#010101"/>
<path id="Vector_47" d="M133.348 39.6446H135.323V37.6645L138.27 35.7061V39.6446H142.242V40.2278H138.27V46.9601C138.27 47.7305 138.422 48.2778 138.733 48.5946C139.045 48.9114 139.462 49.0698 139.994 49.0698C140.435 49.0698 140.807 48.9618 141.118 48.7386C141.43 48.5154 141.756 48.1626 142.105 47.6729L142.424 47.8457C142.03 48.6378 141.528 49.2426 140.928 49.6602C140.328 50.0778 139.561 50.2938 138.635 50.2938C137.647 50.2938 136.85 50.0274 136.242 49.4874C135.627 48.9474 135.323 48.0906 135.323 46.9169V40.235H133.348V39.6518V39.6446Z" fill="#010101"/>
<path id="Vector_48" d="M152.017 47.9035C152.017 48.6235 152.283 48.9763 152.814 48.9763C153.012 48.9763 153.202 48.9331 153.392 48.8539C153.582 48.7747 153.756 48.6307 153.923 48.4147L154.106 48.5011C153.863 49.1635 153.513 49.6172 153.065 49.8692C152.609 50.1212 152.078 50.2436 151.478 50.2436C150.931 50.2436 150.437 50.114 149.982 49.8476C149.526 49.5812 149.252 49.1491 149.169 48.5443C148.774 49.1923 148.303 49.6388 147.749 49.898C147.194 50.1572 146.617 50.2868 146.009 50.2868C145.014 50.2868 144.262 50.0348 143.761 49.5308C143.26 49.0267 143.009 48.4363 143.009 47.7451C143.009 47.1835 143.154 46.7082 143.45 46.3122C143.746 45.9162 144.164 45.585 144.695 45.3258C145.235 45.0594 145.88 44.8578 146.632 44.7138C147.392 44.5698 148.227 44.4761 149.154 44.4329V41.4232C149.154 40.7464 149.025 40.2712 148.759 39.9832C148.493 39.6952 148.106 39.5512 147.589 39.5512C147.194 39.5512 146.86 39.6448 146.579 39.8176C146.298 39.9976 146.161 40.2928 146.161 40.7104C146.161 40.7968 146.169 40.8904 146.184 40.9984C146.199 41.1064 146.207 41.236 146.207 41.3944C146.207 41.7688 146.108 42.0713 145.903 42.3017C145.698 42.5321 145.402 42.6473 145.007 42.6473C144.673 42.6473 144.399 42.5465 144.179 42.3377C143.959 42.1289 143.852 41.848 143.852 41.488C143.852 41.0704 143.981 40.7176 144.24 40.4152C144.498 40.1128 144.824 39.868 145.212 39.6736C145.607 39.4791 146.032 39.3351 146.495 39.2415C146.959 39.1479 147.392 39.1047 147.802 39.1047C149.237 39.1047 150.308 39.3495 151.014 39.8392C151.721 40.3288 152.063 41.164 152.047 42.3593L152.025 47.9035H152.017ZM145.895 47.4787C145.895 47.9683 146.025 48.3643 146.268 48.6811C146.518 48.9979 146.868 49.1563 147.323 49.1563C147.627 49.1563 147.931 49.0987 148.242 48.9835C148.554 48.8683 148.857 48.6235 149.161 48.2491V44.721C148.075 44.8506 147.255 45.1674 146.708 45.6642C146.161 46.1682 145.888 46.7658 145.888 47.4715L145.895 47.4787Z" fill="#010101"/>
<path id="Vector_49" d="M158.739 49.9916H155.792V39.6448H158.739V49.9916ZM158.739 42.2441C158.936 41.1856 159.399 40.3936 160.121 39.8752C160.842 39.3567 161.678 39.1047 162.62 39.1047C163.318 39.1047 163.903 39.2127 164.374 39.4287C164.853 39.6448 165.24 39.94 165.544 40.3072C165.847 40.6816 166.068 41.1136 166.204 41.596C166.341 42.0857 166.41 42.5969 166.41 43.1441V49.9844H163.463V43.2089C163.463 42.6905 163.402 42.2513 163.296 41.884C163.182 41.5168 163.03 41.2216 162.832 41.0056C162.635 40.7824 162.407 40.624 162.141 40.5232C161.875 40.4224 161.594 40.372 161.29 40.372C160.744 40.372 160.258 40.5232 159.817 40.8256C159.376 41.128 159.02 41.596 158.746 42.2441H158.739Z" fill="#010101"/>
<path id="Vector_50" d="M169.22 34.8924C169.22 34.4316 169.387 34.0428 169.729 33.7187C170.07 33.3947 170.481 33.2363 170.967 33.2363C171.453 33.2363 171.863 33.3947 172.212 33.7187C172.562 34.0428 172.736 34.4316 172.736 34.8924C172.736 35.3532 172.562 35.742 172.212 36.066C171.863 36.3901 171.445 36.5485 170.967 36.5485C170.488 36.5485 170.07 36.3901 169.729 36.066C169.387 35.742 169.22 35.3532 169.22 34.8924ZM169.486 39.6446H172.432V49.9914H169.486V39.6446Z" fill="#010101"/>
<path id="Vector_51" d="M183.65 47.9035C183.65 48.6235 183.916 48.9763 184.448 48.9763C184.645 48.9763 184.835 48.9331 185.025 48.8539C185.215 48.7747 185.39 48.6307 185.557 48.4147L185.739 48.5011C185.496 49.1635 185.147 49.6172 184.698 49.8692C184.243 50.1212 183.711 50.2436 183.111 50.2436C182.564 50.2436 182.071 50.114 181.615 49.8476C181.159 49.5812 180.886 49.1491 180.802 48.5443C180.407 49.1923 179.936 49.6388 179.382 49.898C178.827 50.1572 178.25 50.2868 177.643 50.2868C176.648 50.2868 175.896 50.0348 175.394 49.5308C174.893 49.0267 174.643 48.4363 174.643 47.7451C174.643 47.1835 174.787 46.7082 175.083 46.3122C175.379 45.9162 175.797 45.585 176.329 45.3258C176.868 45.0594 177.514 44.8578 178.265 44.7138C179.025 44.5698 179.86 44.4761 180.787 44.4329V41.4232C180.787 40.7464 180.65 40.2712 180.392 39.9832C180.126 39.6952 179.739 39.5512 179.222 39.5512C178.827 39.5512 178.493 39.6448 178.212 39.8176C177.931 39.9976 177.795 40.2928 177.795 40.7104C177.795 40.7968 177.802 40.8904 177.817 40.9984C177.832 41.1064 177.84 41.236 177.84 41.3944C177.84 41.7688 177.741 42.0713 177.536 42.3017C177.331 42.5321 177.035 42.6473 176.64 42.6473C176.306 42.6473 176.032 42.5465 175.812 42.3377C175.592 42.1289 175.486 41.848 175.486 41.488C175.486 41.0704 175.615 40.7176 175.873 40.4152C176.131 40.1128 176.458 39.868 176.845 39.6736C177.24 39.4791 177.665 39.3351 178.129 39.2415C178.592 39.1479 179.025 39.1047 179.435 39.1047C180.871 39.1047 181.941 39.3495 182.648 39.8392C183.354 40.3288 183.696 41.164 183.681 42.3593L183.658 47.9035H183.65ZM177.521 47.4787C177.521 47.9683 177.65 48.3643 177.893 48.6811C178.144 48.9979 178.493 49.1563 178.949 49.1563C179.253 49.1563 179.557 49.0987 179.868 48.9835C180.179 48.8683 180.483 48.6235 180.787 48.2491V44.721C179.701 44.8506 178.881 45.1674 178.334 45.6642C177.787 46.1682 177.514 46.7658 177.514 47.4715L177.521 47.4787Z" fill="#010101"/>
</g>
</g>
</g>
<defs>
<clipPath id="clip0_1106_16560">
<rect width="185" height="60" fill="white" transform="translate(0.761719)"/>
</clipPath>
</defs>
</svg>
