<svg height="25" viewBox="0 0 205 52" fill="none" xmlns="http://www.w3.org/2000/svg">
<g id="Layer_1" clip-path="url(#clip0_1106_16432)">
<path id="Vector" d="M76.2585 13.5437H74.4829L69.9546 25.1054L65.4263 13.5437H63.5957L69.0324 27.0874H70.8217L76.2447 13.5437H76.2585ZM83.4845 27.0874V21.9534C83.4845 20.4119 83.4432 19.3245 82.5486 18.4161C81.9017 17.7692 80.952 17.3701 79.5894 17.3701C76.9467 17.3701 75.8318 18.9942 75.6254 19.242L76.6714 20.1228C76.9467 19.8476 77.8 18.7602 79.493 18.7602C80.3188 18.7602 81.007 18.9804 81.3649 19.3383C81.8329 19.8063 81.943 20.1641 81.943 21.1964H79.9747C79.1902 21.1964 77.2908 21.1138 76.1209 22.2838C75.6666 22.738 75.3363 23.3436 75.3363 24.3071C75.3363 26.3717 76.8916 27.3076 78.6809 27.3076C81.007 27.3076 81.8604 25.9037 81.9705 25.7523L82.0118 27.0736H83.4983V27.1011L83.4845 27.0874ZM81.9292 22.5453C81.9292 23.4812 81.9292 24.3346 81.1584 25.0641C80.6905 25.5183 79.9885 25.8899 78.8736 25.8899C77.8689 25.8899 76.9467 25.4357 76.9467 24.3071C76.9467 22.6003 78.7773 22.5315 80.0573 22.5315H81.9155L81.9292 22.5453ZM93.6561 27.0874V21.9534C93.6561 20.4119 93.6148 19.3245 92.7201 18.4161C92.0732 17.7692 91.1235 17.3701 89.7609 17.3701C87.1182 17.3701 86.0033 18.9942 85.7969 19.242L86.8429 20.1228C87.1182 19.8476 87.9716 18.7602 89.6645 18.7602C90.4904 18.7602 91.1786 18.9804 91.5364 19.3383C92.0044 19.8063 92.1145 20.1641 92.1145 21.1964H90.1463C89.3617 21.1964 87.4623 21.1138 86.2924 22.2838C85.8382 22.738 85.5216 23.3436 85.5216 24.3071C85.5216 26.3717 87.0769 27.3076 88.8662 27.3076C91.1923 27.3076 92.0457 25.9037 92.1558 25.7523L92.1971 27.0736H93.6698V27.1011L93.6561 27.0874ZM92.1007 22.5453C92.1007 23.4812 92.1007 24.3346 91.33 25.0641C90.862 25.5183 90.16 25.8899 89.0451 25.8899C88.0404 25.8899 87.132 25.4357 87.132 24.3071C87.132 22.6003 88.9626 22.5315 90.2426 22.5315H92.1007V22.5453ZM103.621 24.5548C103.621 20.3568 97.2622 22.5866 97.2622 20.1228C97.2622 19.1594 98.3771 18.7189 99.4782 18.7189C101.378 18.7189 102.121 19.6824 102.355 19.9301L103.401 19.0768C103.236 18.8428 102.314 17.3701 99.492 17.3701C97.097 17.3701 95.6793 18.6914 95.6793 20.1228C95.6793 24.1281 102.038 21.981 102.038 24.5411C102.038 25.5871 100.841 26.0138 99.5608 26.0138C97.5512 26.0138 96.6979 24.9264 96.4914 24.72L95.5142 25.6559C95.6656 25.8486 96.7254 27.3627 99.5057 27.3627C102.258 27.3902 103.621 26 103.621 24.5686M113.449 27.0874V21.9534C113.449 20.4119 113.407 19.3245 112.513 18.4161C111.879 17.7692 110.916 17.3701 109.553 17.3701C106.911 17.3701 105.796 18.9942 105.589 19.242L106.635 20.1228C106.911 19.8476 107.764 18.7602 109.457 18.7602C110.283 18.7602 110.971 18.9804 111.329 19.3383C111.797 19.8063 111.907 20.1641 111.907 21.1964H109.939C109.154 21.1964 107.255 21.1138 106.085 22.2838C105.631 22.738 105.3 23.3436 105.3 24.3071C105.3 26.3717 106.856 27.3076 108.645 27.3076C110.971 27.3076 111.824 25.9037 111.935 25.7523L111.976 27.0736H113.462V27.1011L113.449 27.0874ZM111.893 22.5453C111.893 23.4812 111.893 24.3346 111.122 25.0641C110.668 25.5183 109.953 25.8899 108.838 25.8899C107.833 25.8899 106.911 25.4357 106.911 24.3071C106.911 22.6003 108.741 22.5315 110.021 22.5315H111.879L111.893 22.5453ZM124.308 27.0874V21.6231C124.308 20.5633 124.184 19.2695 123.331 18.4024C122.546 17.5903 121.624 17.3838 120.771 17.3838C118.527 17.3838 117.619 18.8703 117.509 19.0217L117.468 17.6591H115.954V27.0874H117.55V22.8894C117.55 21.5681 117.578 20.4807 118.404 19.6273C118.954 19.0768 119.752 18.8566 120.303 18.8566C121.198 18.8566 121.734 19.0906 122.092 19.4759C122.602 19.9852 122.684 20.8248 122.684 21.8296V27.0736H124.308V27.1011V27.0874ZM140.013 17.6591H138.347L135.099 25.2568L131.92 17.6591H130.199L134.246 27.0874L134.053 27.7067C133.695 28.5601 133.269 29.1382 132.319 29.1382C131.865 29.1382 131.589 29.0281 131.507 28.9868L131.08 30.2668C131.245 30.3494 131.782 30.5421 132.47 30.5421C134.108 30.5421 134.879 29.6062 135.306 28.5739L139.999 17.6591H140.013ZM143.041 13.5437H141.444V27.0874H143.041V13.5437ZM147.5 14.5898C147.5 14.0117 147.032 13.5437 146.454 13.5437C145.876 13.5437 145.408 14.0117 145.408 14.5898C145.408 15.1678 145.876 15.6358 146.454 15.6358C147.046 15.6083 147.5 15.1678 147.5 14.5898ZM147.266 17.6591H145.67V27.0874H147.266V17.6591ZM159.351 22.3801C159.351 19.9301 157.727 17.3838 154.382 17.3838C151.038 17.3838 149.414 19.9164 149.414 22.3801C149.414 24.8439 151.038 27.3764 154.382 27.3764C157.727 27.3764 159.351 24.8439 159.351 22.3801ZM157.686 22.3801C157.686 23.5913 157.259 24.486 156.667 25.0916C156.13 25.6284 155.346 25.9174 154.382 25.9174C153.419 25.9174 152.648 25.6146 152.098 25.0916C151.506 24.4998 151.079 23.6051 151.079 22.3801C151.079 21.1551 151.506 20.2742 152.098 19.6686C152.634 19.1318 153.419 18.8428 154.382 18.8428C155.346 18.8428 156.103 19.1456 156.667 19.6686C157.259 20.2467 157.686 21.1551 157.686 22.3801ZM170.789 22.3801C170.789 18.5675 168.215 17.3838 166.261 17.3838C163.893 17.3838 162.833 18.8703 162.723 19.0493L162.682 17.6591H161.127V30.8036H162.723V25.8762C162.806 26.0276 163.701 27.3627 165.958 27.3627C169.027 27.3627 170.775 24.9677 170.775 22.3664M169.11 22.4352C169.11 24.6512 167.665 25.9312 165.917 25.9312C164.292 25.9312 162.668 24.8163 162.668 22.4077C162.668 19.999 164.375 18.8015 165.958 18.8015C167.665 18.8153 169.11 19.82 169.11 22.4214M174.78 14.5898C174.78 14.0117 174.312 13.5437 173.734 13.5437C173.156 13.5437 172.688 14.0117 172.688 14.5898C172.688 15.1678 173.156 15.6358 173.734 15.6358C174.326 15.6083 174.78 15.1678 174.78 14.5898ZM174.546 17.6591H172.95V27.0874H174.546V17.6591ZM184.635 24.5548C184.635 20.3568 178.277 22.5866 178.277 20.1228C178.277 19.1594 179.364 18.7189 180.492 18.7189C182.392 18.7189 183.135 19.6824 183.369 19.9301L184.415 19.0768C184.25 18.8428 183.3 17.3701 180.506 17.3701C178.111 17.3701 176.694 18.6914 176.694 20.1228C176.694 24.1281 183.053 21.981 183.053 24.5411C183.053 25.5871 181.855 26.0138 180.575 26.0138C178.566 26.0138 177.712 24.9264 177.506 24.72L176.528 25.6559C176.68 25.8486 177.74 27.3627 180.52 27.3627C183.273 27.3902 184.635 26 184.635 24.5686M192.921 26.9635L192.536 25.711C192.385 25.7523 191.875 25.945 191.173 25.945C190.526 25.945 190.045 25.7936 189.659 25.4357C189.15 24.9264 189.164 24.1281 189.164 23.4675V19.0355H192.55V17.6453H189.164V14.576H187.567V17.6453H185.461V19.0355H187.567V23.6602C187.567 25.0228 187.65 25.6835 188.393 26.4542C189.205 27.2663 190.361 27.3764 190.953 27.3764C192.068 27.3764 192.811 27.0186 192.921 26.9773M204.194 22.3801C204.194 19.9301 202.57 17.3838 199.225 17.3838C195.881 17.3838 194.256 19.9164 194.256 22.3801C194.256 24.8439 195.881 27.3764 199.225 27.3764C202.57 27.3764 204.194 24.8439 204.194 22.3801ZM202.501 22.3801C202.501 23.5913 202.074 24.486 201.482 25.0916C200.946 25.6284 200.161 25.9174 199.198 25.9174C198.234 25.9174 197.463 25.6146 196.913 25.0916C196.321 24.4998 195.894 23.6051 195.894 22.3801C195.894 21.1551 196.321 20.2742 196.913 19.6686C197.45 19.1318 198.234 18.8428 199.198 18.8428C200.161 18.8428 200.918 19.1456 201.482 19.6686C202.102 20.2467 202.501 21.1551 202.501 22.3801Z" fill="#5A595A"/>
<path id="Vector_2" d="M26.0478 24.9126L20.8037 19.6823L26.0478 14.4382" fill="#FFDA00"/>
<path id="Vector_3" d="M13.7842 24.9126L19.0145 19.6823L13.7842 14.4382" fill="#FFDA00"/>
<path id="Vector_4" d="M14.6788 13.5437L19.9091 18.7877L25.1532 13.5437" fill="#FFDA00"/>
<path id="Vector_5" d="M14.6788 25.8072L19.9091 20.5769L25.1532 25.8072" fill="#FFDB0F"/>
<path id="Vector_6" d="M39.5915 24.9126L34.3474 19.6823L39.5915 14.4382" fill="#FFDA00"/>
<path id="Vector_7" d="M27.3003 24.9126L32.5581 19.6823L27.3003 14.4382" fill="#F7A40D"/>
<path id="Vector_8" d="M28.2087 13.5437L33.4528 18.7877L38.6968 13.5437" fill="#FFDA00"/>
<path id="Vector_9" d="M28.2087 25.8072L33.4528 20.5769L38.6968 25.8072" fill="#FFDA00"/>
<path id="Vector_10" d="M53.1214 24.9126L47.8911 19.6823L53.1214 14.4382" fill="#FFDA00"/>
<path id="Vector_11" d="M40.8578 24.9126L46.1018 19.6823L40.8578 14.4382" fill="#FFDA00"/>
<path id="Vector_12" d="M41.7524 13.5437L46.9965 18.7877L52.213 13.5437" fill="#FFDA00"/>
<path id="Vector_13" d="M41.7524 25.8072L46.9965 20.5769L52.213 25.8072" fill="#FFDA00"/>
<path id="Vector_14" d="M12.5041 24.9126L7.2738 19.6823L12.5041 14.4382" fill="#FFDA00"/>
<path id="Vector_15" d="M0.240479 24.9126L5.48452 19.6823L0.240479 14.4382" fill="#FFDA00"/>
<path id="Vector_16" d="M1.13513 13.5437L6.37918 18.7877L11.6095 13.5437" fill="#F7A40D"/>
<path id="Vector_17" d="M1.13513 25.8072L6.37918 20.5769L11.6095 25.8072" fill="#FFDA00"/>
<path id="Vector_18" d="M13.7842 11.3689L19.0145 6.13858L13.7842 0.894531" fill="#FFDA00"/>
<path id="Vector_19" d="M14.6788 12.2913L19.9091 7.03345L25.1532 12.2913" fill="#FFDB0F"/>
<path id="Vector_20" d="M39.5915 11.3689L34.3474 6.13858L39.5915 0.894531" fill="#FFDA00"/>
<path id="Vector_21" d="M27.3003 11.3689L32.5581 6.13858L27.3003 0.894531" fill="#FFDA00"/>
<path id="Vector_22" d="M28.2087 0L33.4528 5.24404L38.6968 0" fill="#FFDB0F"/>
<path id="Vector_23" d="M28.2087 12.2913L33.4528 7.03345L38.6968 12.2913" fill="#FFDA00"/>
<path id="Vector_24" d="M40.8578 11.3689L46.1018 6.13858L40.8578 0.894531" fill="#FFDA00"/>
<path id="Vector_25" d="M41.7524 12.2913L46.9965 7.03345L52.213 12.2913" fill="#F7A40D"/>
<path id="Vector_26" d="M12.5041 11.3689L7.2738 6.13858L12.5041 0.894531" fill="#FFDA00"/>
<path id="Vector_27" d="M1.13513 12.2913L6.37918 7.03345L11.6095 12.2913" fill="#FFDA00"/>
<path id="Vector_28" d="M26.0478 38.4563L20.8037 33.2122L26.0478 27.9819" fill="#FFDB0F"/>
<path id="Vector_29" d="M13.7842 38.4563L19.0145 33.2122L13.7842 27.9819" fill="#FFDA00"/>
<path id="Vector_30" d="M14.6788 27.0874L19.9091 32.3177L25.1532 27.0874" fill="#FFDA00"/>
<path id="Vector_31" d="M14.6788 39.3509L19.9091 34.1206L25.1532 39.3509" fill="#FFDA00"/>
<path id="Vector_32" d="M39.5915 38.4563L34.3474 33.2122L39.5915 27.9819" fill="#F7A40D"/>
<path id="Vector_33" d="M27.3003 38.4563L32.5581 33.2122L27.3003 27.9819" fill="#FFDA00"/>
<path id="Vector_34" d="M28.2087 27.0874L33.4528 32.3177L38.6693 27.0874" fill="#FFDA00"/>
<path id="Vector_35" d="M28.2087 39.3509L33.4528 34.1206L38.6693 39.3509" fill="#FFDA00"/>
<path id="Vector_36" d="M40.8578 38.4563L46.1018 33.2122L40.8578 27.9819" fill="#FFDA00"/>
<path id="Vector_37" d="M41.7524 27.0874L46.9965 32.3177L52.213 27.0874" fill="#FFDA00"/>
<path id="Vector_38" d="M12.5041 38.4563L7.2738 33.2122L12.5041 27.9819" fill="#FFDA00"/>
<path id="Vector_39" d="M1.13513 27.0874L6.37918 32.3177L11.6095 27.0874" fill="#FFDA00"/>
<path id="Vector_40" d="M26.0478 52L20.8037 46.7559L26.0478 41.5256" fill="#FFDA00"/>
<path id="Vector_41" d="M14.6788 40.6311L19.9091 45.8614L25.1532 40.6311" fill="#FFDA00"/>
<path id="Vector_42" d="M27.3003 52L32.5581 46.7559L27.3003 41.5256" fill="#F7A40D"/>
<path id="Vector_43" d="M28.2087 40.6311L33.4528 45.8614L38.6693 40.6311" fill="#FFDA00"/>
<path id="Vector_44" d="M68.6196 35.8963V32.3177H67.8763V35.8963C67.8763 36.5845 67.8075 37.0524 67.4083 37.4516C67.1055 37.7544 66.6376 37.9058 66.1283 37.9058C65.619 37.9058 65.1511 37.7406 64.8482 37.4378C64.3803 36.9699 64.3803 36.378 64.3803 35.7999V32.3177H63.6095V35.855C63.6095 36.4055 63.6095 37.2176 64.2289 37.837C64.7381 38.3462 65.385 38.5665 66.1283 38.5665C66.8715 38.5665 67.5184 38.3325 68.0277 37.837C68.6058 37.2864 68.6196 36.6258 68.6196 35.8963ZM75.0198 38.4564V32.3177H74.3178V37.2176L70.7805 32.3177H70.0097V38.4564H70.7117V33.4876L74.2903 38.4564H75.0198ZM77.1945 32.3314H76.4237V38.4701H77.1945V32.3314ZM83.7461 32.3314H82.934L80.8832 37.5755L78.8324 32.3314H78.0065L80.4565 38.4701H81.2686L83.7461 32.3314ZM88.9488 38.4564V37.7957H85.3014V35.6623H88.6047V35.0016H85.3014V32.9783H88.825V32.3177H84.5306V38.4564H88.9488ZM95.1151 38.4564L93.2019 35.8137C93.312 35.7862 94.7572 35.5384 94.7572 34.0657C94.7572 33.6665 94.6333 33.2123 94.2617 32.8545C93.7662 32.359 93.0642 32.3177 92.2797 32.3177H90.0775V38.4564H90.8483V35.8963H92.3623L94.1929 38.4564H95.1151ZM94.0002 34.107C94.0002 35.1943 92.9817 35.2631 92.087 35.2631H90.8758V32.9646H92.1558C92.7339 32.9646 93.367 32.9646 93.7524 33.35C93.9176 33.5426 94.0139 33.7766 94.0139 34.1207M100.483 36.7909C100.483 34.341 96.574 35.5522 96.574 33.873C96.574 33.1848 97.1521 32.8545 98.0192 32.8545C99.2305 32.8545 99.7948 33.639 99.8774 33.7491L100.414 33.3224C100.304 33.171 99.726 32.1938 98.0192 32.1938C96.5465 32.1938 95.762 33.0196 95.762 33.9005C95.762 36.3092 99.6709 35.2218 99.6709 36.8185C99.6709 37.5617 99.024 37.9471 98.033 37.9471C96.7254 37.9471 96.2437 37.135 96.1198 37.0111L95.583 37.4378C95.6656 37.5617 96.3125 38.6353 98.033 38.6353C99.547 38.6078 100.483 37.9333 100.483 36.8047M102.493 32.3314H101.722V38.4701H102.493V32.3314ZM108.315 32.9921V32.3314H103.318V32.9921H105.424V38.4701H106.195V32.9921H108.301H108.315ZM113.834 32.3314H112.981L111.205 35.098L109.416 32.3314H108.521L110.778 35.7724V38.4564H111.549V35.7724L113.834 32.3314ZM122.588 35.387C122.588 33.8042 121.583 32.1663 119.518 32.1663C117.454 32.1663 116.449 33.8042 116.449 35.387C116.449 36.9699 117.454 38.6078 119.518 38.6078C121.583 38.6078 122.588 36.9699 122.588 35.387ZM121.789 35.387C121.789 36.6946 121.06 37.9196 119.505 37.9196C117.949 37.9196 117.22 36.6808 117.22 35.387C117.22 34.0932 117.949 32.8545 119.505 32.8545C121.06 32.8545 121.789 34.0932 121.789 35.387ZM127.914 32.9921V32.3314H123.73V38.4701H124.501V35.6761H127.694V35.0154H124.501V32.9921H127.914ZM136.063 32.3314H135.251L133.2 37.5755L131.149 32.3314H130.323L132.773 38.4701H133.585L136.063 32.3314ZM141.692 38.4564L139.132 32.3177H138.237L135.677 38.4564H136.489L137.15 36.8322H140.206L140.866 38.4564H141.692ZM139.944 36.1716H137.425L138.678 33.0747L139.93 36.1716H139.944ZM147.927 38.4564L145.367 32.3177H144.472L141.912 38.4564H142.724L143.385 36.8322H146.441L147.101 38.4564H147.927ZM146.152 36.1716H143.633L144.885 33.0747L146.138 36.1716H146.152ZM153.13 36.7909C153.13 34.341 149.221 35.5522 149.221 33.873C149.221 33.1848 149.799 32.8545 150.666 32.8545C151.877 32.8545 152.442 33.639 152.524 33.7491L153.061 33.3224C152.951 33.171 152.373 32.1938 150.666 32.1938C149.193 32.1938 148.409 33.0196 148.409 33.9005C148.409 36.3092 152.318 35.2218 152.318 36.8185C152.318 37.5617 151.685 37.9471 150.68 37.9471C149.386 37.9471 148.891 37.135 148.767 37.0111L148.23 37.4378C148.313 37.5617 148.959 38.6353 150.68 38.6353C152.221 38.6078 153.13 37.9333 153.13 36.8047M159.571 38.4564L157.011 32.3177H156.117L153.557 38.4564H154.369L155.029 36.8322H158.085L158.746 38.4564H159.571ZM157.823 36.1716H155.305L156.557 33.0747L157.81 36.1716H157.823Z" fill="#5A595A"/>
</g>
<defs>
<clipPath id="clip0_1106_16432">
<rect width="203.953" height="52" fill="white" transform="translate(0.240479)"/>
</clipPath>
</defs>
</svg>
